M48
; DRILL file {KiCad (6.0.9)} date Mon Jan  1 16:13:23 2024
; FORMAT={-:-/ absolute / inch / decimal}
; #@! TF.CreationDate,2024-01-01T16:13:23-07:00
; #@! TF.GenerationSoftware,Kicad,Pcbnew,(6.0.9)
; #@! TF.FileFunction,Plated,1,2,PTH
FMAT,2
INCH
; #@! TA.AperFunction,Plated,PTH,ComponentDrill
T1C0.0300
; #@! TA.AperFunction,Plated,PTH,ComponentDrill
T2C0.0315
; #@! TA.AperFunction,Plated,PTH,ComponentDrill
T3C0.0354
; #@! TA.AperFunction,Plated,PTH,ComponentDrill
T4C0.0374
; #@! TA.AperFunction,Plated,PTH,ComponentDrill
T5C0.0394
; #@! TA.AperFunction,Plated,PTH,ComponentDrill
T6C0.0433
; #@! TA.AperFunction,Plated,PTH,ComponentDrill
T7C0.0472
; #@! TA.AperFunction,Plated,PTH,ComponentDrill
T8C0.0630
; #@! TA.AperFunction,Plated,PTH,ComponentDrill
T9C0.1260
%
G90
G05
T1
X5.4496Y-2.85
X5.5496Y-2.85
T2
X4.9Y-3.2
X4.9Y-3.7
X5.3496Y-2.85
X5.3496Y-2.95
X5.3496Y-3.05
X5.3496Y-3.15
X5.3496Y-3.25
X5.3496Y-3.35
X5.3496Y-3.45
X5.3496Y-3.55
X5.6855Y-3.7282
X5.6855Y-4.2282
X5.8496Y-2.85
X5.8496Y-2.95
X5.8496Y-3.05
X5.8496Y-3.15
X5.8496Y-3.25
X5.8496Y-3.35
X5.8496Y-3.45
X5.8496Y-3.55
X5.8903Y-3.7279
X5.8903Y-4.2279
X6.083Y-3.7279
X6.083Y-4.2279
X6.1Y-2.8016
X6.1Y-2.9
X6.4016Y-3.3
X6.5Y-3.3
X6.7Y-3.3
X6.7984Y-3.3
X7.1Y-4.0
X7.1Y-4.1969
T3
X5.6244Y-4.3754
X5.7244Y-4.3754
X5.8359Y-4.3754
X5.9359Y-4.3754
X6.0499Y-4.3754
X6.1499Y-4.3754
T4
X5.4Y-3.7606
X5.4Y-3.859
X5.4Y-3.9575
X5.4Y-4.2031
X5.4Y-4.3016
X5.4Y-4.4
X6.1Y-3.1524
X6.1Y-3.2508
X6.1Y-3.3492
X6.1Y-3.4476
T5
X4.4998Y-2.9201
X4.4998Y-3.0201
X4.4998Y-3.1201
X4.4998Y-3.2201
X4.4998Y-3.3201
X4.4998Y-3.4201
X4.4998Y-3.5201
X4.4998Y-3.6201
X4.4998Y-3.7201
X4.4998Y-3.8201
X4.4998Y-3.9201
X4.4998Y-4.0201
X4.4998Y-4.1201
X4.4998Y-4.2201
X4.4998Y-4.3201
X5.0998Y-2.9201
X5.0998Y-3.0201
X5.0998Y-3.1201
X5.0998Y-3.2201
X5.0998Y-3.3201
X5.0998Y-3.4201
X5.0998Y-3.5201
X5.0998Y-3.6201
X5.0998Y-3.7201
X5.0998Y-3.8201
X5.0998Y-3.9201
X5.0998Y-4.0201
X5.0998Y-4.1201
X5.0998Y-4.2201
X5.0998Y-4.3201
T6
X6.5Y-3.8
X6.6Y-3.8
X6.7Y-3.8
T7
X6.4Y-4.3
X6.5969Y-4.3
X6.7937Y-4.3
X7.0979Y-3.2367
X7.0979Y-3.8367
T8
X6.7826Y-2.9458
X6.9676Y-2.8277
X6.9676Y-3.0639
T9
X4.8Y-2.8
X4.8Y-4.4
X6.5Y-2.8
X7.1Y-4.4
T0
M30
