%TF.GenerationSoftware,KiCad,Pcbnew,(6.0.9)*%
%TF.CreationDate,2024-01-01T16:13:23-07:00*%
%TF.ProjectId,Birds Nest,42697264-7320-44e6-9573-742e6b696361,rev?*%
%TF.SameCoordinates,Original*%
%TF.FileFunction,Drillmap*%
%TF.FilePolarity,Positive*%
%FSLAX45Y45*%
G04 Gerber Fmt 4.5, Leading zero omitted, Abs format (unit mm)*
G04 Created by KiCad (PCBNEW (6.0.9)) date 2024-01-01 16:13:23*
%MOMM*%
%LPD*%
G01*
G04 APERTURE LIST*
%ADD10C,0.038100*%
%ADD11C,0.200000*%
%ADD12C,0.076200*%
%ADD13C,0.080000*%
%ADD14C,0.090000*%
%ADD15C,0.095000*%
%ADD16C,0.100000*%
%ADD17C,0.110000*%
%ADD18C,0.120000*%
%ADD19C,0.160000*%
%ADD20C,0.320000*%
G04 APERTURE END LIST*
D10*
X11430000Y-6752790D02*
G75*
G03*
X11176000Y-6858000I0J-359210D01*
G01*
X11431875Y-11534929D02*
X18034000Y-11534725D01*
X11176000Y-6858000D02*
G75*
G03*
X11070790Y-7112000I254000J-254000D01*
G01*
X18393210Y-7112000D02*
X18392725Y-11176000D01*
X11072664Y-11175719D02*
G75*
G03*
X11177875Y-11429718I359206J-2D01*
G01*
X18288000Y-6858000D02*
G75*
G03*
X18034000Y-6752790I-254000J-254000D01*
G01*
X18034000Y-11534725D02*
G75*
G03*
X18392725Y-11176000I0J358725D01*
G01*
X18393210Y-7112000D02*
G75*
G03*
X18288000Y-6858000I-359210J0D01*
G01*
X11070790Y-7112000D02*
X11072665Y-11175719D01*
X11177873Y-11429721D02*
G75*
G03*
X11431875Y-11534929I253997J254001D01*
G01*
X18034000Y-6752790D02*
X11430000Y-6752790D01*
D11*
D12*
X13803900Y-7200900D02*
X13880100Y-7277100D01*
X13880100Y-7200900D02*
X13803900Y-7277100D01*
X14057900Y-7200900D02*
X14134100Y-7277100D01*
X14134100Y-7200900D02*
X14057900Y-7277100D01*
D13*
X12486000Y-8128000D02*
G75*
G03*
X12486000Y-8128000I-40000J0D01*
G01*
X12486000Y-9398000D02*
G75*
G03*
X12486000Y-9398000I-40000J0D01*
G01*
X13628000Y-7239000D02*
G75*
G03*
X13628000Y-7239000I-40000J0D01*
G01*
X13628000Y-7493000D02*
G75*
G03*
X13628000Y-7493000I-40000J0D01*
G01*
X13628000Y-7747000D02*
G75*
G03*
X13628000Y-7747000I-40000J0D01*
G01*
X13628000Y-8001000D02*
G75*
G03*
X13628000Y-8001000I-40000J0D01*
G01*
X13628000Y-8255000D02*
G75*
G03*
X13628000Y-8255000I-40000J0D01*
G01*
X13628000Y-8509000D02*
G75*
G03*
X13628000Y-8509000I-40000J0D01*
G01*
X13628000Y-8763000D02*
G75*
G03*
X13628000Y-8763000I-40000J0D01*
G01*
X13628000Y-9017000D02*
G75*
G03*
X13628000Y-9017000I-40000J0D01*
G01*
X14481223Y-9469558D02*
G75*
G03*
X14481223Y-9469558I-40000J0D01*
G01*
X14481223Y-10739558D02*
G75*
G03*
X14481223Y-10739558I-40000J0D01*
G01*
X14898000Y-7239000D02*
G75*
G03*
X14898000Y-7239000I-40000J0D01*
G01*
X14898000Y-7493000D02*
G75*
G03*
X14898000Y-7493000I-40000J0D01*
G01*
X14898000Y-7747000D02*
G75*
G03*
X14898000Y-7747000I-40000J0D01*
G01*
X14898000Y-8001000D02*
G75*
G03*
X14898000Y-8001000I-40000J0D01*
G01*
X14898000Y-8255000D02*
G75*
G03*
X14898000Y-8255000I-40000J0D01*
G01*
X14898000Y-8509000D02*
G75*
G03*
X14898000Y-8509000I-40000J0D01*
G01*
X14898000Y-8763000D02*
G75*
G03*
X14898000Y-8763000I-40000J0D01*
G01*
X14898000Y-9017000D02*
G75*
G03*
X14898000Y-9017000I-40000J0D01*
G01*
X15001359Y-9468836D02*
G75*
G03*
X15001359Y-9468836I-40000J0D01*
G01*
X15001359Y-10738836D02*
G75*
G03*
X15001359Y-10738836I-40000J0D01*
G01*
X15490889Y-9468836D02*
G75*
G03*
X15490889Y-9468836I-40000J0D01*
G01*
X15490889Y-10738836D02*
G75*
G03*
X15490889Y-10738836I-40000J0D01*
G01*
X15534000Y-7116000D02*
G75*
G03*
X15534000Y-7116000I-40000J0D01*
G01*
X15534000Y-7366000D02*
G75*
G03*
X15534000Y-7366000I-40000J0D01*
G01*
X16300000Y-8382000D02*
G75*
G03*
X16300000Y-8382000I-40000J0D01*
G01*
X16550000Y-8382000D02*
G75*
G03*
X16550000Y-8382000I-40000J0D01*
G01*
X17058000Y-8382000D02*
G75*
G03*
X17058000Y-8382000I-40000J0D01*
G01*
X17308000Y-8382000D02*
G75*
G03*
X17308000Y-8382000I-40000J0D01*
G01*
X18074000Y-10160000D02*
G75*
G03*
X18074000Y-10160000I-40000J0D01*
G01*
X18074000Y-10660000D02*
G75*
G03*
X18074000Y-10660000I-40000J0D01*
G01*
D14*
X14285996Y-11068555D02*
X14285996Y-11158555D01*
X14240996Y-11113555D02*
X14330996Y-11113555D01*
X14539996Y-11068555D02*
X14539996Y-11158555D01*
X14494996Y-11113555D02*
X14584996Y-11113555D01*
X14823129Y-11068555D02*
X14823129Y-11158555D01*
X14778129Y-11113555D02*
X14868129Y-11113555D01*
X15077129Y-11068555D02*
X15077129Y-11158555D01*
X15032129Y-11113555D02*
X15122129Y-11113555D01*
X15366746Y-11068555D02*
X15366746Y-11158555D01*
X15321746Y-11113555D02*
X15411746Y-11113555D01*
X15620746Y-11068555D02*
X15620746Y-11158555D01*
X15575746Y-11113555D02*
X15665746Y-11113555D01*
D15*
X13749588Y-9585537D02*
X13749588Y-9518361D01*
X13682412Y-9518361D01*
X13682412Y-9585537D01*
X13749588Y-9585537D01*
X13749588Y-9835537D02*
X13749588Y-9768361D01*
X13682412Y-9768361D01*
X13682412Y-9835537D01*
X13749588Y-9835537D01*
X13749588Y-10085537D02*
X13749588Y-10018361D01*
X13682412Y-10018361D01*
X13682412Y-10085537D01*
X13749588Y-10085537D01*
X13749588Y-10709588D02*
X13749588Y-10642412D01*
X13682412Y-10642412D01*
X13682412Y-10709588D01*
X13749588Y-10709588D01*
X13749588Y-10959588D02*
X13749588Y-10892412D01*
X13682412Y-10892412D01*
X13682412Y-10959588D01*
X13749588Y-10959588D01*
X13749588Y-11209588D02*
X13749588Y-11142412D01*
X13682412Y-11142412D01*
X13682412Y-11209588D01*
X13749588Y-11209588D01*
X15527588Y-8040588D02*
X15527588Y-7973412D01*
X15460412Y-7973412D01*
X15460412Y-8040588D01*
X15527588Y-8040588D01*
X15527588Y-8290588D02*
X15527588Y-8223412D01*
X15460412Y-8223412D01*
X15460412Y-8290588D01*
X15527588Y-8290588D01*
X15527588Y-8540588D02*
X15527588Y-8473412D01*
X15460412Y-8473412D01*
X15460412Y-8540588D01*
X15527588Y-8540588D01*
X15527588Y-8790588D02*
X15527588Y-8723412D01*
X15460412Y-8723412D01*
X15460412Y-8790588D01*
X15527588Y-8790588D01*
D16*
X11429500Y-7467000D02*
X11479500Y-7417000D01*
X11429500Y-7367000D01*
X11379500Y-7417000D01*
X11429500Y-7467000D01*
X11429500Y-7721000D02*
X11479500Y-7671000D01*
X11429500Y-7621000D01*
X11379500Y-7671000D01*
X11429500Y-7721000D01*
X11429500Y-7975000D02*
X11479500Y-7925000D01*
X11429500Y-7875000D01*
X11379500Y-7925000D01*
X11429500Y-7975000D01*
X11429500Y-8229000D02*
X11479500Y-8179000D01*
X11429500Y-8129000D01*
X11379500Y-8179000D01*
X11429500Y-8229000D01*
X11429500Y-8483000D02*
X11479500Y-8433000D01*
X11429500Y-8383000D01*
X11379500Y-8433000D01*
X11429500Y-8483000D01*
X11429500Y-8737000D02*
X11479500Y-8687000D01*
X11429500Y-8637000D01*
X11379500Y-8687000D01*
X11429500Y-8737000D01*
X11429500Y-8991000D02*
X11479500Y-8941000D01*
X11429500Y-8891000D01*
X11379500Y-8941000D01*
X11429500Y-8991000D01*
X11429500Y-9245000D02*
X11479500Y-9195000D01*
X11429500Y-9145000D01*
X11379500Y-9195000D01*
X11429500Y-9245000D01*
X11429500Y-9499000D02*
X11479500Y-9449000D01*
X11429500Y-9399000D01*
X11379500Y-9449000D01*
X11429500Y-9499000D01*
X11429500Y-9753000D02*
X11479500Y-9703000D01*
X11429500Y-9653000D01*
X11379500Y-9703000D01*
X11429500Y-9753000D01*
X11429500Y-10007000D02*
X11479500Y-9957000D01*
X11429500Y-9907000D01*
X11379500Y-9957000D01*
X11429500Y-10007000D01*
X11429500Y-10261000D02*
X11479500Y-10211000D01*
X11429500Y-10161000D01*
X11379500Y-10211000D01*
X11429500Y-10261000D01*
X11429500Y-10515000D02*
X11479500Y-10465000D01*
X11429500Y-10415000D01*
X11379500Y-10465000D01*
X11429500Y-10515000D01*
X11429500Y-10769000D02*
X11479500Y-10719000D01*
X11429500Y-10669000D01*
X11379500Y-10719000D01*
X11429500Y-10769000D01*
X11429500Y-11023000D02*
X11479500Y-10973000D01*
X11429500Y-10923000D01*
X11379500Y-10973000D01*
X11429500Y-11023000D01*
X12953500Y-7467000D02*
X13003500Y-7417000D01*
X12953500Y-7367000D01*
X12903500Y-7417000D01*
X12953500Y-7467000D01*
X12953500Y-7721000D02*
X13003500Y-7671000D01*
X12953500Y-7621000D01*
X12903500Y-7671000D01*
X12953500Y-7721000D01*
X12953500Y-7975000D02*
X13003500Y-7925000D01*
X12953500Y-7875000D01*
X12903500Y-7925000D01*
X12953500Y-7975000D01*
X12953500Y-8229000D02*
X13003500Y-8179000D01*
X12953500Y-8129000D01*
X12903500Y-8179000D01*
X12953500Y-8229000D01*
X12953500Y-8483000D02*
X13003500Y-8433000D01*
X12953500Y-8383000D01*
X12903500Y-8433000D01*
X12953500Y-8483000D01*
X12953500Y-8737000D02*
X13003500Y-8687000D01*
X12953500Y-8637000D01*
X12903500Y-8687000D01*
X12953500Y-8737000D01*
X12953500Y-8991000D02*
X13003500Y-8941000D01*
X12953500Y-8891000D01*
X12903500Y-8941000D01*
X12953500Y-8991000D01*
X12953500Y-9245000D02*
X13003500Y-9195000D01*
X12953500Y-9145000D01*
X12903500Y-9195000D01*
X12953500Y-9245000D01*
X12953500Y-9499000D02*
X13003500Y-9449000D01*
X12953500Y-9399000D01*
X12903500Y-9449000D01*
X12953500Y-9499000D01*
X12953500Y-9753000D02*
X13003500Y-9703000D01*
X12953500Y-9653000D01*
X12903500Y-9703000D01*
X12953500Y-9753000D01*
X12953500Y-10007000D02*
X13003500Y-9957000D01*
X12953500Y-9907000D01*
X12903500Y-9957000D01*
X12953500Y-10007000D01*
X12953500Y-10261000D02*
X13003500Y-10211000D01*
X12953500Y-10161000D01*
X12903500Y-10211000D01*
X12953500Y-10261000D01*
X12953500Y-10515000D02*
X13003500Y-10465000D01*
X12953500Y-10415000D01*
X12903500Y-10465000D01*
X12953500Y-10515000D01*
X12953500Y-10769000D02*
X13003500Y-10719000D01*
X12953500Y-10669000D01*
X12903500Y-10719000D01*
X12953500Y-10769000D01*
X12953500Y-11023000D02*
X13003500Y-10973000D01*
X12953500Y-10923000D01*
X12903500Y-10973000D01*
X12953500Y-11023000D01*
D17*
X16455000Y-9597000D02*
X16565000Y-9707000D01*
X16565000Y-9597000D02*
X16455000Y-9707000D01*
X16565000Y-9652000D02*
G75*
G03*
X16565000Y-9652000I-55000J0D01*
G01*
X16709000Y-9597000D02*
X16819000Y-9707000D01*
X16819000Y-9597000D02*
X16709000Y-9707000D01*
X16819000Y-9652000D02*
G75*
G03*
X16819000Y-9652000I-55000J0D01*
G01*
X16963000Y-9597000D02*
X17073000Y-9707000D01*
X17073000Y-9597000D02*
X16963000Y-9707000D01*
X17073000Y-9652000D02*
G75*
G03*
X17073000Y-9652000I-55000J0D01*
G01*
D18*
X16196000Y-10862000D02*
X16316000Y-10982000D01*
X16316000Y-10862000D02*
X16196000Y-10982000D01*
X16256000Y-10862000D02*
X16256000Y-10982000D01*
X16196000Y-10922000D02*
X16316000Y-10922000D01*
X16696000Y-10862000D02*
X16816000Y-10982000D01*
X16816000Y-10862000D02*
X16696000Y-10982000D01*
X16756000Y-10862000D02*
X16756000Y-10982000D01*
X16696000Y-10922000D02*
X16816000Y-10922000D01*
X17196000Y-10862000D02*
X17316000Y-10982000D01*
X17316000Y-10862000D02*
X17196000Y-10982000D01*
X17256000Y-10862000D02*
X17256000Y-10982000D01*
X17196000Y-10922000D02*
X17316000Y-10922000D01*
X17968627Y-8161225D02*
X18088627Y-8281225D01*
X18088627Y-8161225D02*
X17968627Y-8281225D01*
X18028627Y-8161225D02*
X18028627Y-8281225D01*
X17968627Y-8221225D02*
X18088627Y-8221225D01*
X17968627Y-9685225D02*
X18088627Y-9805225D01*
X18088627Y-9685225D02*
X17968627Y-9805225D01*
X18028627Y-9685225D02*
X18028627Y-9805225D01*
X17968627Y-9745225D02*
X18088627Y-9745225D01*
D19*
X17147702Y-7402405D02*
X17307702Y-7562405D01*
X17307702Y-7402405D02*
X17147702Y-7562405D01*
X17284271Y-7538974D02*
X17284271Y-7425836D01*
X17171133Y-7425836D01*
X17171133Y-7538974D01*
X17284271Y-7538974D01*
X17617702Y-7102405D02*
X17777702Y-7262405D01*
X17777702Y-7102405D02*
X17617702Y-7262405D01*
X17754271Y-7238974D02*
X17754271Y-7125836D01*
X17641133Y-7125836D01*
X17641133Y-7238974D01*
X17754271Y-7238974D01*
X17617702Y-7702405D02*
X17777702Y-7862405D01*
X17777702Y-7702405D02*
X17617702Y-7862405D01*
X17754271Y-7838974D02*
X17754271Y-7725836D01*
X17641133Y-7725836D01*
X17641133Y-7838974D01*
X17754271Y-7838974D01*
D20*
X12032000Y-6952000D02*
X12352000Y-7272000D01*
X12352000Y-6952000D02*
X12032000Y-7272000D01*
X12192000Y-7272000D02*
X12352000Y-7112000D01*
X12192000Y-6952000D01*
X12032000Y-7112000D01*
X12192000Y-7272000D01*
X12032000Y-11016000D02*
X12352000Y-11336000D01*
X12352000Y-11016000D02*
X12032000Y-11336000D01*
X12192000Y-11336000D02*
X12352000Y-11176000D01*
X12192000Y-11016000D01*
X12032000Y-11176000D01*
X12192000Y-11336000D01*
X16350000Y-6952000D02*
X16670000Y-7272000D01*
X16670000Y-6952000D02*
X16350000Y-7272000D01*
X16510000Y-7272000D02*
X16670000Y-7112000D01*
X16510000Y-6952000D01*
X16350000Y-7112000D01*
X16510000Y-7272000D01*
X17874000Y-11016000D02*
X18194000Y-11336000D01*
X18194000Y-11016000D02*
X17874000Y-11336000D01*
X18034000Y-11336000D02*
X18194000Y-11176000D01*
X18034000Y-11016000D01*
X17874000Y-11176000D01*
X18034000Y-11336000D01*
D11*
X11326504Y-11847310D02*
X11326504Y-11647310D01*
X11374123Y-11647310D01*
X11402694Y-11656834D01*
X11421742Y-11675881D01*
X11431266Y-11694929D01*
X11440789Y-11733024D01*
X11440789Y-11761596D01*
X11431266Y-11799691D01*
X11421742Y-11818738D01*
X11402694Y-11837786D01*
X11374123Y-11847310D01*
X11326504Y-11847310D01*
X11526504Y-11847310D02*
X11526504Y-11713976D01*
X11526504Y-11752072D02*
X11536028Y-11733024D01*
X11545551Y-11723500D01*
X11564599Y-11713976D01*
X11583647Y-11713976D01*
X11650313Y-11847310D02*
X11650313Y-11713976D01*
X11650313Y-11647310D02*
X11640789Y-11656834D01*
X11650313Y-11666357D01*
X11659837Y-11656834D01*
X11650313Y-11647310D01*
X11650313Y-11666357D01*
X11774123Y-11847310D02*
X11755075Y-11837786D01*
X11745551Y-11818738D01*
X11745551Y-11647310D01*
X11878885Y-11847310D02*
X11859837Y-11837786D01*
X11850313Y-11818738D01*
X11850313Y-11647310D01*
X12107456Y-11847310D02*
X12107456Y-11647310D01*
X12174123Y-11790167D01*
X12240789Y-11647310D01*
X12240789Y-11847310D01*
X12421742Y-11847310D02*
X12421742Y-11742548D01*
X12412218Y-11723500D01*
X12393170Y-11713976D01*
X12355075Y-11713976D01*
X12336028Y-11723500D01*
X12421742Y-11837786D02*
X12402694Y-11847310D01*
X12355075Y-11847310D01*
X12336028Y-11837786D01*
X12326504Y-11818738D01*
X12326504Y-11799691D01*
X12336028Y-11780643D01*
X12355075Y-11771119D01*
X12402694Y-11771119D01*
X12421742Y-11761596D01*
X12516980Y-11713976D02*
X12516980Y-11913976D01*
X12516980Y-11723500D02*
X12536028Y-11713976D01*
X12574123Y-11713976D01*
X12593170Y-11723500D01*
X12602694Y-11733024D01*
X12612218Y-11752072D01*
X12612218Y-11809215D01*
X12602694Y-11828262D01*
X12593170Y-11837786D01*
X12574123Y-11847310D01*
X12536028Y-11847310D01*
X12516980Y-11837786D01*
X12697932Y-11828262D02*
X12707456Y-11837786D01*
X12697932Y-11847310D01*
X12688409Y-11837786D01*
X12697932Y-11828262D01*
X12697932Y-11847310D01*
X12697932Y-11723500D02*
X12707456Y-11733024D01*
X12697932Y-11742548D01*
X12688409Y-11733024D01*
X12697932Y-11723500D01*
X12697932Y-11742548D01*
D12*
X10992685Y-12138734D02*
X11068885Y-12214934D01*
X11068885Y-12138734D02*
X10992685Y-12214934D01*
D11*
X11364599Y-12067310D02*
X11383647Y-12067310D01*
X11402694Y-12076834D01*
X11412218Y-12086357D01*
X11421742Y-12105405D01*
X11431266Y-12143500D01*
X11431266Y-12191119D01*
X11421742Y-12229215D01*
X11412218Y-12248262D01*
X11402694Y-12257786D01*
X11383647Y-12267310D01*
X11364599Y-12267310D01*
X11345551Y-12257786D01*
X11336028Y-12248262D01*
X11326504Y-12229215D01*
X11316980Y-12191119D01*
X11316980Y-12143500D01*
X11326504Y-12105405D01*
X11336028Y-12086357D01*
X11345551Y-12076834D01*
X11364599Y-12067310D01*
X11516980Y-12248262D02*
X11526504Y-12257786D01*
X11516980Y-12267310D01*
X11507456Y-12257786D01*
X11516980Y-12248262D01*
X11516980Y-12267310D01*
X11593170Y-12067310D02*
X11726504Y-12067310D01*
X11640789Y-12267310D01*
X11888409Y-12067310D02*
X11850313Y-12067310D01*
X11831266Y-12076834D01*
X11821742Y-12086357D01*
X11802694Y-12114929D01*
X11793170Y-12153024D01*
X11793170Y-12229215D01*
X11802694Y-12248262D01*
X11812218Y-12257786D01*
X11831266Y-12267310D01*
X11869361Y-12267310D01*
X11888409Y-12257786D01*
X11897932Y-12248262D01*
X11907456Y-12229215D01*
X11907456Y-12181596D01*
X11897932Y-12162548D01*
X11888409Y-12153024D01*
X11869361Y-12143500D01*
X11831266Y-12143500D01*
X11812218Y-12153024D01*
X11802694Y-12162548D01*
X11793170Y-12181596D01*
X11983647Y-12086357D02*
X11993170Y-12076834D01*
X12012218Y-12067310D01*
X12059837Y-12067310D01*
X12078885Y-12076834D01*
X12088409Y-12086357D01*
X12097932Y-12105405D01*
X12097932Y-12124453D01*
X12088409Y-12153024D01*
X11974123Y-12267310D01*
X12097932Y-12267310D01*
X12183647Y-12267310D02*
X12183647Y-12133976D01*
X12183647Y-12153024D02*
X12193170Y-12143500D01*
X12212218Y-12133976D01*
X12240789Y-12133976D01*
X12259837Y-12143500D01*
X12269361Y-12162548D01*
X12269361Y-12267310D01*
X12269361Y-12162548D02*
X12278885Y-12143500D01*
X12297932Y-12133976D01*
X12326504Y-12133976D01*
X12345551Y-12143500D01*
X12355075Y-12162548D01*
X12355075Y-12267310D01*
X12450313Y-12267310D02*
X12450313Y-12133976D01*
X12450313Y-12153024D02*
X12459837Y-12143500D01*
X12478885Y-12133976D01*
X12507456Y-12133976D01*
X12526504Y-12143500D01*
X12536028Y-12162548D01*
X12536028Y-12267310D01*
X12536028Y-12162548D02*
X12545551Y-12143500D01*
X12564599Y-12133976D01*
X12593170Y-12133976D01*
X12612218Y-12143500D01*
X12621742Y-12162548D01*
X12621742Y-12267310D01*
X13012218Y-12057786D02*
X12840789Y-12314929D01*
X13269361Y-12067310D02*
X13288409Y-12067310D01*
X13307456Y-12076834D01*
X13316980Y-12086357D01*
X13326504Y-12105405D01*
X13336028Y-12143500D01*
X13336028Y-12191119D01*
X13326504Y-12229215D01*
X13316980Y-12248262D01*
X13307456Y-12257786D01*
X13288409Y-12267310D01*
X13269361Y-12267310D01*
X13250313Y-12257786D01*
X13240789Y-12248262D01*
X13231266Y-12229215D01*
X13221742Y-12191119D01*
X13221742Y-12143500D01*
X13231266Y-12105405D01*
X13240789Y-12086357D01*
X13250313Y-12076834D01*
X13269361Y-12067310D01*
X13421742Y-12248262D02*
X13431266Y-12257786D01*
X13421742Y-12267310D01*
X13412218Y-12257786D01*
X13421742Y-12248262D01*
X13421742Y-12267310D01*
X13555075Y-12067310D02*
X13574123Y-12067310D01*
X13593170Y-12076834D01*
X13602694Y-12086357D01*
X13612218Y-12105405D01*
X13621742Y-12143500D01*
X13621742Y-12191119D01*
X13612218Y-12229215D01*
X13602694Y-12248262D01*
X13593170Y-12257786D01*
X13574123Y-12267310D01*
X13555075Y-12267310D01*
X13536028Y-12257786D01*
X13526504Y-12248262D01*
X13516980Y-12229215D01*
X13507456Y-12191119D01*
X13507456Y-12143500D01*
X13516980Y-12105405D01*
X13526504Y-12086357D01*
X13536028Y-12076834D01*
X13555075Y-12067310D01*
X13688409Y-12067310D02*
X13812218Y-12067310D01*
X13745551Y-12143500D01*
X13774123Y-12143500D01*
X13793170Y-12153024D01*
X13802694Y-12162548D01*
X13812218Y-12181596D01*
X13812218Y-12229215D01*
X13802694Y-12248262D01*
X13793170Y-12257786D01*
X13774123Y-12267310D01*
X13716980Y-12267310D01*
X13697932Y-12257786D01*
X13688409Y-12248262D01*
X13936028Y-12067310D02*
X13955075Y-12067310D01*
X13974123Y-12076834D01*
X13983647Y-12086357D01*
X13993170Y-12105405D01*
X14002694Y-12143500D01*
X14002694Y-12191119D01*
X13993170Y-12229215D01*
X13983647Y-12248262D01*
X13974123Y-12257786D01*
X13955075Y-12267310D01*
X13936028Y-12267310D01*
X13916980Y-12257786D01*
X13907456Y-12248262D01*
X13897932Y-12229215D01*
X13888409Y-12191119D01*
X13888409Y-12143500D01*
X13897932Y-12105405D01*
X13907456Y-12086357D01*
X13916980Y-12076834D01*
X13936028Y-12067310D01*
X14126504Y-12067310D02*
X14145551Y-12067310D01*
X14164599Y-12076834D01*
X14174123Y-12086357D01*
X14183647Y-12105405D01*
X14193170Y-12143500D01*
X14193170Y-12191119D01*
X14183647Y-12229215D01*
X14174123Y-12248262D01*
X14164599Y-12257786D01*
X14145551Y-12267310D01*
X14126504Y-12267310D01*
X14107456Y-12257786D01*
X14097932Y-12248262D01*
X14088409Y-12229215D01*
X14078885Y-12191119D01*
X14078885Y-12143500D01*
X14088409Y-12105405D01*
X14097932Y-12086357D01*
X14107456Y-12076834D01*
X14126504Y-12067310D01*
X14269361Y-12067310D02*
X14269361Y-12105405D01*
X14345551Y-12067310D02*
X14345551Y-12105405D01*
X14640789Y-12343500D02*
X14631266Y-12333976D01*
X14612218Y-12305405D01*
X14602694Y-12286357D01*
X14593170Y-12257786D01*
X14583647Y-12210167D01*
X14583647Y-12172072D01*
X14593170Y-12124453D01*
X14602694Y-12095881D01*
X14612218Y-12076834D01*
X14631266Y-12048262D01*
X14640789Y-12038738D01*
X14707456Y-12086357D02*
X14716980Y-12076834D01*
X14736028Y-12067310D01*
X14783647Y-12067310D01*
X14802694Y-12076834D01*
X14812218Y-12086357D01*
X14821742Y-12105405D01*
X14821742Y-12124453D01*
X14812218Y-12153024D01*
X14697932Y-12267310D01*
X14821742Y-12267310D01*
X15059837Y-12267310D02*
X15059837Y-12067310D01*
X15145551Y-12267310D02*
X15145551Y-12162548D01*
X15136028Y-12143500D01*
X15116980Y-12133976D01*
X15088409Y-12133976D01*
X15069361Y-12143500D01*
X15059837Y-12153024D01*
X15269361Y-12267310D02*
X15250313Y-12257786D01*
X15240789Y-12248262D01*
X15231266Y-12229215D01*
X15231266Y-12172072D01*
X15240789Y-12153024D01*
X15250313Y-12143500D01*
X15269361Y-12133976D01*
X15297932Y-12133976D01*
X15316980Y-12143500D01*
X15326504Y-12153024D01*
X15336028Y-12172072D01*
X15336028Y-12229215D01*
X15326504Y-12248262D01*
X15316980Y-12257786D01*
X15297932Y-12267310D01*
X15269361Y-12267310D01*
X15450313Y-12267310D02*
X15431266Y-12257786D01*
X15421742Y-12238738D01*
X15421742Y-12067310D01*
X15602694Y-12257786D02*
X15583647Y-12267310D01*
X15545551Y-12267310D01*
X15526504Y-12257786D01*
X15516980Y-12238738D01*
X15516980Y-12162548D01*
X15526504Y-12143500D01*
X15545551Y-12133976D01*
X15583647Y-12133976D01*
X15602694Y-12143500D01*
X15612218Y-12162548D01*
X15612218Y-12181596D01*
X15516980Y-12200643D01*
X15688409Y-12257786D02*
X15707456Y-12267310D01*
X15745551Y-12267310D01*
X15764599Y-12257786D01*
X15774123Y-12238738D01*
X15774123Y-12229215D01*
X15764599Y-12210167D01*
X15745551Y-12200643D01*
X15716980Y-12200643D01*
X15697932Y-12191119D01*
X15688409Y-12172072D01*
X15688409Y-12162548D01*
X15697932Y-12143500D01*
X15716980Y-12133976D01*
X15745551Y-12133976D01*
X15764599Y-12143500D01*
X15840789Y-12343500D02*
X15850313Y-12333976D01*
X15869361Y-12305405D01*
X15878885Y-12286357D01*
X15888409Y-12257786D01*
X15897932Y-12210167D01*
X15897932Y-12172072D01*
X15888409Y-12124453D01*
X15878885Y-12095881D01*
X15869361Y-12076834D01*
X15850313Y-12048262D01*
X15840789Y-12038738D01*
D13*
X11068885Y-12440834D02*
G75*
G03*
X11068885Y-12440834I-40000J0D01*
G01*
D11*
X11364599Y-12331310D02*
X11383647Y-12331310D01*
X11402694Y-12340834D01*
X11412218Y-12350357D01*
X11421742Y-12369405D01*
X11431266Y-12407500D01*
X11431266Y-12455119D01*
X11421742Y-12493215D01*
X11412218Y-12512262D01*
X11402694Y-12521786D01*
X11383647Y-12531310D01*
X11364599Y-12531310D01*
X11345551Y-12521786D01*
X11336028Y-12512262D01*
X11326504Y-12493215D01*
X11316980Y-12455119D01*
X11316980Y-12407500D01*
X11326504Y-12369405D01*
X11336028Y-12350357D01*
X11345551Y-12340834D01*
X11364599Y-12331310D01*
X11516980Y-12512262D02*
X11526504Y-12521786D01*
X11516980Y-12531310D01*
X11507456Y-12521786D01*
X11516980Y-12512262D01*
X11516980Y-12531310D01*
X11640789Y-12417024D02*
X11621742Y-12407500D01*
X11612218Y-12397976D01*
X11602694Y-12378929D01*
X11602694Y-12369405D01*
X11612218Y-12350357D01*
X11621742Y-12340834D01*
X11640789Y-12331310D01*
X11678885Y-12331310D01*
X11697932Y-12340834D01*
X11707456Y-12350357D01*
X11716980Y-12369405D01*
X11716980Y-12378929D01*
X11707456Y-12397976D01*
X11697932Y-12407500D01*
X11678885Y-12417024D01*
X11640789Y-12417024D01*
X11621742Y-12426548D01*
X11612218Y-12436072D01*
X11602694Y-12455119D01*
X11602694Y-12493215D01*
X11612218Y-12512262D01*
X11621742Y-12521786D01*
X11640789Y-12531310D01*
X11678885Y-12531310D01*
X11697932Y-12521786D01*
X11707456Y-12512262D01*
X11716980Y-12493215D01*
X11716980Y-12455119D01*
X11707456Y-12436072D01*
X11697932Y-12426548D01*
X11678885Y-12417024D01*
X11840789Y-12331310D02*
X11859837Y-12331310D01*
X11878885Y-12340834D01*
X11888409Y-12350357D01*
X11897932Y-12369405D01*
X11907456Y-12407500D01*
X11907456Y-12455119D01*
X11897932Y-12493215D01*
X11888409Y-12512262D01*
X11878885Y-12521786D01*
X11859837Y-12531310D01*
X11840789Y-12531310D01*
X11821742Y-12521786D01*
X11812218Y-12512262D01*
X11802694Y-12493215D01*
X11793170Y-12455119D01*
X11793170Y-12407500D01*
X11802694Y-12369405D01*
X11812218Y-12350357D01*
X11821742Y-12340834D01*
X11840789Y-12331310D01*
X12031266Y-12331310D02*
X12050313Y-12331310D01*
X12069361Y-12340834D01*
X12078885Y-12350357D01*
X12088409Y-12369405D01*
X12097932Y-12407500D01*
X12097932Y-12455119D01*
X12088409Y-12493215D01*
X12078885Y-12512262D01*
X12069361Y-12521786D01*
X12050313Y-12531310D01*
X12031266Y-12531310D01*
X12012218Y-12521786D01*
X12002694Y-12512262D01*
X11993170Y-12493215D01*
X11983647Y-12455119D01*
X11983647Y-12407500D01*
X11993170Y-12369405D01*
X12002694Y-12350357D01*
X12012218Y-12340834D01*
X12031266Y-12331310D01*
X12183647Y-12531310D02*
X12183647Y-12397976D01*
X12183647Y-12417024D02*
X12193170Y-12407500D01*
X12212218Y-12397976D01*
X12240789Y-12397976D01*
X12259837Y-12407500D01*
X12269361Y-12426548D01*
X12269361Y-12531310D01*
X12269361Y-12426548D02*
X12278885Y-12407500D01*
X12297932Y-12397976D01*
X12326504Y-12397976D01*
X12345551Y-12407500D01*
X12355075Y-12426548D01*
X12355075Y-12531310D01*
X12450313Y-12531310D02*
X12450313Y-12397976D01*
X12450313Y-12417024D02*
X12459837Y-12407500D01*
X12478885Y-12397976D01*
X12507456Y-12397976D01*
X12526504Y-12407500D01*
X12536028Y-12426548D01*
X12536028Y-12531310D01*
X12536028Y-12426548D02*
X12545551Y-12407500D01*
X12564599Y-12397976D01*
X12593170Y-12397976D01*
X12612218Y-12407500D01*
X12621742Y-12426548D01*
X12621742Y-12531310D01*
X13012218Y-12321786D02*
X12840789Y-12578929D01*
X13269361Y-12331310D02*
X13288409Y-12331310D01*
X13307456Y-12340834D01*
X13316980Y-12350357D01*
X13326504Y-12369405D01*
X13336028Y-12407500D01*
X13336028Y-12455119D01*
X13326504Y-12493215D01*
X13316980Y-12512262D01*
X13307456Y-12521786D01*
X13288409Y-12531310D01*
X13269361Y-12531310D01*
X13250313Y-12521786D01*
X13240789Y-12512262D01*
X13231266Y-12493215D01*
X13221742Y-12455119D01*
X13221742Y-12407500D01*
X13231266Y-12369405D01*
X13240789Y-12350357D01*
X13250313Y-12340834D01*
X13269361Y-12331310D01*
X13421742Y-12512262D02*
X13431266Y-12521786D01*
X13421742Y-12531310D01*
X13412218Y-12521786D01*
X13421742Y-12512262D01*
X13421742Y-12531310D01*
X13555075Y-12331310D02*
X13574123Y-12331310D01*
X13593170Y-12340834D01*
X13602694Y-12350357D01*
X13612218Y-12369405D01*
X13621742Y-12407500D01*
X13621742Y-12455119D01*
X13612218Y-12493215D01*
X13602694Y-12512262D01*
X13593170Y-12521786D01*
X13574123Y-12531310D01*
X13555075Y-12531310D01*
X13536028Y-12521786D01*
X13526504Y-12512262D01*
X13516980Y-12493215D01*
X13507456Y-12455119D01*
X13507456Y-12407500D01*
X13516980Y-12369405D01*
X13526504Y-12350357D01*
X13536028Y-12340834D01*
X13555075Y-12331310D01*
X13688409Y-12331310D02*
X13812218Y-12331310D01*
X13745551Y-12407500D01*
X13774123Y-12407500D01*
X13793170Y-12417024D01*
X13802694Y-12426548D01*
X13812218Y-12445596D01*
X13812218Y-12493215D01*
X13802694Y-12512262D01*
X13793170Y-12521786D01*
X13774123Y-12531310D01*
X13716980Y-12531310D01*
X13697932Y-12521786D01*
X13688409Y-12512262D01*
X14002694Y-12531310D02*
X13888409Y-12531310D01*
X13945551Y-12531310D02*
X13945551Y-12331310D01*
X13926504Y-12359881D01*
X13907456Y-12378929D01*
X13888409Y-12388453D01*
X14183647Y-12331310D02*
X14088409Y-12331310D01*
X14078885Y-12426548D01*
X14088409Y-12417024D01*
X14107456Y-12407500D01*
X14155075Y-12407500D01*
X14174123Y-12417024D01*
X14183647Y-12426548D01*
X14193170Y-12445596D01*
X14193170Y-12493215D01*
X14183647Y-12512262D01*
X14174123Y-12521786D01*
X14155075Y-12531310D01*
X14107456Y-12531310D01*
X14088409Y-12521786D01*
X14078885Y-12512262D01*
X14269361Y-12331310D02*
X14269361Y-12369405D01*
X14345551Y-12331310D02*
X14345551Y-12369405D01*
X14640789Y-12607500D02*
X14631266Y-12597976D01*
X14612218Y-12569405D01*
X14602694Y-12550357D01*
X14593170Y-12521786D01*
X14583647Y-12474167D01*
X14583647Y-12436072D01*
X14593170Y-12388453D01*
X14602694Y-12359881D01*
X14612218Y-12340834D01*
X14631266Y-12312262D01*
X14640789Y-12302738D01*
X14697932Y-12331310D02*
X14821742Y-12331310D01*
X14755075Y-12407500D01*
X14783647Y-12407500D01*
X14802694Y-12417024D01*
X14812218Y-12426548D01*
X14821742Y-12445596D01*
X14821742Y-12493215D01*
X14812218Y-12512262D01*
X14802694Y-12521786D01*
X14783647Y-12531310D01*
X14726504Y-12531310D01*
X14707456Y-12521786D01*
X14697932Y-12512262D01*
X14897932Y-12350357D02*
X14907456Y-12340834D01*
X14926504Y-12331310D01*
X14974123Y-12331310D01*
X14993170Y-12340834D01*
X15002694Y-12350357D01*
X15012218Y-12369405D01*
X15012218Y-12388453D01*
X15002694Y-12417024D01*
X14888409Y-12531310D01*
X15012218Y-12531310D01*
X15250313Y-12531310D02*
X15250313Y-12331310D01*
X15336028Y-12531310D02*
X15336028Y-12426548D01*
X15326504Y-12407500D01*
X15307456Y-12397976D01*
X15278885Y-12397976D01*
X15259837Y-12407500D01*
X15250313Y-12417024D01*
X15459837Y-12531310D02*
X15440789Y-12521786D01*
X15431266Y-12512262D01*
X15421742Y-12493215D01*
X15421742Y-12436072D01*
X15431266Y-12417024D01*
X15440789Y-12407500D01*
X15459837Y-12397976D01*
X15488409Y-12397976D01*
X15507456Y-12407500D01*
X15516980Y-12417024D01*
X15526504Y-12436072D01*
X15526504Y-12493215D01*
X15516980Y-12512262D01*
X15507456Y-12521786D01*
X15488409Y-12531310D01*
X15459837Y-12531310D01*
X15640789Y-12531310D02*
X15621742Y-12521786D01*
X15612218Y-12502738D01*
X15612218Y-12331310D01*
X15793170Y-12521786D02*
X15774123Y-12531310D01*
X15736028Y-12531310D01*
X15716980Y-12521786D01*
X15707456Y-12502738D01*
X15707456Y-12426548D01*
X15716980Y-12407500D01*
X15736028Y-12397976D01*
X15774123Y-12397976D01*
X15793170Y-12407500D01*
X15802694Y-12426548D01*
X15802694Y-12445596D01*
X15707456Y-12464643D01*
X15878885Y-12521786D02*
X15897932Y-12531310D01*
X15936028Y-12531310D01*
X15955075Y-12521786D01*
X15964599Y-12502738D01*
X15964599Y-12493215D01*
X15955075Y-12474167D01*
X15936028Y-12464643D01*
X15907456Y-12464643D01*
X15888409Y-12455119D01*
X15878885Y-12436072D01*
X15878885Y-12426548D01*
X15888409Y-12407500D01*
X15907456Y-12397976D01*
X15936028Y-12397976D01*
X15955075Y-12407500D01*
X16031266Y-12607500D02*
X16040789Y-12597976D01*
X16059837Y-12569405D01*
X16069361Y-12550357D01*
X16078885Y-12521786D01*
X16088409Y-12474167D01*
X16088409Y-12436072D01*
X16078885Y-12388453D01*
X16069361Y-12359881D01*
X16059837Y-12340834D01*
X16040789Y-12312262D01*
X16031266Y-12302738D01*
D14*
X11023885Y-12659834D02*
X11023885Y-12749834D01*
X10978885Y-12704834D02*
X11068885Y-12704834D01*
D11*
X11364599Y-12595310D02*
X11383647Y-12595310D01*
X11402694Y-12604834D01*
X11412218Y-12614357D01*
X11421742Y-12633405D01*
X11431266Y-12671500D01*
X11431266Y-12719119D01*
X11421742Y-12757215D01*
X11412218Y-12776262D01*
X11402694Y-12785786D01*
X11383647Y-12795310D01*
X11364599Y-12795310D01*
X11345551Y-12785786D01*
X11336028Y-12776262D01*
X11326504Y-12757215D01*
X11316980Y-12719119D01*
X11316980Y-12671500D01*
X11326504Y-12633405D01*
X11336028Y-12614357D01*
X11345551Y-12604834D01*
X11364599Y-12595310D01*
X11516980Y-12776262D02*
X11526504Y-12785786D01*
X11516980Y-12795310D01*
X11507456Y-12785786D01*
X11516980Y-12776262D01*
X11516980Y-12795310D01*
X11621742Y-12795310D02*
X11659837Y-12795310D01*
X11678885Y-12785786D01*
X11688409Y-12776262D01*
X11707456Y-12747691D01*
X11716980Y-12709596D01*
X11716980Y-12633405D01*
X11707456Y-12614357D01*
X11697932Y-12604834D01*
X11678885Y-12595310D01*
X11640789Y-12595310D01*
X11621742Y-12604834D01*
X11612218Y-12614357D01*
X11602694Y-12633405D01*
X11602694Y-12681024D01*
X11612218Y-12700072D01*
X11621742Y-12709596D01*
X11640789Y-12719119D01*
X11678885Y-12719119D01*
X11697932Y-12709596D01*
X11707456Y-12700072D01*
X11716980Y-12681024D01*
X11840789Y-12595310D02*
X11859837Y-12595310D01*
X11878885Y-12604834D01*
X11888409Y-12614357D01*
X11897932Y-12633405D01*
X11907456Y-12671500D01*
X11907456Y-12719119D01*
X11897932Y-12757215D01*
X11888409Y-12776262D01*
X11878885Y-12785786D01*
X11859837Y-12795310D01*
X11840789Y-12795310D01*
X11821742Y-12785786D01*
X11812218Y-12776262D01*
X11802694Y-12757215D01*
X11793170Y-12719119D01*
X11793170Y-12671500D01*
X11802694Y-12633405D01*
X11812218Y-12614357D01*
X11821742Y-12604834D01*
X11840789Y-12595310D01*
X12031266Y-12595310D02*
X12050313Y-12595310D01*
X12069361Y-12604834D01*
X12078885Y-12614357D01*
X12088409Y-12633405D01*
X12097932Y-12671500D01*
X12097932Y-12719119D01*
X12088409Y-12757215D01*
X12078885Y-12776262D01*
X12069361Y-12785786D01*
X12050313Y-12795310D01*
X12031266Y-12795310D01*
X12012218Y-12785786D01*
X12002694Y-12776262D01*
X11993170Y-12757215D01*
X11983647Y-12719119D01*
X11983647Y-12671500D01*
X11993170Y-12633405D01*
X12002694Y-12614357D01*
X12012218Y-12604834D01*
X12031266Y-12595310D01*
X12183647Y-12795310D02*
X12183647Y-12661976D01*
X12183647Y-12681024D02*
X12193170Y-12671500D01*
X12212218Y-12661976D01*
X12240789Y-12661976D01*
X12259837Y-12671500D01*
X12269361Y-12690548D01*
X12269361Y-12795310D01*
X12269361Y-12690548D02*
X12278885Y-12671500D01*
X12297932Y-12661976D01*
X12326504Y-12661976D01*
X12345551Y-12671500D01*
X12355075Y-12690548D01*
X12355075Y-12795310D01*
X12450313Y-12795310D02*
X12450313Y-12661976D01*
X12450313Y-12681024D02*
X12459837Y-12671500D01*
X12478885Y-12661976D01*
X12507456Y-12661976D01*
X12526504Y-12671500D01*
X12536028Y-12690548D01*
X12536028Y-12795310D01*
X12536028Y-12690548D02*
X12545551Y-12671500D01*
X12564599Y-12661976D01*
X12593170Y-12661976D01*
X12612218Y-12671500D01*
X12621742Y-12690548D01*
X12621742Y-12795310D01*
X13012218Y-12585786D02*
X12840789Y-12842929D01*
X13269361Y-12595310D02*
X13288409Y-12595310D01*
X13307456Y-12604834D01*
X13316980Y-12614357D01*
X13326504Y-12633405D01*
X13336028Y-12671500D01*
X13336028Y-12719119D01*
X13326504Y-12757215D01*
X13316980Y-12776262D01*
X13307456Y-12785786D01*
X13288409Y-12795310D01*
X13269361Y-12795310D01*
X13250313Y-12785786D01*
X13240789Y-12776262D01*
X13231266Y-12757215D01*
X13221742Y-12719119D01*
X13221742Y-12671500D01*
X13231266Y-12633405D01*
X13240789Y-12614357D01*
X13250313Y-12604834D01*
X13269361Y-12595310D01*
X13421742Y-12776262D02*
X13431266Y-12785786D01*
X13421742Y-12795310D01*
X13412218Y-12785786D01*
X13421742Y-12776262D01*
X13421742Y-12795310D01*
X13555075Y-12595310D02*
X13574123Y-12595310D01*
X13593170Y-12604834D01*
X13602694Y-12614357D01*
X13612218Y-12633405D01*
X13621742Y-12671500D01*
X13621742Y-12719119D01*
X13612218Y-12757215D01*
X13602694Y-12776262D01*
X13593170Y-12785786D01*
X13574123Y-12795310D01*
X13555075Y-12795310D01*
X13536028Y-12785786D01*
X13526504Y-12776262D01*
X13516980Y-12757215D01*
X13507456Y-12719119D01*
X13507456Y-12671500D01*
X13516980Y-12633405D01*
X13526504Y-12614357D01*
X13536028Y-12604834D01*
X13555075Y-12595310D01*
X13688409Y-12595310D02*
X13812218Y-12595310D01*
X13745551Y-12671500D01*
X13774123Y-12671500D01*
X13793170Y-12681024D01*
X13802694Y-12690548D01*
X13812218Y-12709596D01*
X13812218Y-12757215D01*
X13802694Y-12776262D01*
X13793170Y-12785786D01*
X13774123Y-12795310D01*
X13716980Y-12795310D01*
X13697932Y-12785786D01*
X13688409Y-12776262D01*
X13993170Y-12595310D02*
X13897932Y-12595310D01*
X13888409Y-12690548D01*
X13897932Y-12681024D01*
X13916980Y-12671500D01*
X13964599Y-12671500D01*
X13983647Y-12681024D01*
X13993170Y-12690548D01*
X14002694Y-12709596D01*
X14002694Y-12757215D01*
X13993170Y-12776262D01*
X13983647Y-12785786D01*
X13964599Y-12795310D01*
X13916980Y-12795310D01*
X13897932Y-12785786D01*
X13888409Y-12776262D01*
X14174123Y-12661976D02*
X14174123Y-12795310D01*
X14126504Y-12585786D02*
X14078885Y-12728643D01*
X14202694Y-12728643D01*
X14269361Y-12595310D02*
X14269361Y-12633405D01*
X14345551Y-12595310D02*
X14345551Y-12633405D01*
X14640789Y-12871500D02*
X14631266Y-12861976D01*
X14612218Y-12833405D01*
X14602694Y-12814357D01*
X14593170Y-12785786D01*
X14583647Y-12738167D01*
X14583647Y-12700072D01*
X14593170Y-12652453D01*
X14602694Y-12623881D01*
X14612218Y-12604834D01*
X14631266Y-12576262D01*
X14640789Y-12566738D01*
X14802694Y-12595310D02*
X14764599Y-12595310D01*
X14745551Y-12604834D01*
X14736028Y-12614357D01*
X14716980Y-12642929D01*
X14707456Y-12681024D01*
X14707456Y-12757215D01*
X14716980Y-12776262D01*
X14726504Y-12785786D01*
X14745551Y-12795310D01*
X14783647Y-12795310D01*
X14802694Y-12785786D01*
X14812218Y-12776262D01*
X14821742Y-12757215D01*
X14821742Y-12709596D01*
X14812218Y-12690548D01*
X14802694Y-12681024D01*
X14783647Y-12671500D01*
X14745551Y-12671500D01*
X14726504Y-12681024D01*
X14716980Y-12690548D01*
X14707456Y-12709596D01*
X15059837Y-12795310D02*
X15059837Y-12595310D01*
X15145551Y-12795310D02*
X15145551Y-12690548D01*
X15136028Y-12671500D01*
X15116980Y-12661976D01*
X15088409Y-12661976D01*
X15069361Y-12671500D01*
X15059837Y-12681024D01*
X15269361Y-12795310D02*
X15250313Y-12785786D01*
X15240789Y-12776262D01*
X15231266Y-12757215D01*
X15231266Y-12700072D01*
X15240789Y-12681024D01*
X15250313Y-12671500D01*
X15269361Y-12661976D01*
X15297932Y-12661976D01*
X15316980Y-12671500D01*
X15326504Y-12681024D01*
X15336028Y-12700072D01*
X15336028Y-12757215D01*
X15326504Y-12776262D01*
X15316980Y-12785786D01*
X15297932Y-12795310D01*
X15269361Y-12795310D01*
X15450313Y-12795310D02*
X15431266Y-12785786D01*
X15421742Y-12766738D01*
X15421742Y-12595310D01*
X15602694Y-12785786D02*
X15583647Y-12795310D01*
X15545551Y-12795310D01*
X15526504Y-12785786D01*
X15516980Y-12766738D01*
X15516980Y-12690548D01*
X15526504Y-12671500D01*
X15545551Y-12661976D01*
X15583647Y-12661976D01*
X15602694Y-12671500D01*
X15612218Y-12690548D01*
X15612218Y-12709596D01*
X15516980Y-12728643D01*
X15688409Y-12785786D02*
X15707456Y-12795310D01*
X15745551Y-12795310D01*
X15764599Y-12785786D01*
X15774123Y-12766738D01*
X15774123Y-12757215D01*
X15764599Y-12738167D01*
X15745551Y-12728643D01*
X15716980Y-12728643D01*
X15697932Y-12719119D01*
X15688409Y-12700072D01*
X15688409Y-12690548D01*
X15697932Y-12671500D01*
X15716980Y-12661976D01*
X15745551Y-12661976D01*
X15764599Y-12671500D01*
X15840789Y-12871500D02*
X15850313Y-12861976D01*
X15869361Y-12833405D01*
X15878885Y-12814357D01*
X15888409Y-12785786D01*
X15897932Y-12738167D01*
X15897932Y-12700072D01*
X15888409Y-12652453D01*
X15878885Y-12623881D01*
X15869361Y-12604834D01*
X15850313Y-12576262D01*
X15840789Y-12566738D01*
D15*
X11054973Y-13002422D02*
X11054973Y-12935246D01*
X10987797Y-12935246D01*
X10987797Y-13002422D01*
X11054973Y-13002422D01*
D11*
X11364599Y-12859310D02*
X11383647Y-12859310D01*
X11402694Y-12868834D01*
X11412218Y-12878357D01*
X11421742Y-12897405D01*
X11431266Y-12935500D01*
X11431266Y-12983119D01*
X11421742Y-13021215D01*
X11412218Y-13040262D01*
X11402694Y-13049786D01*
X11383647Y-13059310D01*
X11364599Y-13059310D01*
X11345551Y-13049786D01*
X11336028Y-13040262D01*
X11326504Y-13021215D01*
X11316980Y-12983119D01*
X11316980Y-12935500D01*
X11326504Y-12897405D01*
X11336028Y-12878357D01*
X11345551Y-12868834D01*
X11364599Y-12859310D01*
X11516980Y-13040262D02*
X11526504Y-13049786D01*
X11516980Y-13059310D01*
X11507456Y-13049786D01*
X11516980Y-13040262D01*
X11516980Y-13059310D01*
X11621742Y-13059310D02*
X11659837Y-13059310D01*
X11678885Y-13049786D01*
X11688409Y-13040262D01*
X11707456Y-13011691D01*
X11716980Y-12973596D01*
X11716980Y-12897405D01*
X11707456Y-12878357D01*
X11697932Y-12868834D01*
X11678885Y-12859310D01*
X11640789Y-12859310D01*
X11621742Y-12868834D01*
X11612218Y-12878357D01*
X11602694Y-12897405D01*
X11602694Y-12945024D01*
X11612218Y-12964072D01*
X11621742Y-12973596D01*
X11640789Y-12983119D01*
X11678885Y-12983119D01*
X11697932Y-12973596D01*
X11707456Y-12964072D01*
X11716980Y-12945024D01*
X11897932Y-12859310D02*
X11802694Y-12859310D01*
X11793170Y-12954548D01*
X11802694Y-12945024D01*
X11821742Y-12935500D01*
X11869361Y-12935500D01*
X11888409Y-12945024D01*
X11897932Y-12954548D01*
X11907456Y-12973596D01*
X11907456Y-13021215D01*
X11897932Y-13040262D01*
X11888409Y-13049786D01*
X11869361Y-13059310D01*
X11821742Y-13059310D01*
X11802694Y-13049786D01*
X11793170Y-13040262D01*
X12031266Y-12859310D02*
X12050313Y-12859310D01*
X12069361Y-12868834D01*
X12078885Y-12878357D01*
X12088409Y-12897405D01*
X12097932Y-12935500D01*
X12097932Y-12983119D01*
X12088409Y-13021215D01*
X12078885Y-13040262D01*
X12069361Y-13049786D01*
X12050313Y-13059310D01*
X12031266Y-13059310D01*
X12012218Y-13049786D01*
X12002694Y-13040262D01*
X11993170Y-13021215D01*
X11983647Y-12983119D01*
X11983647Y-12935500D01*
X11993170Y-12897405D01*
X12002694Y-12878357D01*
X12012218Y-12868834D01*
X12031266Y-12859310D01*
X12183647Y-13059310D02*
X12183647Y-12925976D01*
X12183647Y-12945024D02*
X12193170Y-12935500D01*
X12212218Y-12925976D01*
X12240789Y-12925976D01*
X12259837Y-12935500D01*
X12269361Y-12954548D01*
X12269361Y-13059310D01*
X12269361Y-12954548D02*
X12278885Y-12935500D01*
X12297932Y-12925976D01*
X12326504Y-12925976D01*
X12345551Y-12935500D01*
X12355075Y-12954548D01*
X12355075Y-13059310D01*
X12450313Y-13059310D02*
X12450313Y-12925976D01*
X12450313Y-12945024D02*
X12459837Y-12935500D01*
X12478885Y-12925976D01*
X12507456Y-12925976D01*
X12526504Y-12935500D01*
X12536028Y-12954548D01*
X12536028Y-13059310D01*
X12536028Y-12954548D02*
X12545551Y-12935500D01*
X12564599Y-12925976D01*
X12593170Y-12925976D01*
X12612218Y-12935500D01*
X12621742Y-12954548D01*
X12621742Y-13059310D01*
X13012218Y-12849786D02*
X12840789Y-13106929D01*
X13269361Y-12859310D02*
X13288409Y-12859310D01*
X13307456Y-12868834D01*
X13316980Y-12878357D01*
X13326504Y-12897405D01*
X13336028Y-12935500D01*
X13336028Y-12983119D01*
X13326504Y-13021215D01*
X13316980Y-13040262D01*
X13307456Y-13049786D01*
X13288409Y-13059310D01*
X13269361Y-13059310D01*
X13250313Y-13049786D01*
X13240789Y-13040262D01*
X13231266Y-13021215D01*
X13221742Y-12983119D01*
X13221742Y-12935500D01*
X13231266Y-12897405D01*
X13240789Y-12878357D01*
X13250313Y-12868834D01*
X13269361Y-12859310D01*
X13421742Y-13040262D02*
X13431266Y-13049786D01*
X13421742Y-13059310D01*
X13412218Y-13049786D01*
X13421742Y-13040262D01*
X13421742Y-13059310D01*
X13555075Y-12859310D02*
X13574123Y-12859310D01*
X13593170Y-12868834D01*
X13602694Y-12878357D01*
X13612218Y-12897405D01*
X13621742Y-12935500D01*
X13621742Y-12983119D01*
X13612218Y-13021215D01*
X13602694Y-13040262D01*
X13593170Y-13049786D01*
X13574123Y-13059310D01*
X13555075Y-13059310D01*
X13536028Y-13049786D01*
X13526504Y-13040262D01*
X13516980Y-13021215D01*
X13507456Y-12983119D01*
X13507456Y-12935500D01*
X13516980Y-12897405D01*
X13526504Y-12878357D01*
X13536028Y-12868834D01*
X13555075Y-12859310D01*
X13688409Y-12859310D02*
X13812218Y-12859310D01*
X13745551Y-12935500D01*
X13774123Y-12935500D01*
X13793170Y-12945024D01*
X13802694Y-12954548D01*
X13812218Y-12973596D01*
X13812218Y-13021215D01*
X13802694Y-13040262D01*
X13793170Y-13049786D01*
X13774123Y-13059310D01*
X13716980Y-13059310D01*
X13697932Y-13049786D01*
X13688409Y-13040262D01*
X13878885Y-12859310D02*
X14012218Y-12859310D01*
X13926504Y-13059310D01*
X14174123Y-12925976D02*
X14174123Y-13059310D01*
X14126504Y-12849786D02*
X14078885Y-12992643D01*
X14202694Y-12992643D01*
X14269361Y-12859310D02*
X14269361Y-12897405D01*
X14345551Y-12859310D02*
X14345551Y-12897405D01*
X14640789Y-13135500D02*
X14631266Y-13125976D01*
X14612218Y-13097405D01*
X14602694Y-13078357D01*
X14593170Y-13049786D01*
X14583647Y-13002167D01*
X14583647Y-12964072D01*
X14593170Y-12916453D01*
X14602694Y-12887881D01*
X14612218Y-12868834D01*
X14631266Y-12840262D01*
X14640789Y-12830738D01*
X14821742Y-13059310D02*
X14707456Y-13059310D01*
X14764599Y-13059310D02*
X14764599Y-12859310D01*
X14745551Y-12887881D01*
X14726504Y-12906929D01*
X14707456Y-12916453D01*
X14945551Y-12859310D02*
X14964599Y-12859310D01*
X14983647Y-12868834D01*
X14993170Y-12878357D01*
X15002694Y-12897405D01*
X15012218Y-12935500D01*
X15012218Y-12983119D01*
X15002694Y-13021215D01*
X14993170Y-13040262D01*
X14983647Y-13049786D01*
X14964599Y-13059310D01*
X14945551Y-13059310D01*
X14926504Y-13049786D01*
X14916980Y-13040262D01*
X14907456Y-13021215D01*
X14897932Y-12983119D01*
X14897932Y-12935500D01*
X14907456Y-12897405D01*
X14916980Y-12878357D01*
X14926504Y-12868834D01*
X14945551Y-12859310D01*
X15250313Y-13059310D02*
X15250313Y-12859310D01*
X15336028Y-13059310D02*
X15336028Y-12954548D01*
X15326504Y-12935500D01*
X15307456Y-12925976D01*
X15278885Y-12925976D01*
X15259837Y-12935500D01*
X15250313Y-12945024D01*
X15459837Y-13059310D02*
X15440789Y-13049786D01*
X15431266Y-13040262D01*
X15421742Y-13021215D01*
X15421742Y-12964072D01*
X15431266Y-12945024D01*
X15440789Y-12935500D01*
X15459837Y-12925976D01*
X15488409Y-12925976D01*
X15507456Y-12935500D01*
X15516980Y-12945024D01*
X15526504Y-12964072D01*
X15526504Y-13021215D01*
X15516980Y-13040262D01*
X15507456Y-13049786D01*
X15488409Y-13059310D01*
X15459837Y-13059310D01*
X15640789Y-13059310D02*
X15621742Y-13049786D01*
X15612218Y-13030738D01*
X15612218Y-12859310D01*
X15793170Y-13049786D02*
X15774123Y-13059310D01*
X15736028Y-13059310D01*
X15716980Y-13049786D01*
X15707456Y-13030738D01*
X15707456Y-12954548D01*
X15716980Y-12935500D01*
X15736028Y-12925976D01*
X15774123Y-12925976D01*
X15793170Y-12935500D01*
X15802694Y-12954548D01*
X15802694Y-12973596D01*
X15707456Y-12992643D01*
X15878885Y-13049786D02*
X15897932Y-13059310D01*
X15936028Y-13059310D01*
X15955075Y-13049786D01*
X15964599Y-13030738D01*
X15964599Y-13021215D01*
X15955075Y-13002167D01*
X15936028Y-12992643D01*
X15907456Y-12992643D01*
X15888409Y-12983119D01*
X15878885Y-12964072D01*
X15878885Y-12954548D01*
X15888409Y-12935500D01*
X15907456Y-12925976D01*
X15936028Y-12925976D01*
X15955075Y-12935500D01*
X16031266Y-13135500D02*
X16040789Y-13125976D01*
X16059837Y-13097405D01*
X16069361Y-13078357D01*
X16078885Y-13049786D01*
X16088409Y-13002167D01*
X16088409Y-12964072D01*
X16078885Y-12916453D01*
X16069361Y-12887881D01*
X16059837Y-12868834D01*
X16040789Y-12840262D01*
X16031266Y-12830738D01*
D16*
X11018885Y-13282834D02*
X11068885Y-13232834D01*
X11018885Y-13182834D01*
X10968885Y-13232834D01*
X11018885Y-13282834D01*
D11*
X11431266Y-13323310D02*
X11316980Y-13323310D01*
X11374123Y-13323310D02*
X11374123Y-13123310D01*
X11355075Y-13151881D01*
X11336028Y-13170929D01*
X11316980Y-13180453D01*
X11516980Y-13304262D02*
X11526504Y-13313786D01*
X11516980Y-13323310D01*
X11507456Y-13313786D01*
X11516980Y-13304262D01*
X11516980Y-13323310D01*
X11650313Y-13123310D02*
X11669361Y-13123310D01*
X11688409Y-13132834D01*
X11697932Y-13142357D01*
X11707456Y-13161405D01*
X11716980Y-13199500D01*
X11716980Y-13247119D01*
X11707456Y-13285215D01*
X11697932Y-13304262D01*
X11688409Y-13313786D01*
X11669361Y-13323310D01*
X11650313Y-13323310D01*
X11631266Y-13313786D01*
X11621742Y-13304262D01*
X11612218Y-13285215D01*
X11602694Y-13247119D01*
X11602694Y-13199500D01*
X11612218Y-13161405D01*
X11621742Y-13142357D01*
X11631266Y-13132834D01*
X11650313Y-13123310D01*
X11840789Y-13123310D02*
X11859837Y-13123310D01*
X11878885Y-13132834D01*
X11888409Y-13142357D01*
X11897932Y-13161405D01*
X11907456Y-13199500D01*
X11907456Y-13247119D01*
X11897932Y-13285215D01*
X11888409Y-13304262D01*
X11878885Y-13313786D01*
X11859837Y-13323310D01*
X11840789Y-13323310D01*
X11821742Y-13313786D01*
X11812218Y-13304262D01*
X11802694Y-13285215D01*
X11793170Y-13247119D01*
X11793170Y-13199500D01*
X11802694Y-13161405D01*
X11812218Y-13142357D01*
X11821742Y-13132834D01*
X11840789Y-13123310D01*
X12031266Y-13123310D02*
X12050313Y-13123310D01*
X12069361Y-13132834D01*
X12078885Y-13142357D01*
X12088409Y-13161405D01*
X12097932Y-13199500D01*
X12097932Y-13247119D01*
X12088409Y-13285215D01*
X12078885Y-13304262D01*
X12069361Y-13313786D01*
X12050313Y-13323310D01*
X12031266Y-13323310D01*
X12012218Y-13313786D01*
X12002694Y-13304262D01*
X11993170Y-13285215D01*
X11983647Y-13247119D01*
X11983647Y-13199500D01*
X11993170Y-13161405D01*
X12002694Y-13142357D01*
X12012218Y-13132834D01*
X12031266Y-13123310D01*
X12183647Y-13323310D02*
X12183647Y-13189976D01*
X12183647Y-13209024D02*
X12193170Y-13199500D01*
X12212218Y-13189976D01*
X12240789Y-13189976D01*
X12259837Y-13199500D01*
X12269361Y-13218548D01*
X12269361Y-13323310D01*
X12269361Y-13218548D02*
X12278885Y-13199500D01*
X12297932Y-13189976D01*
X12326504Y-13189976D01*
X12345551Y-13199500D01*
X12355075Y-13218548D01*
X12355075Y-13323310D01*
X12450313Y-13323310D02*
X12450313Y-13189976D01*
X12450313Y-13209024D02*
X12459837Y-13199500D01*
X12478885Y-13189976D01*
X12507456Y-13189976D01*
X12526504Y-13199500D01*
X12536028Y-13218548D01*
X12536028Y-13323310D01*
X12536028Y-13218548D02*
X12545551Y-13199500D01*
X12564599Y-13189976D01*
X12593170Y-13189976D01*
X12612218Y-13199500D01*
X12621742Y-13218548D01*
X12621742Y-13323310D01*
X13012218Y-13113786D02*
X12840789Y-13370929D01*
X13269361Y-13123310D02*
X13288409Y-13123310D01*
X13307456Y-13132834D01*
X13316980Y-13142357D01*
X13326504Y-13161405D01*
X13336028Y-13199500D01*
X13336028Y-13247119D01*
X13326504Y-13285215D01*
X13316980Y-13304262D01*
X13307456Y-13313786D01*
X13288409Y-13323310D01*
X13269361Y-13323310D01*
X13250313Y-13313786D01*
X13240789Y-13304262D01*
X13231266Y-13285215D01*
X13221742Y-13247119D01*
X13221742Y-13199500D01*
X13231266Y-13161405D01*
X13240789Y-13142357D01*
X13250313Y-13132834D01*
X13269361Y-13123310D01*
X13421742Y-13304262D02*
X13431266Y-13313786D01*
X13421742Y-13323310D01*
X13412218Y-13313786D01*
X13421742Y-13304262D01*
X13421742Y-13323310D01*
X13555075Y-13123310D02*
X13574123Y-13123310D01*
X13593170Y-13132834D01*
X13602694Y-13142357D01*
X13612218Y-13161405D01*
X13621742Y-13199500D01*
X13621742Y-13247119D01*
X13612218Y-13285215D01*
X13602694Y-13304262D01*
X13593170Y-13313786D01*
X13574123Y-13323310D01*
X13555075Y-13323310D01*
X13536028Y-13313786D01*
X13526504Y-13304262D01*
X13516980Y-13285215D01*
X13507456Y-13247119D01*
X13507456Y-13199500D01*
X13516980Y-13161405D01*
X13526504Y-13142357D01*
X13536028Y-13132834D01*
X13555075Y-13123310D01*
X13688409Y-13123310D02*
X13812218Y-13123310D01*
X13745551Y-13199500D01*
X13774123Y-13199500D01*
X13793170Y-13209024D01*
X13802694Y-13218548D01*
X13812218Y-13237596D01*
X13812218Y-13285215D01*
X13802694Y-13304262D01*
X13793170Y-13313786D01*
X13774123Y-13323310D01*
X13716980Y-13323310D01*
X13697932Y-13313786D01*
X13688409Y-13304262D01*
X13907456Y-13323310D02*
X13945551Y-13323310D01*
X13964599Y-13313786D01*
X13974123Y-13304262D01*
X13993170Y-13275691D01*
X14002694Y-13237596D01*
X14002694Y-13161405D01*
X13993170Y-13142357D01*
X13983647Y-13132834D01*
X13964599Y-13123310D01*
X13926504Y-13123310D01*
X13907456Y-13132834D01*
X13897932Y-13142357D01*
X13888409Y-13161405D01*
X13888409Y-13209024D01*
X13897932Y-13228072D01*
X13907456Y-13237596D01*
X13926504Y-13247119D01*
X13964599Y-13247119D01*
X13983647Y-13237596D01*
X13993170Y-13228072D01*
X14002694Y-13209024D01*
X14174123Y-13189976D02*
X14174123Y-13323310D01*
X14126504Y-13113786D02*
X14078885Y-13256643D01*
X14202694Y-13256643D01*
X14269361Y-13123310D02*
X14269361Y-13161405D01*
X14345551Y-13123310D02*
X14345551Y-13161405D01*
X14640789Y-13399500D02*
X14631266Y-13389976D01*
X14612218Y-13361405D01*
X14602694Y-13342357D01*
X14593170Y-13313786D01*
X14583647Y-13266167D01*
X14583647Y-13228072D01*
X14593170Y-13180453D01*
X14602694Y-13151881D01*
X14612218Y-13132834D01*
X14631266Y-13104262D01*
X14640789Y-13094738D01*
X14697932Y-13123310D02*
X14821742Y-13123310D01*
X14755075Y-13199500D01*
X14783647Y-13199500D01*
X14802694Y-13209024D01*
X14812218Y-13218548D01*
X14821742Y-13237596D01*
X14821742Y-13285215D01*
X14812218Y-13304262D01*
X14802694Y-13313786D01*
X14783647Y-13323310D01*
X14726504Y-13323310D01*
X14707456Y-13313786D01*
X14697932Y-13304262D01*
X14945551Y-13123310D02*
X14964599Y-13123310D01*
X14983647Y-13132834D01*
X14993170Y-13142357D01*
X15002694Y-13161405D01*
X15012218Y-13199500D01*
X15012218Y-13247119D01*
X15002694Y-13285215D01*
X14993170Y-13304262D01*
X14983647Y-13313786D01*
X14964599Y-13323310D01*
X14945551Y-13323310D01*
X14926504Y-13313786D01*
X14916980Y-13304262D01*
X14907456Y-13285215D01*
X14897932Y-13247119D01*
X14897932Y-13199500D01*
X14907456Y-13161405D01*
X14916980Y-13142357D01*
X14926504Y-13132834D01*
X14945551Y-13123310D01*
X15250313Y-13323310D02*
X15250313Y-13123310D01*
X15336028Y-13323310D02*
X15336028Y-13218548D01*
X15326504Y-13199500D01*
X15307456Y-13189976D01*
X15278885Y-13189976D01*
X15259837Y-13199500D01*
X15250313Y-13209024D01*
X15459837Y-13323310D02*
X15440789Y-13313786D01*
X15431266Y-13304262D01*
X15421742Y-13285215D01*
X15421742Y-13228072D01*
X15431266Y-13209024D01*
X15440789Y-13199500D01*
X15459837Y-13189976D01*
X15488409Y-13189976D01*
X15507456Y-13199500D01*
X15516980Y-13209024D01*
X15526504Y-13228072D01*
X15526504Y-13285215D01*
X15516980Y-13304262D01*
X15507456Y-13313786D01*
X15488409Y-13323310D01*
X15459837Y-13323310D01*
X15640789Y-13323310D02*
X15621742Y-13313786D01*
X15612218Y-13294738D01*
X15612218Y-13123310D01*
X15793170Y-13313786D02*
X15774123Y-13323310D01*
X15736028Y-13323310D01*
X15716980Y-13313786D01*
X15707456Y-13294738D01*
X15707456Y-13218548D01*
X15716980Y-13199500D01*
X15736028Y-13189976D01*
X15774123Y-13189976D01*
X15793170Y-13199500D01*
X15802694Y-13218548D01*
X15802694Y-13237596D01*
X15707456Y-13256643D01*
X15878885Y-13313786D02*
X15897932Y-13323310D01*
X15936028Y-13323310D01*
X15955075Y-13313786D01*
X15964599Y-13294738D01*
X15964599Y-13285215D01*
X15955075Y-13266167D01*
X15936028Y-13256643D01*
X15907456Y-13256643D01*
X15888409Y-13247119D01*
X15878885Y-13228072D01*
X15878885Y-13218548D01*
X15888409Y-13199500D01*
X15907456Y-13189976D01*
X15936028Y-13189976D01*
X15955075Y-13199500D01*
X16031266Y-13399500D02*
X16040789Y-13389976D01*
X16059837Y-13361405D01*
X16069361Y-13342357D01*
X16078885Y-13313786D01*
X16088409Y-13266167D01*
X16088409Y-13228072D01*
X16078885Y-13180453D01*
X16069361Y-13151881D01*
X16059837Y-13132834D01*
X16040789Y-13104262D01*
X16031266Y-13094738D01*
D17*
X10958885Y-13441834D02*
X11068885Y-13551834D01*
X11068885Y-13441834D02*
X10958885Y-13551834D01*
X11068885Y-13496834D02*
G75*
G03*
X11068885Y-13496834I-55000J0D01*
G01*
D11*
X11431266Y-13587310D02*
X11316980Y-13587310D01*
X11374123Y-13587310D02*
X11374123Y-13387310D01*
X11355075Y-13415881D01*
X11336028Y-13434929D01*
X11316980Y-13444453D01*
X11516980Y-13568262D02*
X11526504Y-13577786D01*
X11516980Y-13587310D01*
X11507456Y-13577786D01*
X11516980Y-13568262D01*
X11516980Y-13587310D01*
X11716980Y-13587310D02*
X11602694Y-13587310D01*
X11659837Y-13587310D02*
X11659837Y-13387310D01*
X11640789Y-13415881D01*
X11621742Y-13434929D01*
X11602694Y-13444453D01*
X11840789Y-13387310D02*
X11859837Y-13387310D01*
X11878885Y-13396834D01*
X11888409Y-13406357D01*
X11897932Y-13425405D01*
X11907456Y-13463500D01*
X11907456Y-13511119D01*
X11897932Y-13549215D01*
X11888409Y-13568262D01*
X11878885Y-13577786D01*
X11859837Y-13587310D01*
X11840789Y-13587310D01*
X11821742Y-13577786D01*
X11812218Y-13568262D01*
X11802694Y-13549215D01*
X11793170Y-13511119D01*
X11793170Y-13463500D01*
X11802694Y-13425405D01*
X11812218Y-13406357D01*
X11821742Y-13396834D01*
X11840789Y-13387310D01*
X12031266Y-13387310D02*
X12050313Y-13387310D01*
X12069361Y-13396834D01*
X12078885Y-13406357D01*
X12088409Y-13425405D01*
X12097932Y-13463500D01*
X12097932Y-13511119D01*
X12088409Y-13549215D01*
X12078885Y-13568262D01*
X12069361Y-13577786D01*
X12050313Y-13587310D01*
X12031266Y-13587310D01*
X12012218Y-13577786D01*
X12002694Y-13568262D01*
X11993170Y-13549215D01*
X11983647Y-13511119D01*
X11983647Y-13463500D01*
X11993170Y-13425405D01*
X12002694Y-13406357D01*
X12012218Y-13396834D01*
X12031266Y-13387310D01*
X12183647Y-13587310D02*
X12183647Y-13453976D01*
X12183647Y-13473024D02*
X12193170Y-13463500D01*
X12212218Y-13453976D01*
X12240789Y-13453976D01*
X12259837Y-13463500D01*
X12269361Y-13482548D01*
X12269361Y-13587310D01*
X12269361Y-13482548D02*
X12278885Y-13463500D01*
X12297932Y-13453976D01*
X12326504Y-13453976D01*
X12345551Y-13463500D01*
X12355075Y-13482548D01*
X12355075Y-13587310D01*
X12450313Y-13587310D02*
X12450313Y-13453976D01*
X12450313Y-13473024D02*
X12459837Y-13463500D01*
X12478885Y-13453976D01*
X12507456Y-13453976D01*
X12526504Y-13463500D01*
X12536028Y-13482548D01*
X12536028Y-13587310D01*
X12536028Y-13482548D02*
X12545551Y-13463500D01*
X12564599Y-13453976D01*
X12593170Y-13453976D01*
X12612218Y-13463500D01*
X12621742Y-13482548D01*
X12621742Y-13587310D01*
X13012218Y-13377786D02*
X12840789Y-13634929D01*
X13269361Y-13387310D02*
X13288409Y-13387310D01*
X13307456Y-13396834D01*
X13316980Y-13406357D01*
X13326504Y-13425405D01*
X13336028Y-13463500D01*
X13336028Y-13511119D01*
X13326504Y-13549215D01*
X13316980Y-13568262D01*
X13307456Y-13577786D01*
X13288409Y-13587310D01*
X13269361Y-13587310D01*
X13250313Y-13577786D01*
X13240789Y-13568262D01*
X13231266Y-13549215D01*
X13221742Y-13511119D01*
X13221742Y-13463500D01*
X13231266Y-13425405D01*
X13240789Y-13406357D01*
X13250313Y-13396834D01*
X13269361Y-13387310D01*
X13421742Y-13568262D02*
X13431266Y-13577786D01*
X13421742Y-13587310D01*
X13412218Y-13577786D01*
X13421742Y-13568262D01*
X13421742Y-13587310D01*
X13555075Y-13387310D02*
X13574123Y-13387310D01*
X13593170Y-13396834D01*
X13602694Y-13406357D01*
X13612218Y-13425405D01*
X13621742Y-13463500D01*
X13621742Y-13511119D01*
X13612218Y-13549215D01*
X13602694Y-13568262D01*
X13593170Y-13577786D01*
X13574123Y-13587310D01*
X13555075Y-13587310D01*
X13536028Y-13577786D01*
X13526504Y-13568262D01*
X13516980Y-13549215D01*
X13507456Y-13511119D01*
X13507456Y-13463500D01*
X13516980Y-13425405D01*
X13526504Y-13406357D01*
X13536028Y-13396834D01*
X13555075Y-13387310D01*
X13793170Y-13453976D02*
X13793170Y-13587310D01*
X13745551Y-13377786D02*
X13697932Y-13520643D01*
X13821742Y-13520643D01*
X13878885Y-13387310D02*
X14002694Y-13387310D01*
X13936028Y-13463500D01*
X13964599Y-13463500D01*
X13983647Y-13473024D01*
X13993170Y-13482548D01*
X14002694Y-13501596D01*
X14002694Y-13549215D01*
X13993170Y-13568262D01*
X13983647Y-13577786D01*
X13964599Y-13587310D01*
X13907456Y-13587310D01*
X13888409Y-13577786D01*
X13878885Y-13568262D01*
X14069361Y-13387310D02*
X14193170Y-13387310D01*
X14126504Y-13463500D01*
X14155075Y-13463500D01*
X14174123Y-13473024D01*
X14183647Y-13482548D01*
X14193170Y-13501596D01*
X14193170Y-13549215D01*
X14183647Y-13568262D01*
X14174123Y-13577786D01*
X14155075Y-13587310D01*
X14097932Y-13587310D01*
X14078885Y-13577786D01*
X14069361Y-13568262D01*
X14269361Y-13387310D02*
X14269361Y-13425405D01*
X14345551Y-13387310D02*
X14345551Y-13425405D01*
X14640789Y-13663500D02*
X14631266Y-13653976D01*
X14612218Y-13625405D01*
X14602694Y-13606357D01*
X14593170Y-13577786D01*
X14583647Y-13530167D01*
X14583647Y-13492072D01*
X14593170Y-13444453D01*
X14602694Y-13415881D01*
X14612218Y-13396834D01*
X14631266Y-13368262D01*
X14640789Y-13358738D01*
X14697932Y-13387310D02*
X14821742Y-13387310D01*
X14755075Y-13463500D01*
X14783647Y-13463500D01*
X14802694Y-13473024D01*
X14812218Y-13482548D01*
X14821742Y-13501596D01*
X14821742Y-13549215D01*
X14812218Y-13568262D01*
X14802694Y-13577786D01*
X14783647Y-13587310D01*
X14726504Y-13587310D01*
X14707456Y-13577786D01*
X14697932Y-13568262D01*
X15059837Y-13587310D02*
X15059837Y-13387310D01*
X15145551Y-13587310D02*
X15145551Y-13482548D01*
X15136028Y-13463500D01*
X15116980Y-13453976D01*
X15088409Y-13453976D01*
X15069361Y-13463500D01*
X15059837Y-13473024D01*
X15269361Y-13587310D02*
X15250313Y-13577786D01*
X15240789Y-13568262D01*
X15231266Y-13549215D01*
X15231266Y-13492072D01*
X15240789Y-13473024D01*
X15250313Y-13463500D01*
X15269361Y-13453976D01*
X15297932Y-13453976D01*
X15316980Y-13463500D01*
X15326504Y-13473024D01*
X15336028Y-13492072D01*
X15336028Y-13549215D01*
X15326504Y-13568262D01*
X15316980Y-13577786D01*
X15297932Y-13587310D01*
X15269361Y-13587310D01*
X15450313Y-13587310D02*
X15431266Y-13577786D01*
X15421742Y-13558738D01*
X15421742Y-13387310D01*
X15602694Y-13577786D02*
X15583647Y-13587310D01*
X15545551Y-13587310D01*
X15526504Y-13577786D01*
X15516980Y-13558738D01*
X15516980Y-13482548D01*
X15526504Y-13463500D01*
X15545551Y-13453976D01*
X15583647Y-13453976D01*
X15602694Y-13463500D01*
X15612218Y-13482548D01*
X15612218Y-13501596D01*
X15516980Y-13520643D01*
X15688409Y-13577786D02*
X15707456Y-13587310D01*
X15745551Y-13587310D01*
X15764599Y-13577786D01*
X15774123Y-13558738D01*
X15774123Y-13549215D01*
X15764599Y-13530167D01*
X15745551Y-13520643D01*
X15716980Y-13520643D01*
X15697932Y-13511119D01*
X15688409Y-13492072D01*
X15688409Y-13482548D01*
X15697932Y-13463500D01*
X15716980Y-13453976D01*
X15745551Y-13453976D01*
X15764599Y-13463500D01*
X15840789Y-13663500D02*
X15850313Y-13653976D01*
X15869361Y-13625405D01*
X15878885Y-13606357D01*
X15888409Y-13577786D01*
X15897932Y-13530167D01*
X15897932Y-13492072D01*
X15888409Y-13444453D01*
X15878885Y-13415881D01*
X15869361Y-13396834D01*
X15850313Y-13368262D01*
X15840789Y-13358738D01*
D18*
X10948885Y-13700834D02*
X11068885Y-13820834D01*
X11068885Y-13700834D02*
X10948885Y-13820834D01*
X11008885Y-13700834D02*
X11008885Y-13820834D01*
X10948885Y-13760834D02*
X11068885Y-13760834D01*
D11*
X11431266Y-13851310D02*
X11316980Y-13851310D01*
X11374123Y-13851310D02*
X11374123Y-13651310D01*
X11355075Y-13679881D01*
X11336028Y-13698929D01*
X11316980Y-13708453D01*
X11516980Y-13832262D02*
X11526504Y-13841786D01*
X11516980Y-13851310D01*
X11507456Y-13841786D01*
X11516980Y-13832262D01*
X11516980Y-13851310D01*
X11602694Y-13670357D02*
X11612218Y-13660834D01*
X11631266Y-13651310D01*
X11678885Y-13651310D01*
X11697932Y-13660834D01*
X11707456Y-13670357D01*
X11716980Y-13689405D01*
X11716980Y-13708453D01*
X11707456Y-13737024D01*
X11593170Y-13851310D01*
X11716980Y-13851310D01*
X11840789Y-13651310D02*
X11859837Y-13651310D01*
X11878885Y-13660834D01*
X11888409Y-13670357D01*
X11897932Y-13689405D01*
X11907456Y-13727500D01*
X11907456Y-13775119D01*
X11897932Y-13813215D01*
X11888409Y-13832262D01*
X11878885Y-13841786D01*
X11859837Y-13851310D01*
X11840789Y-13851310D01*
X11821742Y-13841786D01*
X11812218Y-13832262D01*
X11802694Y-13813215D01*
X11793170Y-13775119D01*
X11793170Y-13727500D01*
X11802694Y-13689405D01*
X11812218Y-13670357D01*
X11821742Y-13660834D01*
X11840789Y-13651310D01*
X12031266Y-13651310D02*
X12050313Y-13651310D01*
X12069361Y-13660834D01*
X12078885Y-13670357D01*
X12088409Y-13689405D01*
X12097932Y-13727500D01*
X12097932Y-13775119D01*
X12088409Y-13813215D01*
X12078885Y-13832262D01*
X12069361Y-13841786D01*
X12050313Y-13851310D01*
X12031266Y-13851310D01*
X12012218Y-13841786D01*
X12002694Y-13832262D01*
X11993170Y-13813215D01*
X11983647Y-13775119D01*
X11983647Y-13727500D01*
X11993170Y-13689405D01*
X12002694Y-13670357D01*
X12012218Y-13660834D01*
X12031266Y-13651310D01*
X12183647Y-13851310D02*
X12183647Y-13717976D01*
X12183647Y-13737024D02*
X12193170Y-13727500D01*
X12212218Y-13717976D01*
X12240789Y-13717976D01*
X12259837Y-13727500D01*
X12269361Y-13746548D01*
X12269361Y-13851310D01*
X12269361Y-13746548D02*
X12278885Y-13727500D01*
X12297932Y-13717976D01*
X12326504Y-13717976D01*
X12345551Y-13727500D01*
X12355075Y-13746548D01*
X12355075Y-13851310D01*
X12450313Y-13851310D02*
X12450313Y-13717976D01*
X12450313Y-13737024D02*
X12459837Y-13727500D01*
X12478885Y-13717976D01*
X12507456Y-13717976D01*
X12526504Y-13727500D01*
X12536028Y-13746548D01*
X12536028Y-13851310D01*
X12536028Y-13746548D02*
X12545551Y-13727500D01*
X12564599Y-13717976D01*
X12593170Y-13717976D01*
X12612218Y-13727500D01*
X12621742Y-13746548D01*
X12621742Y-13851310D01*
X13012218Y-13641786D02*
X12840789Y-13898929D01*
X13269361Y-13651310D02*
X13288409Y-13651310D01*
X13307456Y-13660834D01*
X13316980Y-13670357D01*
X13326504Y-13689405D01*
X13336028Y-13727500D01*
X13336028Y-13775119D01*
X13326504Y-13813215D01*
X13316980Y-13832262D01*
X13307456Y-13841786D01*
X13288409Y-13851310D01*
X13269361Y-13851310D01*
X13250313Y-13841786D01*
X13240789Y-13832262D01*
X13231266Y-13813215D01*
X13221742Y-13775119D01*
X13221742Y-13727500D01*
X13231266Y-13689405D01*
X13240789Y-13670357D01*
X13250313Y-13660834D01*
X13269361Y-13651310D01*
X13421742Y-13832262D02*
X13431266Y-13841786D01*
X13421742Y-13851310D01*
X13412218Y-13841786D01*
X13421742Y-13832262D01*
X13421742Y-13851310D01*
X13555075Y-13651310D02*
X13574123Y-13651310D01*
X13593170Y-13660834D01*
X13602694Y-13670357D01*
X13612218Y-13689405D01*
X13621742Y-13727500D01*
X13621742Y-13775119D01*
X13612218Y-13813215D01*
X13602694Y-13832262D01*
X13593170Y-13841786D01*
X13574123Y-13851310D01*
X13555075Y-13851310D01*
X13536028Y-13841786D01*
X13526504Y-13832262D01*
X13516980Y-13813215D01*
X13507456Y-13775119D01*
X13507456Y-13727500D01*
X13516980Y-13689405D01*
X13526504Y-13670357D01*
X13536028Y-13660834D01*
X13555075Y-13651310D01*
X13793170Y-13717976D02*
X13793170Y-13851310D01*
X13745551Y-13641786D02*
X13697932Y-13784643D01*
X13821742Y-13784643D01*
X13878885Y-13651310D02*
X14012218Y-13651310D01*
X13926504Y-13851310D01*
X14078885Y-13670357D02*
X14088409Y-13660834D01*
X14107456Y-13651310D01*
X14155075Y-13651310D01*
X14174123Y-13660834D01*
X14183647Y-13670357D01*
X14193170Y-13689405D01*
X14193170Y-13708453D01*
X14183647Y-13737024D01*
X14069361Y-13851310D01*
X14193170Y-13851310D01*
X14269361Y-13651310D02*
X14269361Y-13689405D01*
X14345551Y-13651310D02*
X14345551Y-13689405D01*
X14640789Y-13927500D02*
X14631266Y-13917976D01*
X14612218Y-13889405D01*
X14602694Y-13870357D01*
X14593170Y-13841786D01*
X14583647Y-13794167D01*
X14583647Y-13756072D01*
X14593170Y-13708453D01*
X14602694Y-13679881D01*
X14612218Y-13660834D01*
X14631266Y-13632262D01*
X14640789Y-13622738D01*
X14812218Y-13651310D02*
X14716980Y-13651310D01*
X14707456Y-13746548D01*
X14716980Y-13737024D01*
X14736028Y-13727500D01*
X14783647Y-13727500D01*
X14802694Y-13737024D01*
X14812218Y-13746548D01*
X14821742Y-13765596D01*
X14821742Y-13813215D01*
X14812218Y-13832262D01*
X14802694Y-13841786D01*
X14783647Y-13851310D01*
X14736028Y-13851310D01*
X14716980Y-13841786D01*
X14707456Y-13832262D01*
X15059837Y-13851310D02*
X15059837Y-13651310D01*
X15145551Y-13851310D02*
X15145551Y-13746548D01*
X15136028Y-13727500D01*
X15116980Y-13717976D01*
X15088409Y-13717976D01*
X15069361Y-13727500D01*
X15059837Y-13737024D01*
X15269361Y-13851310D02*
X15250313Y-13841786D01*
X15240789Y-13832262D01*
X15231266Y-13813215D01*
X15231266Y-13756072D01*
X15240789Y-13737024D01*
X15250313Y-13727500D01*
X15269361Y-13717976D01*
X15297932Y-13717976D01*
X15316980Y-13727500D01*
X15326504Y-13737024D01*
X15336028Y-13756072D01*
X15336028Y-13813215D01*
X15326504Y-13832262D01*
X15316980Y-13841786D01*
X15297932Y-13851310D01*
X15269361Y-13851310D01*
X15450313Y-13851310D02*
X15431266Y-13841786D01*
X15421742Y-13822738D01*
X15421742Y-13651310D01*
X15602694Y-13841786D02*
X15583647Y-13851310D01*
X15545551Y-13851310D01*
X15526504Y-13841786D01*
X15516980Y-13822738D01*
X15516980Y-13746548D01*
X15526504Y-13727500D01*
X15545551Y-13717976D01*
X15583647Y-13717976D01*
X15602694Y-13727500D01*
X15612218Y-13746548D01*
X15612218Y-13765596D01*
X15516980Y-13784643D01*
X15688409Y-13841786D02*
X15707456Y-13851310D01*
X15745551Y-13851310D01*
X15764599Y-13841786D01*
X15774123Y-13822738D01*
X15774123Y-13813215D01*
X15764599Y-13794167D01*
X15745551Y-13784643D01*
X15716980Y-13784643D01*
X15697932Y-13775119D01*
X15688409Y-13756072D01*
X15688409Y-13746548D01*
X15697932Y-13727500D01*
X15716980Y-13717976D01*
X15745551Y-13717976D01*
X15764599Y-13727500D01*
X15840789Y-13927500D02*
X15850313Y-13917976D01*
X15869361Y-13889405D01*
X15878885Y-13870357D01*
X15888409Y-13841786D01*
X15897932Y-13794167D01*
X15897932Y-13756072D01*
X15888409Y-13708453D01*
X15878885Y-13679881D01*
X15869361Y-13660834D01*
X15850313Y-13632262D01*
X15840789Y-13622738D01*
D19*
X10908885Y-13944834D02*
X11068885Y-14104834D01*
X11068885Y-13944834D02*
X10908885Y-14104834D01*
X11045454Y-14081403D02*
X11045454Y-13968265D01*
X10932316Y-13968265D01*
X10932316Y-14081403D01*
X11045454Y-14081403D01*
D11*
X11431266Y-14115310D02*
X11316980Y-14115310D01*
X11374123Y-14115310D02*
X11374123Y-13915310D01*
X11355075Y-13943881D01*
X11336028Y-13962929D01*
X11316980Y-13972453D01*
X11516980Y-14096262D02*
X11526504Y-14105786D01*
X11516980Y-14115310D01*
X11507456Y-14105786D01*
X11516980Y-14096262D01*
X11516980Y-14115310D01*
X11697932Y-13915310D02*
X11659837Y-13915310D01*
X11640789Y-13924834D01*
X11631266Y-13934357D01*
X11612218Y-13962929D01*
X11602694Y-14001024D01*
X11602694Y-14077215D01*
X11612218Y-14096262D01*
X11621742Y-14105786D01*
X11640789Y-14115310D01*
X11678885Y-14115310D01*
X11697932Y-14105786D01*
X11707456Y-14096262D01*
X11716980Y-14077215D01*
X11716980Y-14029596D01*
X11707456Y-14010548D01*
X11697932Y-14001024D01*
X11678885Y-13991500D01*
X11640789Y-13991500D01*
X11621742Y-14001024D01*
X11612218Y-14010548D01*
X11602694Y-14029596D01*
X11840789Y-13915310D02*
X11859837Y-13915310D01*
X11878885Y-13924834D01*
X11888409Y-13934357D01*
X11897932Y-13953405D01*
X11907456Y-13991500D01*
X11907456Y-14039119D01*
X11897932Y-14077215D01*
X11888409Y-14096262D01*
X11878885Y-14105786D01*
X11859837Y-14115310D01*
X11840789Y-14115310D01*
X11821742Y-14105786D01*
X11812218Y-14096262D01*
X11802694Y-14077215D01*
X11793170Y-14039119D01*
X11793170Y-13991500D01*
X11802694Y-13953405D01*
X11812218Y-13934357D01*
X11821742Y-13924834D01*
X11840789Y-13915310D01*
X12031266Y-13915310D02*
X12050313Y-13915310D01*
X12069361Y-13924834D01*
X12078885Y-13934357D01*
X12088409Y-13953405D01*
X12097932Y-13991500D01*
X12097932Y-14039119D01*
X12088409Y-14077215D01*
X12078885Y-14096262D01*
X12069361Y-14105786D01*
X12050313Y-14115310D01*
X12031266Y-14115310D01*
X12012218Y-14105786D01*
X12002694Y-14096262D01*
X11993170Y-14077215D01*
X11983647Y-14039119D01*
X11983647Y-13991500D01*
X11993170Y-13953405D01*
X12002694Y-13934357D01*
X12012218Y-13924834D01*
X12031266Y-13915310D01*
X12183647Y-14115310D02*
X12183647Y-13981976D01*
X12183647Y-14001024D02*
X12193170Y-13991500D01*
X12212218Y-13981976D01*
X12240789Y-13981976D01*
X12259837Y-13991500D01*
X12269361Y-14010548D01*
X12269361Y-14115310D01*
X12269361Y-14010548D02*
X12278885Y-13991500D01*
X12297932Y-13981976D01*
X12326504Y-13981976D01*
X12345551Y-13991500D01*
X12355075Y-14010548D01*
X12355075Y-14115310D01*
X12450313Y-14115310D02*
X12450313Y-13981976D01*
X12450313Y-14001024D02*
X12459837Y-13991500D01*
X12478885Y-13981976D01*
X12507456Y-13981976D01*
X12526504Y-13991500D01*
X12536028Y-14010548D01*
X12536028Y-14115310D01*
X12536028Y-14010548D02*
X12545551Y-13991500D01*
X12564599Y-13981976D01*
X12593170Y-13981976D01*
X12612218Y-13991500D01*
X12621742Y-14010548D01*
X12621742Y-14115310D01*
X13012218Y-13905786D02*
X12840789Y-14162929D01*
X13269361Y-13915310D02*
X13288409Y-13915310D01*
X13307456Y-13924834D01*
X13316980Y-13934357D01*
X13326504Y-13953405D01*
X13336028Y-13991500D01*
X13336028Y-14039119D01*
X13326504Y-14077215D01*
X13316980Y-14096262D01*
X13307456Y-14105786D01*
X13288409Y-14115310D01*
X13269361Y-14115310D01*
X13250313Y-14105786D01*
X13240789Y-14096262D01*
X13231266Y-14077215D01*
X13221742Y-14039119D01*
X13221742Y-13991500D01*
X13231266Y-13953405D01*
X13240789Y-13934357D01*
X13250313Y-13924834D01*
X13269361Y-13915310D01*
X13421742Y-14096262D02*
X13431266Y-14105786D01*
X13421742Y-14115310D01*
X13412218Y-14105786D01*
X13421742Y-14096262D01*
X13421742Y-14115310D01*
X13555075Y-13915310D02*
X13574123Y-13915310D01*
X13593170Y-13924834D01*
X13602694Y-13934357D01*
X13612218Y-13953405D01*
X13621742Y-13991500D01*
X13621742Y-14039119D01*
X13612218Y-14077215D01*
X13602694Y-14096262D01*
X13593170Y-14105786D01*
X13574123Y-14115310D01*
X13555075Y-14115310D01*
X13536028Y-14105786D01*
X13526504Y-14096262D01*
X13516980Y-14077215D01*
X13507456Y-14039119D01*
X13507456Y-13991500D01*
X13516980Y-13953405D01*
X13526504Y-13934357D01*
X13536028Y-13924834D01*
X13555075Y-13915310D01*
X13793170Y-13915310D02*
X13755075Y-13915310D01*
X13736028Y-13924834D01*
X13726504Y-13934357D01*
X13707456Y-13962929D01*
X13697932Y-14001024D01*
X13697932Y-14077215D01*
X13707456Y-14096262D01*
X13716980Y-14105786D01*
X13736028Y-14115310D01*
X13774123Y-14115310D01*
X13793170Y-14105786D01*
X13802694Y-14096262D01*
X13812218Y-14077215D01*
X13812218Y-14029596D01*
X13802694Y-14010548D01*
X13793170Y-14001024D01*
X13774123Y-13991500D01*
X13736028Y-13991500D01*
X13716980Y-14001024D01*
X13707456Y-14010548D01*
X13697932Y-14029596D01*
X13878885Y-13915310D02*
X14002694Y-13915310D01*
X13936028Y-13991500D01*
X13964599Y-13991500D01*
X13983647Y-14001024D01*
X13993170Y-14010548D01*
X14002694Y-14029596D01*
X14002694Y-14077215D01*
X13993170Y-14096262D01*
X13983647Y-14105786D01*
X13964599Y-14115310D01*
X13907456Y-14115310D01*
X13888409Y-14105786D01*
X13878885Y-14096262D01*
X14126504Y-13915310D02*
X14145551Y-13915310D01*
X14164599Y-13924834D01*
X14174123Y-13934357D01*
X14183647Y-13953405D01*
X14193170Y-13991500D01*
X14193170Y-14039119D01*
X14183647Y-14077215D01*
X14174123Y-14096262D01*
X14164599Y-14105786D01*
X14145551Y-14115310D01*
X14126504Y-14115310D01*
X14107456Y-14105786D01*
X14097932Y-14096262D01*
X14088409Y-14077215D01*
X14078885Y-14039119D01*
X14078885Y-13991500D01*
X14088409Y-13953405D01*
X14097932Y-13934357D01*
X14107456Y-13924834D01*
X14126504Y-13915310D01*
X14269361Y-13915310D02*
X14269361Y-13953405D01*
X14345551Y-13915310D02*
X14345551Y-13953405D01*
X14640789Y-14191500D02*
X14631266Y-14181976D01*
X14612218Y-14153405D01*
X14602694Y-14134357D01*
X14593170Y-14105786D01*
X14583647Y-14058167D01*
X14583647Y-14020072D01*
X14593170Y-13972453D01*
X14602694Y-13943881D01*
X14612218Y-13924834D01*
X14631266Y-13896262D01*
X14640789Y-13886738D01*
X14697932Y-13915310D02*
X14821742Y-13915310D01*
X14755075Y-13991500D01*
X14783647Y-13991500D01*
X14802694Y-14001024D01*
X14812218Y-14010548D01*
X14821742Y-14029596D01*
X14821742Y-14077215D01*
X14812218Y-14096262D01*
X14802694Y-14105786D01*
X14783647Y-14115310D01*
X14726504Y-14115310D01*
X14707456Y-14105786D01*
X14697932Y-14096262D01*
X15059837Y-14115310D02*
X15059837Y-13915310D01*
X15145551Y-14115310D02*
X15145551Y-14010548D01*
X15136028Y-13991500D01*
X15116980Y-13981976D01*
X15088409Y-13981976D01*
X15069361Y-13991500D01*
X15059837Y-14001024D01*
X15269361Y-14115310D02*
X15250313Y-14105786D01*
X15240789Y-14096262D01*
X15231266Y-14077215D01*
X15231266Y-14020072D01*
X15240789Y-14001024D01*
X15250313Y-13991500D01*
X15269361Y-13981976D01*
X15297932Y-13981976D01*
X15316980Y-13991500D01*
X15326504Y-14001024D01*
X15336028Y-14020072D01*
X15336028Y-14077215D01*
X15326504Y-14096262D01*
X15316980Y-14105786D01*
X15297932Y-14115310D01*
X15269361Y-14115310D01*
X15450313Y-14115310D02*
X15431266Y-14105786D01*
X15421742Y-14086738D01*
X15421742Y-13915310D01*
X15602694Y-14105786D02*
X15583647Y-14115310D01*
X15545551Y-14115310D01*
X15526504Y-14105786D01*
X15516980Y-14086738D01*
X15516980Y-14010548D01*
X15526504Y-13991500D01*
X15545551Y-13981976D01*
X15583647Y-13981976D01*
X15602694Y-13991500D01*
X15612218Y-14010548D01*
X15612218Y-14029596D01*
X15516980Y-14048643D01*
X15688409Y-14105786D02*
X15707456Y-14115310D01*
X15745551Y-14115310D01*
X15764599Y-14105786D01*
X15774123Y-14086738D01*
X15774123Y-14077215D01*
X15764599Y-14058167D01*
X15745551Y-14048643D01*
X15716980Y-14048643D01*
X15697932Y-14039119D01*
X15688409Y-14020072D01*
X15688409Y-14010548D01*
X15697932Y-13991500D01*
X15716980Y-13981976D01*
X15745551Y-13981976D01*
X15764599Y-13991500D01*
X15840789Y-14191500D02*
X15850313Y-14181976D01*
X15869361Y-14153405D01*
X15878885Y-14134357D01*
X15888409Y-14105786D01*
X15897932Y-14058167D01*
X15897932Y-14020072D01*
X15888409Y-13972453D01*
X15878885Y-13943881D01*
X15869361Y-13924834D01*
X15850313Y-13896262D01*
X15840789Y-13886738D01*
X10868885Y-14204834D02*
X11068885Y-14404834D01*
X11068885Y-14204834D02*
X10868885Y-14404834D01*
X10968885Y-14404834D02*
X11068885Y-14304834D01*
X10968885Y-14204834D01*
X10868885Y-14304834D01*
X10968885Y-14404834D01*
X11307456Y-14195310D02*
X11431266Y-14195310D01*
X11364599Y-14271500D01*
X11393170Y-14271500D01*
X11412218Y-14281024D01*
X11421742Y-14290548D01*
X11431266Y-14309596D01*
X11431266Y-14357215D01*
X11421742Y-14376262D01*
X11412218Y-14385786D01*
X11393170Y-14395310D01*
X11336028Y-14395310D01*
X11316980Y-14385786D01*
X11307456Y-14376262D01*
X11516980Y-14376262D02*
X11526504Y-14385786D01*
X11516980Y-14395310D01*
X11507456Y-14385786D01*
X11516980Y-14376262D01*
X11516980Y-14395310D01*
X11602694Y-14214357D02*
X11612218Y-14204834D01*
X11631266Y-14195310D01*
X11678885Y-14195310D01*
X11697932Y-14204834D01*
X11707456Y-14214357D01*
X11716980Y-14233405D01*
X11716980Y-14252453D01*
X11707456Y-14281024D01*
X11593170Y-14395310D01*
X11716980Y-14395310D01*
X11840789Y-14195310D02*
X11859837Y-14195310D01*
X11878885Y-14204834D01*
X11888409Y-14214357D01*
X11897932Y-14233405D01*
X11907456Y-14271500D01*
X11907456Y-14319119D01*
X11897932Y-14357215D01*
X11888409Y-14376262D01*
X11878885Y-14385786D01*
X11859837Y-14395310D01*
X11840789Y-14395310D01*
X11821742Y-14385786D01*
X11812218Y-14376262D01*
X11802694Y-14357215D01*
X11793170Y-14319119D01*
X11793170Y-14271500D01*
X11802694Y-14233405D01*
X11812218Y-14214357D01*
X11821742Y-14204834D01*
X11840789Y-14195310D01*
X12031266Y-14195310D02*
X12050313Y-14195310D01*
X12069361Y-14204834D01*
X12078885Y-14214357D01*
X12088409Y-14233405D01*
X12097932Y-14271500D01*
X12097932Y-14319119D01*
X12088409Y-14357215D01*
X12078885Y-14376262D01*
X12069361Y-14385786D01*
X12050313Y-14395310D01*
X12031266Y-14395310D01*
X12012218Y-14385786D01*
X12002694Y-14376262D01*
X11993170Y-14357215D01*
X11983647Y-14319119D01*
X11983647Y-14271500D01*
X11993170Y-14233405D01*
X12002694Y-14214357D01*
X12012218Y-14204834D01*
X12031266Y-14195310D01*
X12183647Y-14395310D02*
X12183647Y-14261976D01*
X12183647Y-14281024D02*
X12193170Y-14271500D01*
X12212218Y-14261976D01*
X12240789Y-14261976D01*
X12259837Y-14271500D01*
X12269361Y-14290548D01*
X12269361Y-14395310D01*
X12269361Y-14290548D02*
X12278885Y-14271500D01*
X12297932Y-14261976D01*
X12326504Y-14261976D01*
X12345551Y-14271500D01*
X12355075Y-14290548D01*
X12355075Y-14395310D01*
X12450313Y-14395310D02*
X12450313Y-14261976D01*
X12450313Y-14281024D02*
X12459837Y-14271500D01*
X12478885Y-14261976D01*
X12507456Y-14261976D01*
X12526504Y-14271500D01*
X12536028Y-14290548D01*
X12536028Y-14395310D01*
X12536028Y-14290548D02*
X12545551Y-14271500D01*
X12564599Y-14261976D01*
X12593170Y-14261976D01*
X12612218Y-14271500D01*
X12621742Y-14290548D01*
X12621742Y-14395310D01*
X13012218Y-14185786D02*
X12840789Y-14442929D01*
X13269361Y-14195310D02*
X13288409Y-14195310D01*
X13307456Y-14204834D01*
X13316980Y-14214357D01*
X13326504Y-14233405D01*
X13336028Y-14271500D01*
X13336028Y-14319119D01*
X13326504Y-14357215D01*
X13316980Y-14376262D01*
X13307456Y-14385786D01*
X13288409Y-14395310D01*
X13269361Y-14395310D01*
X13250313Y-14385786D01*
X13240789Y-14376262D01*
X13231266Y-14357215D01*
X13221742Y-14319119D01*
X13221742Y-14271500D01*
X13231266Y-14233405D01*
X13240789Y-14214357D01*
X13250313Y-14204834D01*
X13269361Y-14195310D01*
X13421742Y-14376262D02*
X13431266Y-14385786D01*
X13421742Y-14395310D01*
X13412218Y-14385786D01*
X13421742Y-14376262D01*
X13421742Y-14395310D01*
X13621742Y-14395310D02*
X13507456Y-14395310D01*
X13564599Y-14395310D02*
X13564599Y-14195310D01*
X13545551Y-14223881D01*
X13526504Y-14242929D01*
X13507456Y-14252453D01*
X13697932Y-14214357D02*
X13707456Y-14204834D01*
X13726504Y-14195310D01*
X13774123Y-14195310D01*
X13793170Y-14204834D01*
X13802694Y-14214357D01*
X13812218Y-14233405D01*
X13812218Y-14252453D01*
X13802694Y-14281024D01*
X13688409Y-14395310D01*
X13812218Y-14395310D01*
X13983647Y-14195310D02*
X13945551Y-14195310D01*
X13926504Y-14204834D01*
X13916980Y-14214357D01*
X13897932Y-14242929D01*
X13888409Y-14281024D01*
X13888409Y-14357215D01*
X13897932Y-14376262D01*
X13907456Y-14385786D01*
X13926504Y-14395310D01*
X13964599Y-14395310D01*
X13983647Y-14385786D01*
X13993170Y-14376262D01*
X14002694Y-14357215D01*
X14002694Y-14309596D01*
X13993170Y-14290548D01*
X13983647Y-14281024D01*
X13964599Y-14271500D01*
X13926504Y-14271500D01*
X13907456Y-14281024D01*
X13897932Y-14290548D01*
X13888409Y-14309596D01*
X14126504Y-14195310D02*
X14145551Y-14195310D01*
X14164599Y-14204834D01*
X14174123Y-14214357D01*
X14183647Y-14233405D01*
X14193170Y-14271500D01*
X14193170Y-14319119D01*
X14183647Y-14357215D01*
X14174123Y-14376262D01*
X14164599Y-14385786D01*
X14145551Y-14395310D01*
X14126504Y-14395310D01*
X14107456Y-14385786D01*
X14097932Y-14376262D01*
X14088409Y-14357215D01*
X14078885Y-14319119D01*
X14078885Y-14271500D01*
X14088409Y-14233405D01*
X14097932Y-14214357D01*
X14107456Y-14204834D01*
X14126504Y-14195310D01*
X14269361Y-14195310D02*
X14269361Y-14233405D01*
X14345551Y-14195310D02*
X14345551Y-14233405D01*
X14640789Y-14471500D02*
X14631266Y-14461976D01*
X14612218Y-14433405D01*
X14602694Y-14414357D01*
X14593170Y-14385786D01*
X14583647Y-14338167D01*
X14583647Y-14300072D01*
X14593170Y-14252453D01*
X14602694Y-14223881D01*
X14612218Y-14204834D01*
X14631266Y-14176262D01*
X14640789Y-14166738D01*
X14802694Y-14261976D02*
X14802694Y-14395310D01*
X14755075Y-14185786D02*
X14707456Y-14328643D01*
X14831266Y-14328643D01*
X15059837Y-14395310D02*
X15059837Y-14195310D01*
X15145551Y-14395310D02*
X15145551Y-14290548D01*
X15136028Y-14271500D01*
X15116980Y-14261976D01*
X15088409Y-14261976D01*
X15069361Y-14271500D01*
X15059837Y-14281024D01*
X15269361Y-14395310D02*
X15250313Y-14385786D01*
X15240789Y-14376262D01*
X15231266Y-14357215D01*
X15231266Y-14300072D01*
X15240789Y-14281024D01*
X15250313Y-14271500D01*
X15269361Y-14261976D01*
X15297932Y-14261976D01*
X15316980Y-14271500D01*
X15326504Y-14281024D01*
X15336028Y-14300072D01*
X15336028Y-14357215D01*
X15326504Y-14376262D01*
X15316980Y-14385786D01*
X15297932Y-14395310D01*
X15269361Y-14395310D01*
X15450313Y-14395310D02*
X15431266Y-14385786D01*
X15421742Y-14366738D01*
X15421742Y-14195310D01*
X15602694Y-14385786D02*
X15583647Y-14395310D01*
X15545551Y-14395310D01*
X15526504Y-14385786D01*
X15516980Y-14366738D01*
X15516980Y-14290548D01*
X15526504Y-14271500D01*
X15545551Y-14261976D01*
X15583647Y-14261976D01*
X15602694Y-14271500D01*
X15612218Y-14290548D01*
X15612218Y-14309596D01*
X15516980Y-14328643D01*
X15688409Y-14385786D02*
X15707456Y-14395310D01*
X15745551Y-14395310D01*
X15764599Y-14385786D01*
X15774123Y-14366738D01*
X15774123Y-14357215D01*
X15764599Y-14338167D01*
X15745551Y-14328643D01*
X15716980Y-14328643D01*
X15697932Y-14319119D01*
X15688409Y-14300072D01*
X15688409Y-14290548D01*
X15697932Y-14271500D01*
X15716980Y-14261976D01*
X15745551Y-14261976D01*
X15764599Y-14271500D01*
X15840789Y-14471500D02*
X15850313Y-14461976D01*
X15869361Y-14433405D01*
X15878885Y-14414357D01*
X15888409Y-14385786D01*
X15897932Y-14338167D01*
X15897932Y-14300072D01*
X15888409Y-14252453D01*
X15878885Y-14223881D01*
X15869361Y-14204834D01*
X15850313Y-14176262D01*
X15840789Y-14166738D01*
M02*
