%TF.GenerationSoftware,KiCad,Pcbnew,(6.0.9)*%
%TF.CreationDate,2024-01-01T16:13:23-07:00*%
%TF.ProjectId,Birds Nest,42697264-7320-44e6-9573-742e6b696361,rev?*%
%TF.SameCoordinates,Original*%
%TF.FileFunction,Drillmap*%
%TF.FilePolarity,Positive*%
%FSLAX45Y45*%
G04 Gerber Fmt 4.5, Leading zero omitted, Abs format (unit mm)*
G04 Created by KiCad (PCBNEW (6.0.9)) date 2024-01-01 16:13:23*
%MOMM*%
%LPD*%
G01*
G04 APERTURE LIST*
%ADD10C,0.038100*%
%ADD11C,0.200000*%
G04 APERTURE END LIST*
D10*
X11430000Y-6752790D02*
G75*
G03*
X11176000Y-6858000I0J-359210D01*
G01*
X11431875Y-11534929D02*
X18034000Y-11534725D01*
X11176000Y-6858000D02*
G75*
G03*
X11070790Y-7112000I254000J-254000D01*
G01*
X18393210Y-7112000D02*
X18392725Y-11176000D01*
X11072664Y-11175719D02*
G75*
G03*
X11177875Y-11429718I359206J-2D01*
G01*
X18288000Y-6858000D02*
G75*
G03*
X18034000Y-6752790I-254000J-254000D01*
G01*
X18034000Y-11534725D02*
G75*
G03*
X18392725Y-11176000I0J358725D01*
G01*
X18393210Y-7112000D02*
G75*
G03*
X18288000Y-6858000I-359210J0D01*
G01*
X11070790Y-7112000D02*
X11072665Y-11175719D01*
X11177873Y-11429721D02*
G75*
G03*
X11431875Y-11534929I253997J254001D01*
G01*
X18034000Y-6752790D02*
X11430000Y-6752790D01*
D11*
X11326504Y-11847310D02*
X11326504Y-11647310D01*
X11374123Y-11647310D01*
X11402694Y-11656834D01*
X11421742Y-11675881D01*
X11431266Y-11694929D01*
X11440789Y-11733024D01*
X11440789Y-11761596D01*
X11431266Y-11799691D01*
X11421742Y-11818738D01*
X11402694Y-11837786D01*
X11374123Y-11847310D01*
X11326504Y-11847310D01*
X11526504Y-11847310D02*
X11526504Y-11713976D01*
X11526504Y-11752072D02*
X11536028Y-11733024D01*
X11545551Y-11723500D01*
X11564599Y-11713976D01*
X11583647Y-11713976D01*
X11650313Y-11847310D02*
X11650313Y-11713976D01*
X11650313Y-11647310D02*
X11640789Y-11656834D01*
X11650313Y-11666357D01*
X11659837Y-11656834D01*
X11650313Y-11647310D01*
X11650313Y-11666357D01*
X11774123Y-11847310D02*
X11755075Y-11837786D01*
X11745551Y-11818738D01*
X11745551Y-11647310D01*
X11878885Y-11847310D02*
X11859837Y-11837786D01*
X11850313Y-11818738D01*
X11850313Y-11647310D01*
X12107456Y-11847310D02*
X12107456Y-11647310D01*
X12174123Y-11790167D01*
X12240789Y-11647310D01*
X12240789Y-11847310D01*
X12421742Y-11847310D02*
X12421742Y-11742548D01*
X12412218Y-11723500D01*
X12393170Y-11713976D01*
X12355075Y-11713976D01*
X12336028Y-11723500D01*
X12421742Y-11837786D02*
X12402694Y-11847310D01*
X12355075Y-11847310D01*
X12336028Y-11837786D01*
X12326504Y-11818738D01*
X12326504Y-11799691D01*
X12336028Y-11780643D01*
X12355075Y-11771119D01*
X12402694Y-11771119D01*
X12421742Y-11761596D01*
X12516980Y-11713976D02*
X12516980Y-11913976D01*
X12516980Y-11723500D02*
X12536028Y-11713976D01*
X12574123Y-11713976D01*
X12593170Y-11723500D01*
X12602694Y-11733024D01*
X12612218Y-11752072D01*
X12612218Y-11809215D01*
X12602694Y-11828262D01*
X12593170Y-11837786D01*
X12574123Y-11847310D01*
X12536028Y-11847310D01*
X12516980Y-11837786D01*
X12697932Y-11828262D02*
X12707456Y-11837786D01*
X12697932Y-11847310D01*
X12688409Y-11837786D01*
X12697932Y-11828262D01*
X12697932Y-11847310D01*
X12697932Y-11723500D02*
X12707456Y-11733024D01*
X12697932Y-11742548D01*
X12688409Y-11733024D01*
X12697932Y-11723500D01*
X12697932Y-11742548D01*
M02*
