%TF.GenerationSoftware,KiCad,Pcbnew,(6.0.9)*%
%TF.CreationDate,2024-01-01T16:13:25-07:00*%
%TF.ProjectId,Birds Nest,42697264-7320-44e6-9573-742e6b696361,rev?*%
%TF.SameCoordinates,Original*%
%TF.FileFunction,Legend,Top*%
%TF.FilePolarity,Positive*%
%FSLAX46Y46*%
G04 Gerber Fmt 4.6, Leading zero omitted, Abs format (unit mm)*
G04 Created by KiCad (PCBNEW (6.0.9)) date 2024-01-01 16:13:25*
%MOMM*%
%LPD*%
G01*
G04 APERTURE LIST*
G04 Aperture macros list*
%AMRoundRect*
0 Rectangle with rounded corners*
0 $1 Rounding radius*
0 $2 $3 $4 $5 $6 $7 $8 $9 X,Y pos of 4 corners*
0 Add a 4 corners polygon primitive as box body*
4,1,4,$2,$3,$4,$5,$6,$7,$8,$9,$2,$3,0*
0 Add four circle primitives for the rounded corners*
1,1,$1+$1,$2,$3*
1,1,$1+$1,$4,$5*
1,1,$1+$1,$6,$7*
1,1,$1+$1,$8,$9*
0 Add four rect primitives between the rounded corners*
20,1,$1+$1,$2,$3,$4,$5,0*
20,1,$1+$1,$4,$5,$6,$7,0*
20,1,$1+$1,$6,$7,$8,$9,0*
20,1,$1+$1,$8,$9,$2,$3,0*%
G04 Aperture macros list end*
%ADD10C,0.304800*%
%ADD11C,0.150000*%
%ADD12C,0.120000*%
%ADD13C,1.800000*%
%ADD14O,1.800000X1.800000*%
%ADD15RoundRect,0.350000X0.725000X-0.600000X0.725000X0.600000X-0.725000X0.600000X-0.725000X-0.600000X0*%
%ADD16O,2.150000X1.900000*%
%ADD17C,2.000000*%
%ADD18RoundRect,0.100000X-0.900000X-0.900000X0.900000X-0.900000X0.900000X0.900000X-0.900000X0.900000X0*%
%ADD19RoundRect,0.100000X0.800000X0.800000X-0.800000X0.800000X-0.800000X-0.800000X0.800000X-0.800000X0*%
%ADD20C,5.200000*%
%ADD21C,1.724000*%
%ADD22RoundRect,0.100000X1.300000X1.300000X-1.300000X1.300000X-1.300000X-1.300000X1.300000X-1.300000X0*%
%ADD23C,2.800000*%
%ADD24RoundRect,0.100000X-0.800000X-0.800000X0.800000X-0.800000X0.800000X0.800000X-0.800000X0.800000X0*%
%ADD25RoundRect,0.100000X-0.800000X0.800000X-0.800000X-0.800000X0.800000X-0.800000X0.800000X0.800000X0*%
%ADD26RoundRect,0.100000X-1.500000X1.500000X-1.500000X-1.500000X1.500000X-1.500000X1.500000X1.500000X0*%
%ADD27C,3.200000*%
%ADD28RoundRect,0.100000X-0.952500X-1.000000X0.952500X-1.000000X0.952500X1.000000X-0.952500X1.000000X0*%
%ADD29O,2.105000X2.200000*%
%ADD30RoundRect,0.100000X1.200000X-1.200000X1.200000X1.200000X-1.200000X1.200000X-1.200000X-1.200000X0*%
%ADD31O,2.600000X2.600000*%
G04 APERTURE END LIST*
D10*
X141702608Y-86795428D02*
X140178608Y-86795428D01*
X140178608Y-86432571D01*
X140251180Y-86214857D01*
X140396322Y-86069714D01*
X140541465Y-85997142D01*
X140831751Y-85924571D01*
X141049465Y-85924571D01*
X141339751Y-85997142D01*
X141484894Y-86069714D01*
X141630037Y-86214857D01*
X141702608Y-86432571D01*
X141702608Y-86795428D01*
X141630037Y-84690857D02*
X141702608Y-84836000D01*
X141702608Y-85126285D01*
X141630037Y-85271428D01*
X141484894Y-85344000D01*
X140904322Y-85344000D01*
X140759180Y-85271428D01*
X140686608Y-85126285D01*
X140686608Y-84836000D01*
X140759180Y-84690857D01*
X140904322Y-84618285D01*
X141049465Y-84618285D01*
X141194608Y-85344000D01*
X140178608Y-84110285D02*
X141702608Y-83747428D01*
X140614037Y-83457142D01*
X141702608Y-83166857D01*
X140178608Y-82804000D01*
X140178608Y-82368571D02*
X140178608Y-81352571D01*
X141702608Y-82368571D01*
X141702608Y-81352571D01*
X141557465Y-80772000D02*
X141630037Y-80699428D01*
X141702608Y-80772000D01*
X141630037Y-80844571D01*
X141557465Y-80772000D01*
X141702608Y-80772000D01*
X141702608Y-80046285D02*
X140178608Y-80046285D01*
X140178608Y-79465714D01*
X140251180Y-79320571D01*
X140323751Y-79248000D01*
X140468894Y-79175428D01*
X140686608Y-79175428D01*
X140831751Y-79248000D01*
X140904322Y-79320571D01*
X140976894Y-79465714D01*
X140976894Y-80046285D01*
X141702608Y-78522285D02*
X140686608Y-78522285D01*
X140976894Y-78522285D02*
X140831751Y-78449714D01*
X140759180Y-78377142D01*
X140686608Y-78232000D01*
X140686608Y-78086857D01*
X141702608Y-77361142D02*
X141630037Y-77506285D01*
X141557465Y-77578857D01*
X141412322Y-77651428D01*
X140976894Y-77651428D01*
X140831751Y-77578857D01*
X140759180Y-77506285D01*
X140686608Y-77361142D01*
X140686608Y-77143428D01*
X140759180Y-76998285D01*
X140831751Y-76925714D01*
X140976894Y-76853142D01*
X141412322Y-76853142D01*
X141557465Y-76925714D01*
X141630037Y-76998285D01*
X141702608Y-77143428D01*
X141702608Y-77361142D01*
X144156248Y-86287428D02*
X143430534Y-86795428D01*
X144156248Y-87158285D02*
X142632248Y-87158285D01*
X142632248Y-86577714D01*
X142704820Y-86432571D01*
X142777391Y-86360000D01*
X142922534Y-86287428D01*
X143140248Y-86287428D01*
X143285391Y-86360000D01*
X143357962Y-86432571D01*
X143430534Y-86577714D01*
X143430534Y-87158285D01*
X144083677Y-85053714D02*
X144156248Y-85198857D01*
X144156248Y-85489142D01*
X144083677Y-85634285D01*
X143938534Y-85706857D01*
X143357962Y-85706857D01*
X143212820Y-85634285D01*
X143140248Y-85489142D01*
X143140248Y-85198857D01*
X143212820Y-85053714D01*
X143357962Y-84981142D01*
X143503105Y-84981142D01*
X143648248Y-85706857D01*
X143140248Y-84473142D02*
X144156248Y-84110285D01*
X143140248Y-83747428D01*
X144156248Y-83166857D02*
X142632248Y-83166857D01*
X142632248Y-82804000D01*
X142704820Y-82586285D01*
X142849962Y-82441142D01*
X142995105Y-82368571D01*
X143285391Y-82296000D01*
X143503105Y-82296000D01*
X143793391Y-82368571D01*
X143938534Y-82441142D01*
X144083677Y-82586285D01*
X144156248Y-82804000D01*
X144156248Y-83166857D01*
X142777391Y-80554285D02*
X142704820Y-80481714D01*
X142632248Y-80336571D01*
X142632248Y-79973714D01*
X142704820Y-79828571D01*
X142777391Y-79756000D01*
X142922534Y-79683428D01*
X143067677Y-79683428D01*
X143285391Y-79756000D01*
X144156248Y-80626857D01*
X144156248Y-79683428D01*
X142632248Y-78740000D02*
X142632248Y-78594857D01*
X142704820Y-78449714D01*
X142777391Y-78377142D01*
X142922534Y-78304571D01*
X143212820Y-78232000D01*
X143575677Y-78232000D01*
X143865962Y-78304571D01*
X144011105Y-78377142D01*
X144083677Y-78449714D01*
X144156248Y-78594857D01*
X144156248Y-78740000D01*
X144083677Y-78885142D01*
X144011105Y-78957714D01*
X143865962Y-79030285D01*
X143575677Y-79102857D01*
X143212820Y-79102857D01*
X142922534Y-79030285D01*
X142777391Y-78957714D01*
X142704820Y-78885142D01*
X142632248Y-78740000D01*
X142777391Y-77651428D02*
X142704820Y-77578857D01*
X142632248Y-77433714D01*
X142632248Y-77070857D01*
X142704820Y-76925714D01*
X142777391Y-76853142D01*
X142922534Y-76780571D01*
X143067677Y-76780571D01*
X143285391Y-76853142D01*
X144156248Y-77724000D01*
X144156248Y-76780571D01*
X143140248Y-75474285D02*
X144156248Y-75474285D01*
X142559677Y-75837142D02*
X143648248Y-76200000D01*
X143648248Y-75256571D01*
D11*
%TO.C,Stepper1*%
X159820092Y-86462857D02*
X159867711Y-86320000D01*
X159867711Y-86081904D01*
X159820092Y-85986666D01*
X159772473Y-85939047D01*
X159677235Y-85891428D01*
X159581997Y-85891428D01*
X159486759Y-85939047D01*
X159439140Y-85986666D01*
X159391521Y-86081904D01*
X159343902Y-86272380D01*
X159296283Y-86367619D01*
X159248664Y-86415238D01*
X159153426Y-86462857D01*
X159058188Y-86462857D01*
X158962950Y-86415238D01*
X158915331Y-86367619D01*
X158867711Y-86272380D01*
X158867711Y-86034285D01*
X158915331Y-85891428D01*
X159201045Y-85605714D02*
X159201045Y-85224761D01*
X158867711Y-85462857D02*
X159724854Y-85462857D01*
X159820092Y-85415238D01*
X159867711Y-85320000D01*
X159867711Y-85224761D01*
X159820092Y-84510476D02*
X159867711Y-84605714D01*
X159867711Y-84796190D01*
X159820092Y-84891428D01*
X159724854Y-84939047D01*
X159343902Y-84939047D01*
X159248664Y-84891428D01*
X159201045Y-84796190D01*
X159201045Y-84605714D01*
X159248664Y-84510476D01*
X159343902Y-84462857D01*
X159439140Y-84462857D01*
X159534378Y-84939047D01*
X159201045Y-84034285D02*
X160201045Y-84034285D01*
X159248664Y-84034285D02*
X159201045Y-83939047D01*
X159201045Y-83748571D01*
X159248664Y-83653333D01*
X159296283Y-83605714D01*
X159391521Y-83558095D01*
X159677235Y-83558095D01*
X159772473Y-83605714D01*
X159820092Y-83653333D01*
X159867711Y-83748571D01*
X159867711Y-83939047D01*
X159820092Y-84034285D01*
X159201045Y-83129523D02*
X160201045Y-83129523D01*
X159248664Y-83129523D02*
X159201045Y-83034285D01*
X159201045Y-82843809D01*
X159248664Y-82748571D01*
X159296283Y-82700952D01*
X159391521Y-82653333D01*
X159677235Y-82653333D01*
X159772473Y-82700952D01*
X159820092Y-82748571D01*
X159867711Y-82843809D01*
X159867711Y-83034285D01*
X159820092Y-83129523D01*
X159820092Y-81843809D02*
X159867711Y-81939047D01*
X159867711Y-82129523D01*
X159820092Y-82224761D01*
X159724854Y-82272380D01*
X159343902Y-82272380D01*
X159248664Y-82224761D01*
X159201045Y-82129523D01*
X159201045Y-81939047D01*
X159248664Y-81843809D01*
X159343902Y-81796190D01*
X159439140Y-81796190D01*
X159534378Y-82272380D01*
X159867711Y-81367619D02*
X159201045Y-81367619D01*
X159391521Y-81367619D02*
X159296283Y-81320000D01*
X159248664Y-81272380D01*
X159201045Y-81177142D01*
X159201045Y-81081904D01*
%TO.C,12V1*%
X148929860Y-114547932D02*
X148358431Y-114547932D01*
X148644146Y-114547932D02*
X148644146Y-113547932D01*
X148548908Y-113690790D01*
X148453669Y-113786028D01*
X148358431Y-113833647D01*
X149310812Y-113643171D02*
X149358431Y-113595552D01*
X149453669Y-113547932D01*
X149691765Y-113547932D01*
X149787003Y-113595552D01*
X149834622Y-113643171D01*
X149882241Y-113738409D01*
X149882241Y-113833647D01*
X149834622Y-113976504D01*
X149263193Y-114547932D01*
X149882241Y-114547932D01*
X150215574Y-113881266D02*
X150453669Y-114547932D01*
X150691765Y-113881266D01*
%TO.C,Status1*%
X141963289Y-114500313D02*
X142106146Y-114547932D01*
X142344241Y-114547932D01*
X142439479Y-114500313D01*
X142487098Y-114452694D01*
X142534717Y-114357456D01*
X142534717Y-114262218D01*
X142487098Y-114166980D01*
X142439479Y-114119361D01*
X142344241Y-114071742D01*
X142153765Y-114024123D01*
X142058527Y-113976504D01*
X142010908Y-113928885D01*
X141963289Y-113833647D01*
X141963289Y-113738409D01*
X142010908Y-113643171D01*
X142058527Y-113595552D01*
X142153765Y-113547932D01*
X142391860Y-113547932D01*
X142534717Y-113595552D01*
X142820432Y-113881266D02*
X143201384Y-113881266D01*
X142963289Y-113547932D02*
X142963289Y-114405075D01*
X143010908Y-114500313D01*
X143106146Y-114547932D01*
X143201384Y-114547932D01*
X143963289Y-114547932D02*
X143963289Y-114024123D01*
X143915670Y-113928885D01*
X143820432Y-113881266D01*
X143629956Y-113881266D01*
X143534717Y-113928885D01*
X143963289Y-114500313D02*
X143868051Y-114547932D01*
X143629956Y-114547932D01*
X143534717Y-114500313D01*
X143487098Y-114405075D01*
X143487098Y-114309837D01*
X143534717Y-114214599D01*
X143629956Y-114166980D01*
X143868051Y-114166980D01*
X143963289Y-114119361D01*
X144296622Y-113881266D02*
X144677575Y-113881266D01*
X144439479Y-113547932D02*
X144439479Y-114405075D01*
X144487098Y-114500313D01*
X144582336Y-114547932D01*
X144677575Y-114547932D01*
X145439479Y-113881266D02*
X145439479Y-114547932D01*
X145010908Y-113881266D02*
X145010908Y-114405075D01*
X145058527Y-114500313D01*
X145153765Y-114547932D01*
X145296622Y-114547932D01*
X145391860Y-114500313D01*
X145439479Y-114452694D01*
X145868051Y-114500313D02*
X145963289Y-114547932D01*
X146153765Y-114547932D01*
X146249003Y-114500313D01*
X146296622Y-114405075D01*
X146296622Y-114357456D01*
X146249003Y-114262218D01*
X146153765Y-114214599D01*
X146010908Y-114214599D01*
X145915670Y-114166980D01*
X145868051Y-114071742D01*
X145868051Y-114024123D01*
X145915670Y-113928885D01*
X146010908Y-113881266D01*
X146153765Y-113881266D01*
X146249003Y-113928885D01*
%TO.C,BreakBeam1*%
X133147529Y-112616297D02*
X133195148Y-112473440D01*
X133242767Y-112425821D01*
X133338005Y-112378202D01*
X133480862Y-112378202D01*
X133576100Y-112425821D01*
X133623719Y-112473440D01*
X133671338Y-112568678D01*
X133671338Y-112949630D01*
X132671338Y-112949630D01*
X132671338Y-112616297D01*
X132718958Y-112521059D01*
X132766577Y-112473440D01*
X132861815Y-112425821D01*
X132957053Y-112425821D01*
X133052291Y-112473440D01*
X133099910Y-112521059D01*
X133147529Y-112616297D01*
X133147529Y-112949630D01*
X133671338Y-111949630D02*
X133004672Y-111949630D01*
X133195148Y-111949630D02*
X133099910Y-111902011D01*
X133052291Y-111854392D01*
X133004672Y-111759154D01*
X133004672Y-111663916D01*
X133623719Y-110949630D02*
X133671338Y-111044869D01*
X133671338Y-111235345D01*
X133623719Y-111330583D01*
X133528481Y-111378202D01*
X133147529Y-111378202D01*
X133052291Y-111330583D01*
X133004672Y-111235345D01*
X133004672Y-111044869D01*
X133052291Y-110949630D01*
X133147529Y-110902011D01*
X133242767Y-110902011D01*
X133338005Y-111378202D01*
X133671338Y-110044869D02*
X133147529Y-110044869D01*
X133052291Y-110092488D01*
X133004672Y-110187726D01*
X133004672Y-110378202D01*
X133052291Y-110473440D01*
X133623719Y-110044869D02*
X133671338Y-110140107D01*
X133671338Y-110378202D01*
X133623719Y-110473440D01*
X133528481Y-110521059D01*
X133433243Y-110521059D01*
X133338005Y-110473440D01*
X133290386Y-110378202D01*
X133290386Y-110140107D01*
X133242767Y-110044869D01*
X133671338Y-109568678D02*
X132671338Y-109568678D01*
X133290386Y-109473440D02*
X133671338Y-109187726D01*
X133004672Y-109187726D02*
X133385624Y-109568678D01*
X133147529Y-108425821D02*
X133195148Y-108282964D01*
X133242767Y-108235345D01*
X133338005Y-108187726D01*
X133480862Y-108187726D01*
X133576100Y-108235345D01*
X133623719Y-108282964D01*
X133671338Y-108378202D01*
X133671338Y-108759154D01*
X132671338Y-108759154D01*
X132671338Y-108425821D01*
X132718958Y-108330583D01*
X132766577Y-108282964D01*
X132861815Y-108235345D01*
X132957053Y-108235345D01*
X133052291Y-108282964D01*
X133099910Y-108330583D01*
X133147529Y-108425821D01*
X133147529Y-108759154D01*
X133623719Y-107378202D02*
X133671338Y-107473440D01*
X133671338Y-107663916D01*
X133623719Y-107759154D01*
X133528481Y-107806773D01*
X133147529Y-107806773D01*
X133052291Y-107759154D01*
X133004672Y-107663916D01*
X133004672Y-107473440D01*
X133052291Y-107378202D01*
X133147529Y-107330583D01*
X133242767Y-107330583D01*
X133338005Y-107806773D01*
X133671338Y-106473440D02*
X133147529Y-106473440D01*
X133052291Y-106521059D01*
X133004672Y-106616297D01*
X133004672Y-106806773D01*
X133052291Y-106902011D01*
X133623719Y-106473440D02*
X133671338Y-106568678D01*
X133671338Y-106806773D01*
X133623719Y-106902011D01*
X133528481Y-106949630D01*
X133433243Y-106949630D01*
X133338005Y-106902011D01*
X133290386Y-106806773D01*
X133290386Y-106568678D01*
X133242767Y-106473440D01*
X133671338Y-105997249D02*
X133004672Y-105997249D01*
X133099910Y-105997249D02*
X133052291Y-105949630D01*
X133004672Y-105854392D01*
X133004672Y-105711535D01*
X133052291Y-105616297D01*
X133147529Y-105568678D01*
X133671338Y-105568678D01*
X133147529Y-105568678D02*
X133052291Y-105521059D01*
X133004672Y-105425821D01*
X133004672Y-105282964D01*
X133052291Y-105187726D01*
X133147529Y-105140107D01*
X133671338Y-105140107D01*
%TO.C,10uF1*%
X162778571Y-89352380D02*
X162207142Y-89352380D01*
X162492857Y-89352380D02*
X162492857Y-88352380D01*
X162397619Y-88495238D01*
X162302380Y-88590476D01*
X162207142Y-88638095D01*
X163397619Y-88352380D02*
X163492857Y-88352380D01*
X163588095Y-88400000D01*
X163635714Y-88447619D01*
X163683333Y-88542857D01*
X163730952Y-88733333D01*
X163730952Y-88971428D01*
X163683333Y-89161904D01*
X163635714Y-89257142D01*
X163588095Y-89304761D01*
X163492857Y-89352380D01*
X163397619Y-89352380D01*
X163302380Y-89304761D01*
X163254761Y-89257142D01*
X163207142Y-89161904D01*
X163159523Y-88971428D01*
X163159523Y-88733333D01*
X163207142Y-88542857D01*
X163254761Y-88447619D01*
X163302380Y-88400000D01*
X163397619Y-88352380D01*
X164588095Y-88685714D02*
X164588095Y-89352380D01*
X164159523Y-88685714D02*
X164159523Y-89209523D01*
X164207142Y-89304761D01*
X164302380Y-89352380D01*
X164445238Y-89352380D01*
X164540476Y-89304761D01*
X164588095Y-89257142D01*
X165397619Y-88828571D02*
X165064285Y-88828571D01*
X165064285Y-89352380D02*
X165064285Y-88352380D01*
X165540476Y-88352380D01*
%TO.C,12vInput1*%
X169929410Y-75779020D02*
X169929410Y-76350449D01*
X169929410Y-76064735D02*
X168929410Y-76064735D01*
X169072268Y-76159973D01*
X169167506Y-76255211D01*
X169215125Y-76350449D01*
X169024649Y-75398068D02*
X168977030Y-75350449D01*
X168929410Y-75255211D01*
X168929410Y-75017116D01*
X168977030Y-74921878D01*
X169024649Y-74874259D01*
X169119887Y-74826640D01*
X169215125Y-74826640D01*
X169357982Y-74874259D01*
X169929410Y-75445687D01*
X169929410Y-74826640D01*
X169262744Y-74493306D02*
X169929410Y-74255211D01*
X169262744Y-74017116D01*
X169929410Y-73636163D02*
X168929410Y-73636163D01*
X169262744Y-73159973D02*
X169929410Y-73159973D01*
X169357982Y-73159973D02*
X169310363Y-73112354D01*
X169262744Y-73017116D01*
X169262744Y-72874259D01*
X169310363Y-72779020D01*
X169405601Y-72731401D01*
X169929410Y-72731401D01*
X169262744Y-72255211D02*
X170262744Y-72255211D01*
X169310363Y-72255211D02*
X169262744Y-72159973D01*
X169262744Y-71969497D01*
X169310363Y-71874259D01*
X169357982Y-71826640D01*
X169453220Y-71779020D01*
X169738934Y-71779020D01*
X169834172Y-71826640D01*
X169881791Y-71874259D01*
X169929410Y-71969497D01*
X169929410Y-72159973D01*
X169881791Y-72255211D01*
X169262744Y-70921878D02*
X169929410Y-70921878D01*
X169262744Y-71350449D02*
X169786553Y-71350449D01*
X169881791Y-71302830D01*
X169929410Y-71207592D01*
X169929410Y-71064735D01*
X169881791Y-70969497D01*
X169834172Y-70921878D01*
X169262744Y-70588544D02*
X169262744Y-70207592D01*
X168929410Y-70445687D02*
X169786553Y-70445687D01*
X169881791Y-70398068D01*
X169929410Y-70302830D01*
X169929410Y-70207592D01*
%TO.C,100nF1*%
X170263333Y-88685714D02*
X170263333Y-89352380D01*
X170025238Y-88304761D02*
X169787142Y-89019047D01*
X170406190Y-89019047D01*
X170691904Y-88352380D02*
X171358571Y-88352380D01*
X170930000Y-89352380D01*
X172168095Y-88685714D02*
X172168095Y-89352380D01*
X171739523Y-88685714D02*
X171739523Y-89209523D01*
X171787142Y-89304761D01*
X171882380Y-89352380D01*
X172025238Y-89352380D01*
X172120476Y-89304761D01*
X172168095Y-89257142D01*
X172977619Y-88828571D02*
X172644285Y-88828571D01*
X172644285Y-89352380D02*
X172644285Y-88352380D01*
X173120476Y-88352380D01*
%TO.C,5V1*%
X154794598Y-113547932D02*
X154318408Y-113547932D01*
X154270789Y-114024123D01*
X154318408Y-113976504D01*
X154413646Y-113928885D01*
X154651741Y-113928885D01*
X154746979Y-113976504D01*
X154794598Y-114024123D01*
X154842217Y-114119361D01*
X154842217Y-114357456D01*
X154794598Y-114452694D01*
X154746979Y-114500313D01*
X154651741Y-114547932D01*
X154413646Y-114547932D01*
X154318408Y-114500313D01*
X154270789Y-114452694D01*
X155175551Y-113881266D02*
X155413646Y-114547932D01*
X155651741Y-113881266D01*
%TO.C,100uF1*%
X160472380Y-73957619D02*
X160472380Y-74529047D01*
X160472380Y-74243333D02*
X159472380Y-74243333D01*
X159615238Y-74338571D01*
X159710476Y-74433809D01*
X159758095Y-74529047D01*
X159472380Y-73338571D02*
X159472380Y-73243333D01*
X159520000Y-73148095D01*
X159567619Y-73100476D01*
X159662857Y-73052857D01*
X159853333Y-73005238D01*
X160091428Y-73005238D01*
X160281904Y-73052857D01*
X160377142Y-73100476D01*
X160424761Y-73148095D01*
X160472380Y-73243333D01*
X160472380Y-73338571D01*
X160424761Y-73433809D01*
X160377142Y-73481428D01*
X160281904Y-73529047D01*
X160091428Y-73576666D01*
X159853333Y-73576666D01*
X159662857Y-73529047D01*
X159567619Y-73481428D01*
X159520000Y-73433809D01*
X159472380Y-73338571D01*
X159472380Y-72386190D02*
X159472380Y-72290952D01*
X159520000Y-72195714D01*
X159567619Y-72148095D01*
X159662857Y-72100476D01*
X159853333Y-72052857D01*
X160091428Y-72052857D01*
X160281904Y-72100476D01*
X160377142Y-72148095D01*
X160424761Y-72195714D01*
X160472380Y-72290952D01*
X160472380Y-72386190D01*
X160424761Y-72481428D01*
X160377142Y-72529047D01*
X160281904Y-72576666D01*
X160091428Y-72624285D01*
X159853333Y-72624285D01*
X159662857Y-72576666D01*
X159567619Y-72529047D01*
X159520000Y-72481428D01*
X159472380Y-72386190D01*
X159805714Y-71195714D02*
X160472380Y-71195714D01*
X159805714Y-71624285D02*
X160329523Y-71624285D01*
X160424761Y-71576666D01*
X160472380Y-71481428D01*
X160472380Y-71338571D01*
X160424761Y-71243333D01*
X160377142Y-71195714D01*
X159948571Y-70386190D02*
X159948571Y-70719523D01*
X160472380Y-70719523D02*
X159472380Y-70719523D01*
X159472380Y-70243333D01*
%TO.C,Speed1*%
X158312047Y-101617025D02*
X158454905Y-101664644D01*
X158693000Y-101664644D01*
X158788238Y-101617025D01*
X158835857Y-101569406D01*
X158883476Y-101474168D01*
X158883476Y-101378930D01*
X158835857Y-101283692D01*
X158788238Y-101236073D01*
X158693000Y-101188454D01*
X158502524Y-101140835D01*
X158407286Y-101093216D01*
X158359667Y-101045597D01*
X158312047Y-100950359D01*
X158312047Y-100855121D01*
X158359667Y-100759883D01*
X158407286Y-100712264D01*
X158502524Y-100664644D01*
X158740619Y-100664644D01*
X158883476Y-100712264D01*
X159312047Y-100997978D02*
X159312047Y-101997978D01*
X159312047Y-101045597D02*
X159407286Y-100997978D01*
X159597762Y-100997978D01*
X159693000Y-101045597D01*
X159740619Y-101093216D01*
X159788238Y-101188454D01*
X159788238Y-101474168D01*
X159740619Y-101569406D01*
X159693000Y-101617025D01*
X159597762Y-101664644D01*
X159407286Y-101664644D01*
X159312047Y-101617025D01*
X160597762Y-101617025D02*
X160502524Y-101664644D01*
X160312047Y-101664644D01*
X160216809Y-101617025D01*
X160169190Y-101521787D01*
X160169190Y-101140835D01*
X160216809Y-101045597D01*
X160312047Y-100997978D01*
X160502524Y-100997978D01*
X160597762Y-101045597D01*
X160645381Y-101140835D01*
X160645381Y-101236073D01*
X160169190Y-101331311D01*
X161454905Y-101617025D02*
X161359667Y-101664644D01*
X161169190Y-101664644D01*
X161073952Y-101617025D01*
X161026333Y-101521787D01*
X161026333Y-101140835D01*
X161073952Y-101045597D01*
X161169190Y-100997978D01*
X161359667Y-100997978D01*
X161454905Y-101045597D01*
X161502524Y-101140835D01*
X161502524Y-101236073D01*
X161026333Y-101331311D01*
X162359667Y-101664644D02*
X162359667Y-100664644D01*
X162359667Y-101617025D02*
X162264428Y-101664644D01*
X162073952Y-101664644D01*
X161978714Y-101617025D01*
X161931095Y-101569406D01*
X161883476Y-101474168D01*
X161883476Y-101188454D01*
X161931095Y-101093216D01*
X161978714Y-101045597D01*
X162073952Y-100997978D01*
X162264428Y-100997978D01*
X162359667Y-101045597D01*
%TO.C,LM7805*%
X165473333Y-99512380D02*
X164997142Y-99512380D01*
X164997142Y-98512380D01*
X165806666Y-99512380D02*
X165806666Y-98512380D01*
X166140000Y-99226666D01*
X166473333Y-98512380D01*
X166473333Y-99512380D01*
X166854285Y-98512380D02*
X167520952Y-98512380D01*
X167092380Y-99512380D01*
X168044761Y-98940952D02*
X167949523Y-98893333D01*
X167901904Y-98845714D01*
X167854285Y-98750476D01*
X167854285Y-98702857D01*
X167901904Y-98607619D01*
X167949523Y-98560000D01*
X168044761Y-98512380D01*
X168235238Y-98512380D01*
X168330476Y-98560000D01*
X168378095Y-98607619D01*
X168425714Y-98702857D01*
X168425714Y-98750476D01*
X168378095Y-98845714D01*
X168330476Y-98893333D01*
X168235238Y-98940952D01*
X168044761Y-98940952D01*
X167949523Y-98988571D01*
X167901904Y-99036190D01*
X167854285Y-99131428D01*
X167854285Y-99321904D01*
X167901904Y-99417142D01*
X167949523Y-99464761D01*
X168044761Y-99512380D01*
X168235238Y-99512380D01*
X168330476Y-99464761D01*
X168378095Y-99417142D01*
X168425714Y-99321904D01*
X168425714Y-99131428D01*
X168378095Y-99036190D01*
X168330476Y-98988571D01*
X168235238Y-98940952D01*
X169044761Y-98512380D02*
X169140000Y-98512380D01*
X169235238Y-98560000D01*
X169282857Y-98607619D01*
X169330476Y-98702857D01*
X169378095Y-98893333D01*
X169378095Y-99131428D01*
X169330476Y-99321904D01*
X169282857Y-99417142D01*
X169235238Y-99464761D01*
X169140000Y-99512380D01*
X169044761Y-99512380D01*
X168949523Y-99464761D01*
X168901904Y-99417142D01*
X168854285Y-99321904D01*
X168806666Y-99131428D01*
X168806666Y-98893333D01*
X168854285Y-98702857D01*
X168901904Y-98607619D01*
X168949523Y-98560000D01*
X169044761Y-98512380D01*
X170282857Y-98512380D02*
X169806666Y-98512380D01*
X169759047Y-98988571D01*
X169806666Y-98940952D01*
X169901904Y-98893333D01*
X170140000Y-98893333D01*
X170235238Y-98940952D01*
X170282857Y-98988571D01*
X170330476Y-99083809D01*
X170330476Y-99321904D01*
X170282857Y-99417142D01*
X170235238Y-99464761D01*
X170140000Y-99512380D01*
X169901904Y-99512380D01*
X169806666Y-99464761D01*
X169759047Y-99417142D01*
%TO.C,1N4007*%
X177818648Y-91975103D02*
X177818648Y-92546531D01*
X177818648Y-92260817D02*
X176818648Y-92260817D01*
X176961506Y-92356055D01*
X177056744Y-92451293D01*
X177104363Y-92546531D01*
X177818648Y-91546531D02*
X176818648Y-91546531D01*
X177818648Y-90975103D01*
X176818648Y-90975103D01*
X177151982Y-90070341D02*
X177818648Y-90070341D01*
X176771029Y-90308436D02*
X177485315Y-90546531D01*
X177485315Y-89927484D01*
X176818648Y-89356055D02*
X176818648Y-89260817D01*
X176866268Y-89165579D01*
X176913887Y-89117960D01*
X177009125Y-89070341D01*
X177199601Y-89022722D01*
X177437696Y-89022722D01*
X177628172Y-89070341D01*
X177723410Y-89117960D01*
X177771029Y-89165579D01*
X177818648Y-89260817D01*
X177818648Y-89356055D01*
X177771029Y-89451293D01*
X177723410Y-89498912D01*
X177628172Y-89546531D01*
X177437696Y-89594150D01*
X177199601Y-89594150D01*
X177009125Y-89546531D01*
X176913887Y-89498912D01*
X176866268Y-89451293D01*
X176818648Y-89356055D01*
X176818648Y-88403674D02*
X176818648Y-88308436D01*
X176866268Y-88213198D01*
X176913887Y-88165579D01*
X177009125Y-88117960D01*
X177199601Y-88070341D01*
X177437696Y-88070341D01*
X177628172Y-88117960D01*
X177723410Y-88165579D01*
X177771029Y-88213198D01*
X177818648Y-88308436D01*
X177818648Y-88403674D01*
X177771029Y-88498912D01*
X177723410Y-88546531D01*
X177628172Y-88594150D01*
X177437696Y-88641769D01*
X177199601Y-88641769D01*
X177009125Y-88594150D01*
X176913887Y-88546531D01*
X176866268Y-88498912D01*
X176818648Y-88403674D01*
X176818648Y-87737007D02*
X176818648Y-87070341D01*
X177818648Y-87498912D01*
%TO.C,Accessory1*%
X133281770Y-101303828D02*
X133281770Y-100827638D01*
X133567484Y-101399066D02*
X132567484Y-101065733D01*
X133567484Y-100732399D01*
X133519865Y-99970495D02*
X133567484Y-100065733D01*
X133567484Y-100256209D01*
X133519865Y-100351447D01*
X133472246Y-100399066D01*
X133377008Y-100446685D01*
X133091294Y-100446685D01*
X132996056Y-100399066D01*
X132948437Y-100351447D01*
X132900818Y-100256209D01*
X132900818Y-100065733D01*
X132948437Y-99970495D01*
X133519865Y-99113352D02*
X133567484Y-99208590D01*
X133567484Y-99399066D01*
X133519865Y-99494304D01*
X133472246Y-99541923D01*
X133377008Y-99589542D01*
X133091294Y-99589542D01*
X132996056Y-99541923D01*
X132948437Y-99494304D01*
X132900818Y-99399066D01*
X132900818Y-99208590D01*
X132948437Y-99113352D01*
X133519865Y-98303828D02*
X133567484Y-98399066D01*
X133567484Y-98589542D01*
X133519865Y-98684780D01*
X133424627Y-98732399D01*
X133043675Y-98732399D01*
X132948437Y-98684780D01*
X132900818Y-98589542D01*
X132900818Y-98399066D01*
X132948437Y-98303828D01*
X133043675Y-98256209D01*
X133138913Y-98256209D01*
X133234151Y-98732399D01*
X133519865Y-97875257D02*
X133567484Y-97780018D01*
X133567484Y-97589542D01*
X133519865Y-97494304D01*
X133424627Y-97446685D01*
X133377008Y-97446685D01*
X133281770Y-97494304D01*
X133234151Y-97589542D01*
X133234151Y-97732399D01*
X133186532Y-97827638D01*
X133091294Y-97875257D01*
X133043675Y-97875257D01*
X132948437Y-97827638D01*
X132900818Y-97732399D01*
X132900818Y-97589542D01*
X132948437Y-97494304D01*
X133519865Y-97065733D02*
X133567484Y-96970495D01*
X133567484Y-96780018D01*
X133519865Y-96684780D01*
X133424627Y-96637161D01*
X133377008Y-96637161D01*
X133281770Y-96684780D01*
X133234151Y-96780018D01*
X133234151Y-96922876D01*
X133186532Y-97018114D01*
X133091294Y-97065733D01*
X133043675Y-97065733D01*
X132948437Y-97018114D01*
X132900818Y-96922876D01*
X132900818Y-96780018D01*
X132948437Y-96684780D01*
X133567484Y-96065733D02*
X133519865Y-96160971D01*
X133472246Y-96208590D01*
X133377008Y-96256209D01*
X133091294Y-96256209D01*
X132996056Y-96208590D01*
X132948437Y-96160971D01*
X132900818Y-96065733D01*
X132900818Y-95922876D01*
X132948437Y-95827638D01*
X132996056Y-95780018D01*
X133091294Y-95732399D01*
X133377008Y-95732399D01*
X133472246Y-95780018D01*
X133519865Y-95827638D01*
X133567484Y-95922876D01*
X133567484Y-96065733D01*
X133567484Y-95303828D02*
X132900818Y-95303828D01*
X133091294Y-95303828D02*
X132996056Y-95256209D01*
X132948437Y-95208590D01*
X132900818Y-95113352D01*
X132900818Y-95018114D01*
X132900818Y-94780018D02*
X133567484Y-94541923D01*
X132900818Y-94303828D02*
X133567484Y-94541923D01*
X133805580Y-94637161D01*
X133853199Y-94684780D01*
X133900818Y-94780018D01*
%TO.C,0.1uF1*%
X182332380Y-105742857D02*
X182332380Y-105647619D01*
X182380000Y-105552380D01*
X182427619Y-105504761D01*
X182522857Y-105457142D01*
X182713333Y-105409523D01*
X182951428Y-105409523D01*
X183141904Y-105457142D01*
X183237142Y-105504761D01*
X183284761Y-105552380D01*
X183332380Y-105647619D01*
X183332380Y-105742857D01*
X183284761Y-105838095D01*
X183237142Y-105885714D01*
X183141904Y-105933333D01*
X182951428Y-105980952D01*
X182713333Y-105980952D01*
X182522857Y-105933333D01*
X182427619Y-105885714D01*
X182380000Y-105838095D01*
X182332380Y-105742857D01*
X183237142Y-104980952D02*
X183284761Y-104933333D01*
X183332380Y-104980952D01*
X183284761Y-105028571D01*
X183237142Y-104980952D01*
X183332380Y-104980952D01*
X183332380Y-103980952D02*
X183332380Y-104552380D01*
X183332380Y-104266666D02*
X182332380Y-104266666D01*
X182475238Y-104361904D01*
X182570476Y-104457142D01*
X182618095Y-104552380D01*
X182665714Y-103123809D02*
X183332380Y-103123809D01*
X182665714Y-103552380D02*
X183189523Y-103552380D01*
X183284761Y-103504761D01*
X183332380Y-103409523D01*
X183332380Y-103266666D01*
X183284761Y-103171428D01*
X183237142Y-103123809D01*
X182808571Y-102314285D02*
X182808571Y-102647619D01*
X183332380Y-102647619D02*
X182332380Y-102647619D01*
X182332380Y-102171428D01*
D12*
%TO.C,Stepper1*%
X153240000Y-90120000D02*
X153240000Y-88320000D01*
X152490000Y-80820000D02*
X152490000Y-86820000D01*
X152190000Y-90420000D02*
X153440000Y-90420000D01*
X153240000Y-80820000D02*
X152490000Y-80820000D01*
X154740000Y-89370000D02*
X157690000Y-89370000D01*
X158450000Y-90130000D02*
X158450000Y-77510000D01*
X153240000Y-79320000D02*
X153240000Y-77520000D01*
X152490000Y-86820000D02*
X153240000Y-86820000D01*
X153240000Y-88320000D02*
X152490000Y-88320000D01*
X152490000Y-79320000D02*
X153240000Y-79320000D01*
X152490000Y-90120000D02*
X153240000Y-90120000D01*
X152480000Y-77510000D02*
X152480000Y-90130000D01*
X153240000Y-86820000D02*
X153240000Y-80820000D01*
X152480000Y-90130000D02*
X158450000Y-90130000D01*
X158450000Y-77510000D02*
X152480000Y-77510000D01*
X154740000Y-90120000D02*
X154740000Y-89370000D01*
X152190000Y-89170000D02*
X152190000Y-90420000D01*
X157690000Y-89370000D02*
X157690000Y-83820000D01*
X154740000Y-78270000D02*
X157690000Y-78270000D01*
X152490000Y-77520000D02*
X152490000Y-79320000D01*
X153240000Y-77520000D02*
X152490000Y-77520000D01*
X152490000Y-88320000D02*
X152490000Y-90120000D01*
X154740000Y-77520000D02*
X154740000Y-78270000D01*
X157690000Y-78270000D02*
X157690000Y-83820000D01*
%TO.C,12V1*%
X147941289Y-112371068D02*
G75*
G03*
X151173624Y-112214160I1560000J1235516D01*
G01*
X151173624Y-110056944D02*
G75*
G03*
X147941289Y-109900036I-1672335J-1078608D01*
G01*
X150542419Y-110055715D02*
G75*
G03*
X148460328Y-110055552I-1041130J-1079837D01*
G01*
X148460328Y-112215552D02*
G75*
G03*
X150542419Y-112215389I1040961J1080000D01*
G01*
X147941289Y-109899552D02*
X147941289Y-110055552D01*
X147941289Y-112215552D02*
X147941289Y-112371552D01*
%TO.C,Status1*%
X143088995Y-112215552D02*
G75*
G03*
X145171086Y-112215389I1040961J1080000D01*
G01*
X142569956Y-112371068D02*
G75*
G03*
X145802291Y-112214160I1560000J1235516D01*
G01*
X145171086Y-110055715D02*
G75*
G03*
X143088995Y-110055552I-1041130J-1079837D01*
G01*
X145802291Y-110056944D02*
G75*
G03*
X142569956Y-109900036I-1672335J-1078608D01*
G01*
X142569956Y-112215552D02*
X142569956Y-112371552D01*
X142569956Y-109899552D02*
X142569956Y-110055552D01*
%TO.C,BreakBeam1*%
X136960000Y-104210000D02*
X136960000Y-104960000D01*
X136960000Y-104960000D02*
X139910000Y-104960000D01*
X134710000Y-111010000D02*
X135460000Y-111010000D01*
X134710000Y-106010000D02*
X135460000Y-106010000D01*
X134410000Y-113360000D02*
X134410000Y-114610000D01*
X135460000Y-112510000D02*
X134710000Y-112510000D01*
X134700000Y-104200000D02*
X134700000Y-114320000D01*
X136960000Y-113560000D02*
X139910000Y-113560000D01*
X135460000Y-111010000D02*
X135460000Y-107510000D01*
X140670000Y-114320000D02*
X140670000Y-104200000D01*
X135460000Y-106010000D02*
X135460000Y-104210000D01*
X134710000Y-112510000D02*
X134710000Y-114310000D01*
X134710000Y-107510000D02*
X134710000Y-111010000D01*
X136960000Y-114310000D02*
X136960000Y-113560000D01*
X139910000Y-104960000D02*
X139910000Y-109260000D01*
X139910000Y-113560000D02*
X139910000Y-109260000D01*
X135460000Y-104210000D02*
X134710000Y-104210000D01*
X134410000Y-114610000D02*
X135660000Y-114610000D01*
X135460000Y-107510000D02*
X134710000Y-107510000D01*
X134710000Y-104210000D02*
X134710000Y-106010000D01*
X134700000Y-114320000D02*
X140670000Y-114320000D01*
X140670000Y-104200000D02*
X134700000Y-104200000D01*
X134710000Y-114310000D02*
X135460000Y-114310000D01*
X135460000Y-114310000D02*
X135460000Y-112510000D01*
%TO.C,10uF1*%
X162169000Y-85791000D02*
X162169000Y-84860000D01*
X162489000Y-86020000D02*
X162489000Y-84860000D01*
X162249000Y-85855000D02*
X162249000Y-84860000D01*
X161569000Y-82780000D02*
X161569000Y-82569000D01*
X162889000Y-86218000D02*
X162889000Y-84860000D01*
X161929000Y-85563000D02*
X161929000Y-84860000D01*
X163610000Y-82780000D02*
X163610000Y-81251000D01*
X162569000Y-82780000D02*
X162569000Y-81573000D01*
X162769000Y-86168000D02*
X162769000Y-84860000D01*
X162329000Y-82780000D02*
X162329000Y-81725000D01*
X161649000Y-82780000D02*
X161649000Y-82437000D01*
X161889000Y-85519000D02*
X161889000Y-84860000D01*
X161529000Y-84998000D02*
X161529000Y-82642000D01*
X163089000Y-82780000D02*
X163089000Y-81352000D01*
X163290000Y-86340000D02*
X163290000Y-84860000D01*
X163290000Y-82780000D02*
X163290000Y-81300000D01*
X162649000Y-82780000D02*
X162649000Y-81530000D01*
X162289000Y-85885000D02*
X162289000Y-84860000D01*
X161689000Y-82780000D02*
X161689000Y-82377000D01*
X162049000Y-82780000D02*
X162049000Y-81956000D01*
X163250000Y-82780000D02*
X163250000Y-81309000D01*
X161689000Y-85263000D02*
X161689000Y-84860000D01*
X162609000Y-86088000D02*
X162609000Y-84860000D01*
X162129000Y-85757000D02*
X162129000Y-84860000D01*
X163370000Y-86356000D02*
X163370000Y-84860000D01*
X163250000Y-86331000D02*
X163250000Y-84860000D01*
X162969000Y-86248000D02*
X162969000Y-84860000D01*
X162569000Y-86067000D02*
X162569000Y-84860000D01*
X162089000Y-85721000D02*
X162089000Y-84860000D01*
X162929000Y-86234000D02*
X162929000Y-84860000D01*
X161449000Y-84831000D02*
X161449000Y-82809000D01*
X163210000Y-86321000D02*
X163210000Y-84860000D01*
X163490000Y-82780000D02*
X163490000Y-81264000D01*
X162529000Y-86044000D02*
X162529000Y-84860000D01*
X163129000Y-82780000D02*
X163129000Y-81340000D01*
X163530000Y-86381000D02*
X163530000Y-84860000D01*
X163170000Y-86311000D02*
X163170000Y-84860000D01*
X163170000Y-82780000D02*
X163170000Y-81329000D01*
X162889000Y-82780000D02*
X162889000Y-81422000D01*
X163009000Y-82780000D02*
X163009000Y-81378000D01*
X161249000Y-84104000D02*
X161249000Y-83536000D01*
X161369000Y-84625000D02*
X161369000Y-83015000D01*
X161809000Y-85425000D02*
X161809000Y-84860000D01*
X163570000Y-86385000D02*
X163570000Y-84860000D01*
X161729000Y-82780000D02*
X161729000Y-82320000D01*
X161649000Y-85203000D02*
X161649000Y-84860000D01*
X161969000Y-85605000D02*
X161969000Y-84860000D01*
X163730000Y-86398000D02*
X163730000Y-81242000D01*
X162849000Y-82780000D02*
X162849000Y-81438000D01*
X162009000Y-85646000D02*
X162009000Y-84860000D01*
X161809000Y-82780000D02*
X161809000Y-82215000D01*
X163370000Y-82780000D02*
X163370000Y-81284000D01*
X162729000Y-86149000D02*
X162729000Y-84860000D01*
X163410000Y-82780000D02*
X163410000Y-81277000D01*
X162129000Y-82780000D02*
X162129000Y-81883000D01*
X163850000Y-86400000D02*
X163850000Y-81240000D01*
X162969000Y-82780000D02*
X162969000Y-81392000D01*
X166654775Y-85295000D02*
X166154775Y-85295000D01*
X163770000Y-86399000D02*
X163770000Y-81241000D01*
X161769000Y-82780000D02*
X161769000Y-82266000D01*
X161849000Y-82780000D02*
X161849000Y-82167000D01*
X162449000Y-82780000D02*
X162449000Y-81645000D01*
X163490000Y-86376000D02*
X163490000Y-84860000D01*
X162409000Y-85969000D02*
X162409000Y-84860000D01*
X163330000Y-86348000D02*
X163330000Y-84860000D01*
X162849000Y-86202000D02*
X162849000Y-84860000D01*
X163810000Y-86400000D02*
X163810000Y-81240000D01*
X161609000Y-85139000D02*
X161609000Y-84860000D01*
X162169000Y-82780000D02*
X162169000Y-81849000D01*
X161769000Y-85374000D02*
X161769000Y-84860000D01*
X163009000Y-86262000D02*
X163009000Y-84860000D01*
X163650000Y-86393000D02*
X163650000Y-81247000D01*
X163089000Y-86288000D02*
X163089000Y-84860000D01*
X162289000Y-82780000D02*
X162289000Y-81755000D01*
X163690000Y-86396000D02*
X163690000Y-81244000D01*
X163049000Y-82780000D02*
X163049000Y-81365000D01*
X162049000Y-85684000D02*
X162049000Y-84860000D01*
X162649000Y-86110000D02*
X162649000Y-84860000D01*
X162729000Y-82780000D02*
X162729000Y-81491000D01*
X161609000Y-82780000D02*
X161609000Y-82501000D01*
X162249000Y-82780000D02*
X162249000Y-81785000D01*
X162209000Y-85824000D02*
X162209000Y-84860000D01*
X161889000Y-82780000D02*
X161889000Y-82121000D01*
X162809000Y-86185000D02*
X162809000Y-84860000D01*
X163129000Y-86300000D02*
X163129000Y-84860000D01*
X163610000Y-86389000D02*
X163610000Y-84860000D01*
X162689000Y-86130000D02*
X162689000Y-84860000D01*
X161929000Y-82780000D02*
X161929000Y-82077000D01*
X162529000Y-82780000D02*
X162529000Y-81596000D01*
X161329000Y-84497000D02*
X161329000Y-83143000D01*
X161969000Y-82780000D02*
X161969000Y-82035000D01*
X166404775Y-85545000D02*
X166404775Y-85045000D01*
X162009000Y-82780000D02*
X162009000Y-81994000D01*
X163330000Y-82780000D02*
X163330000Y-81292000D01*
X163049000Y-86275000D02*
X163049000Y-84860000D01*
X162329000Y-85915000D02*
X162329000Y-84860000D01*
X162369000Y-82780000D02*
X162369000Y-81698000D01*
X163450000Y-86370000D02*
X163450000Y-84860000D01*
X163410000Y-86363000D02*
X163410000Y-84860000D01*
X162689000Y-82780000D02*
X162689000Y-81510000D01*
X161289000Y-84338000D02*
X161289000Y-83302000D01*
X163570000Y-82780000D02*
X163570000Y-81255000D01*
X163210000Y-82780000D02*
X163210000Y-81319000D01*
X161569000Y-85071000D02*
X161569000Y-84860000D01*
X162929000Y-82780000D02*
X162929000Y-81406000D01*
X162449000Y-85995000D02*
X162449000Y-84860000D01*
X162769000Y-82780000D02*
X162769000Y-81472000D01*
X161729000Y-85320000D02*
X161729000Y-84860000D01*
X162609000Y-82780000D02*
X162609000Y-81552000D01*
X161489000Y-84918000D02*
X161489000Y-82722000D01*
X163530000Y-82780000D02*
X163530000Y-81259000D01*
X162409000Y-82780000D02*
X162409000Y-81671000D01*
X162209000Y-82780000D02*
X162209000Y-81816000D01*
X162089000Y-82780000D02*
X162089000Y-81919000D01*
X162489000Y-82780000D02*
X162489000Y-81620000D01*
X163450000Y-82780000D02*
X163450000Y-81270000D01*
X161849000Y-85473000D02*
X161849000Y-84860000D01*
X161409000Y-84735000D02*
X161409000Y-82905000D01*
X162809000Y-82780000D02*
X162809000Y-81455000D01*
X162369000Y-85942000D02*
X162369000Y-84860000D01*
X166470000Y-83820000D02*
G75*
G03*
X166470000Y-83820000I-2620000J0D01*
G01*
%TO.C,R2.5K1*%
X142692226Y-96425584D02*
X142692226Y-105665584D01*
X144412226Y-95735584D02*
X144412226Y-96425584D01*
X146132226Y-105665584D02*
X146132226Y-96425584D01*
X142692226Y-105665584D02*
X146132226Y-105665584D01*
X146132226Y-96425584D02*
X142692226Y-96425584D01*
X144412226Y-106355584D02*
X144412226Y-105665584D01*
%TO.C,DRV8825*%
X134480000Y-91570000D02*
X147310000Y-91570000D01*
X147310000Y-88900000D02*
X147310000Y-70990000D01*
X147310000Y-88900000D02*
X149980000Y-88900000D01*
X148580000Y-91570000D02*
X149980000Y-91570000D01*
X149980000Y-70990000D02*
X134480000Y-70990000D01*
X149980000Y-88900000D02*
X149980000Y-70990000D01*
X137150000Y-91570000D02*
X137150000Y-70990000D01*
X134480000Y-70990000D02*
X134480000Y-91570000D01*
X149980000Y-91570000D02*
X149980000Y-90170000D01*
X147310000Y-91570000D02*
X147310000Y-88900000D01*
%TO.C,12vInput1*%
X175177018Y-78624054D02*
X172377018Y-78624054D01*
X181577018Y-64024054D02*
X181577018Y-78624054D01*
X172377018Y-78624054D02*
X172377018Y-76624054D01*
X181817018Y-77124054D02*
X181817018Y-78864054D01*
X172377018Y-73024054D02*
X172377018Y-64024054D01*
X181817018Y-78864054D02*
X180077018Y-78864054D01*
X181577018Y-78624054D02*
X178777018Y-78624054D01*
X172377018Y-64024054D02*
X181577018Y-64024054D01*
%TO.C,100nF1*%
X171670000Y-80598000D02*
X171670000Y-82780000D01*
X174351000Y-82388000D02*
X174351000Y-85252000D01*
X171950000Y-80631000D02*
X171950000Y-82780000D01*
X173831000Y-81638000D02*
X173831000Y-86002000D01*
X174511000Y-82761000D02*
X174511000Y-84879000D01*
X171470000Y-80590000D02*
X171470000Y-87050000D01*
X172711000Y-80850000D02*
X172711000Y-82780000D01*
X173111000Y-84860000D02*
X173111000Y-86586000D01*
X172631000Y-84860000D02*
X172631000Y-86822000D01*
X174191000Y-82106000D02*
X174191000Y-85534000D01*
X173751000Y-81555000D02*
X173751000Y-86085000D01*
X174311000Y-82311000D02*
X174311000Y-85329000D01*
X172151000Y-84860000D02*
X172151000Y-86970000D01*
X173271000Y-84860000D02*
X173271000Y-86484000D01*
X174551000Y-82880000D02*
X174551000Y-84760000D01*
X172311000Y-84860000D02*
X172311000Y-86930000D01*
X172110000Y-84860000D02*
X172110000Y-86979000D01*
X171750000Y-80605000D02*
X171750000Y-82780000D01*
X171990000Y-84860000D02*
X171990000Y-87002000D01*
X173911000Y-81728000D02*
X173911000Y-85912000D01*
X172751000Y-80868000D02*
X172751000Y-82780000D01*
X173711000Y-84860000D02*
X173711000Y-86125000D01*
X171830000Y-84860000D02*
X171830000Y-87026000D01*
X172110000Y-80661000D02*
X172110000Y-82780000D01*
X173471000Y-81304000D02*
X173471000Y-82780000D01*
X171590000Y-80593000D02*
X171590000Y-87047000D01*
X172831000Y-84860000D02*
X172831000Y-86736000D01*
X172431000Y-80746000D02*
X172431000Y-82780000D01*
X172551000Y-80787000D02*
X172551000Y-82780000D01*
X174031000Y-81876000D02*
X174031000Y-85764000D01*
X173631000Y-81440000D02*
X173631000Y-82780000D01*
X173151000Y-81078000D02*
X173151000Y-82780000D01*
X173071000Y-84860000D02*
X173071000Y-86610000D01*
X172711000Y-84860000D02*
X172711000Y-86790000D01*
X171910000Y-84860000D02*
X171910000Y-87015000D01*
X172191000Y-84860000D02*
X172191000Y-86961000D01*
X172431000Y-84860000D02*
X172431000Y-86894000D01*
X171950000Y-84860000D02*
X171950000Y-87009000D01*
X172070000Y-80653000D02*
X172070000Y-82780000D01*
X172030000Y-80645000D02*
X172030000Y-82780000D01*
X168244759Y-81666000D02*
X168244759Y-82296000D01*
X173631000Y-84860000D02*
X173631000Y-86200000D01*
X172871000Y-84860000D02*
X172871000Y-86716000D01*
X174271000Y-82239000D02*
X174271000Y-85401000D01*
X172591000Y-84860000D02*
X172591000Y-86838000D01*
X172991000Y-84860000D02*
X172991000Y-86654000D01*
X172831000Y-80904000D02*
X172831000Y-82780000D01*
X172591000Y-80802000D02*
X172591000Y-82780000D01*
X173951000Y-81776000D02*
X173951000Y-85864000D01*
X172271000Y-84860000D02*
X172271000Y-86941000D01*
X172951000Y-84860000D02*
X172951000Y-86676000D01*
X174591000Y-83018000D02*
X174591000Y-84622000D01*
X172671000Y-84860000D02*
X172671000Y-86806000D01*
X167929759Y-81981000D02*
X168559759Y-81981000D01*
X174391000Y-82470000D02*
X174391000Y-85170000D01*
X172911000Y-80944000D02*
X172911000Y-82780000D01*
X173231000Y-81130000D02*
X173231000Y-82780000D01*
X173311000Y-84860000D02*
X173311000Y-86456000D01*
X173991000Y-81825000D02*
X173991000Y-85815000D01*
X172871000Y-80924000D02*
X172871000Y-82780000D01*
X174671000Y-83418000D02*
X174671000Y-84222000D01*
X171630000Y-80596000D02*
X171630000Y-87044000D01*
X172351000Y-84860000D02*
X172351000Y-86918000D01*
X171670000Y-84860000D02*
X171670000Y-87042000D01*
X172471000Y-80759000D02*
X172471000Y-82780000D01*
X172991000Y-80986000D02*
X172991000Y-82780000D01*
X172791000Y-80886000D02*
X172791000Y-82780000D01*
X171790000Y-80609000D02*
X171790000Y-82780000D01*
X171830000Y-80614000D02*
X171830000Y-82780000D01*
X174071000Y-81930000D02*
X174071000Y-85710000D01*
X173551000Y-84860000D02*
X173551000Y-86270000D01*
X173711000Y-81515000D02*
X173711000Y-82780000D01*
X172351000Y-80722000D02*
X172351000Y-82780000D01*
X171750000Y-84860000D02*
X171750000Y-87035000D01*
X172951000Y-80964000D02*
X172951000Y-82780000D01*
X173191000Y-84860000D02*
X173191000Y-86536000D01*
X173231000Y-84860000D02*
X173231000Y-86510000D01*
X173031000Y-81008000D02*
X173031000Y-82780000D01*
X173431000Y-84860000D02*
X173431000Y-86368000D01*
X172151000Y-80670000D02*
X172151000Y-82780000D01*
X173511000Y-81336000D02*
X173511000Y-82780000D01*
X172191000Y-80679000D02*
X172191000Y-82780000D01*
X171790000Y-84860000D02*
X171790000Y-87031000D01*
X174431000Y-82558000D02*
X174431000Y-85082000D01*
X173071000Y-81030000D02*
X173071000Y-82780000D01*
X172391000Y-84860000D02*
X172391000Y-86906000D01*
X172511000Y-80773000D02*
X172511000Y-82780000D01*
X173551000Y-81370000D02*
X173551000Y-82780000D01*
X173151000Y-84860000D02*
X173151000Y-86562000D01*
X171910000Y-80625000D02*
X171910000Y-82780000D01*
X173591000Y-84860000D02*
X173591000Y-86236000D01*
X171870000Y-80619000D02*
X171870000Y-82780000D01*
X172030000Y-84860000D02*
X172030000Y-86995000D01*
X173351000Y-84860000D02*
X173351000Y-86427000D01*
X173031000Y-84860000D02*
X173031000Y-86632000D01*
X172791000Y-84860000D02*
X172791000Y-86754000D01*
X172631000Y-80818000D02*
X172631000Y-82780000D01*
X171710000Y-84860000D02*
X171710000Y-87038000D01*
X171430000Y-80590000D02*
X171430000Y-87050000D01*
X174151000Y-82044000D02*
X174151000Y-85596000D01*
X172231000Y-84860000D02*
X172231000Y-86951000D01*
X172311000Y-80710000D02*
X172311000Y-82780000D01*
X172671000Y-80834000D02*
X172671000Y-82780000D01*
X173431000Y-81272000D02*
X173431000Y-82780000D01*
X173871000Y-81683000D02*
X173871000Y-85957000D01*
X173311000Y-81184000D02*
X173311000Y-82780000D01*
X172511000Y-84860000D02*
X172511000Y-86867000D01*
X174111000Y-81986000D02*
X174111000Y-85654000D01*
X173471000Y-84860000D02*
X173471000Y-86336000D01*
X174231000Y-82170000D02*
X174231000Y-85470000D01*
X171710000Y-80602000D02*
X171710000Y-82780000D01*
X173671000Y-81477000D02*
X173671000Y-82780000D01*
X172551000Y-84860000D02*
X172551000Y-86853000D01*
X172471000Y-84860000D02*
X172471000Y-86881000D01*
X172271000Y-80699000D02*
X172271000Y-82780000D01*
X171870000Y-84860000D02*
X171870000Y-87021000D01*
X172391000Y-80734000D02*
X172391000Y-82780000D01*
X173111000Y-81054000D02*
X173111000Y-82780000D01*
X172070000Y-84860000D02*
X172070000Y-86987000D01*
X173511000Y-84860000D02*
X173511000Y-86304000D01*
X173391000Y-81242000D02*
X173391000Y-82780000D01*
X173391000Y-84860000D02*
X173391000Y-86398000D01*
X173671000Y-84860000D02*
X173671000Y-86163000D01*
X171510000Y-80590000D02*
X171510000Y-87050000D01*
X171990000Y-80638000D02*
X171990000Y-82780000D01*
X173271000Y-81156000D02*
X173271000Y-82780000D01*
X174471000Y-82655000D02*
X174471000Y-84985000D01*
X173791000Y-81596000D02*
X173791000Y-86044000D01*
X173351000Y-81213000D02*
X173351000Y-82780000D01*
X173591000Y-81404000D02*
X173591000Y-82780000D01*
X173191000Y-81104000D02*
X173191000Y-82780000D01*
X172751000Y-84860000D02*
X172751000Y-86772000D01*
X174631000Y-83187000D02*
X174631000Y-84453000D01*
X171550000Y-80592000D02*
X171550000Y-87048000D01*
X172911000Y-84860000D02*
X172911000Y-86696000D01*
X172231000Y-80689000D02*
X172231000Y-82780000D01*
X174700000Y-83820000D02*
G75*
G03*
X174700000Y-83820000I-3270000J0D01*
G01*
%TO.C,5V1*%
X153377456Y-112371068D02*
G75*
G03*
X156609791Y-112214160I1560000J1235516D01*
G01*
X153896495Y-112215552D02*
G75*
G03*
X155978586Y-112215389I1040961J1080000D01*
G01*
X155978586Y-110055715D02*
G75*
G03*
X153896495Y-110055552I-1041130J-1079837D01*
G01*
X156609791Y-110056944D02*
G75*
G03*
X153377456Y-109900036I-1672335J-1078608D01*
G01*
X153377456Y-112215552D02*
X153377456Y-112371552D01*
X153377456Y-109899552D02*
X153377456Y-110055552D01*
%TO.C,R2.5K2*%
X154508893Y-95728358D02*
X154508893Y-96418358D01*
X156228893Y-96418358D02*
X152788893Y-96418358D01*
X152788893Y-105658358D02*
X156228893Y-105658358D01*
X152788893Y-96418358D02*
X152788893Y-105658358D01*
X156228893Y-105658358D02*
X156228893Y-96418358D01*
X154508893Y-106348358D02*
X154508893Y-105658358D01*
%TO.C,100uF1*%
X153900000Y-72930000D02*
X151751000Y-72930000D01*
X157656000Y-74171000D02*
X155980000Y-74171000D01*
X156779000Y-68909759D02*
X156779000Y-69539759D01*
X158090000Y-73131000D02*
X155980000Y-73131000D01*
X153900000Y-74371000D02*
X152362000Y-74371000D01*
X157283000Y-74651000D02*
X155980000Y-74651000D01*
X158107000Y-73050000D02*
X155980000Y-73050000D01*
X156716000Y-75131000D02*
X153164000Y-75131000D01*
X155999000Y-75491000D02*
X153881000Y-75491000D01*
X153900000Y-72850000D02*
X151739000Y-72850000D01*
X153900000Y-73811000D02*
X152024000Y-73811000D01*
X157576000Y-74291000D02*
X155980000Y-74291000D01*
X153900000Y-73050000D02*
X151773000Y-73050000D01*
X158001000Y-73451000D02*
X155980000Y-73451000D01*
X157836000Y-73851000D02*
X155980000Y-73851000D01*
X157356000Y-74571000D02*
X155980000Y-74571000D01*
X157077000Y-74851000D02*
X152803000Y-74851000D01*
X153900000Y-73211000D02*
X151809000Y-73211000D01*
X157856000Y-73811000D02*
X155980000Y-73811000D01*
X153900000Y-74251000D02*
X152276000Y-74251000D01*
X157706000Y-74091000D02*
X155980000Y-74091000D01*
X158115000Y-73010000D02*
X155980000Y-73010000D01*
X153900000Y-72810000D02*
X151734000Y-72810000D01*
X158122000Y-72970000D02*
X155980000Y-72970000D01*
X153900000Y-74131000D02*
X152198000Y-74131000D01*
X157874000Y-73771000D02*
X155980000Y-73771000D01*
X157032000Y-74891000D02*
X152848000Y-74891000D01*
X153900000Y-74651000D02*
X152597000Y-74651000D01*
X157910000Y-73691000D02*
X155980000Y-73691000D01*
X153900000Y-73531000D02*
X151907000Y-73531000D01*
X153900000Y-74691000D02*
X152635000Y-74691000D01*
X157488000Y-74411000D02*
X155980000Y-74411000D01*
X153900000Y-73691000D02*
X151970000Y-73691000D01*
X156449000Y-75291000D02*
X153431000Y-75291000D01*
X158141000Y-72850000D02*
X155980000Y-72850000D01*
X157122000Y-74811000D02*
X152758000Y-74811000D01*
X156935000Y-74971000D02*
X152945000Y-74971000D01*
X156290000Y-75371000D02*
X153590000Y-75371000D01*
X158162000Y-72650000D02*
X155980000Y-72650000D01*
X153900000Y-72730000D02*
X151725000Y-72730000D01*
X155742000Y-75571000D02*
X154138000Y-75571000D01*
X156774000Y-75091000D02*
X153106000Y-75091000D01*
X157973000Y-73531000D02*
X155980000Y-73531000D01*
X153900000Y-73851000D02*
X152044000Y-73851000D01*
X157456000Y-74451000D02*
X155980000Y-74451000D01*
X158164000Y-72610000D02*
X151716000Y-72610000D01*
X153900000Y-73411000D02*
X151866000Y-73411000D01*
X153900000Y-72970000D02*
X151758000Y-72970000D01*
X156984000Y-74931000D02*
X152896000Y-74931000D01*
X153900000Y-73971000D02*
X152106000Y-73971000D01*
X153900000Y-74091000D02*
X152174000Y-74091000D01*
X157518000Y-74371000D02*
X155980000Y-74371000D01*
X153900000Y-73090000D02*
X151781000Y-73090000D01*
X157245000Y-74691000D02*
X155980000Y-74691000D01*
X153900000Y-74011000D02*
X152128000Y-74011000D01*
X156202000Y-75411000D02*
X153678000Y-75411000D01*
X157942000Y-73611000D02*
X155980000Y-73611000D01*
X153900000Y-73731000D02*
X151988000Y-73731000D01*
X158168000Y-72530000D02*
X151712000Y-72530000D01*
X153900000Y-73451000D02*
X151879000Y-73451000D01*
X156830000Y-75051000D02*
X153050000Y-75051000D01*
X153900000Y-73891000D02*
X152064000Y-73891000D01*
X158151000Y-72770000D02*
X155980000Y-72770000D01*
X157958000Y-73571000D02*
X155980000Y-73571000D01*
X157682000Y-74131000D02*
X155980000Y-74131000D01*
X158146000Y-72810000D02*
X155980000Y-72810000D01*
X157164000Y-74771000D02*
X152716000Y-74771000D01*
X153900000Y-74331000D02*
X152333000Y-74331000D01*
X153900000Y-74571000D02*
X152524000Y-74571000D01*
X153900000Y-72690000D02*
X151722000Y-72690000D01*
X153900000Y-73651000D02*
X151954000Y-73651000D01*
X153900000Y-73771000D02*
X152006000Y-73771000D01*
X157604000Y-74251000D02*
X155980000Y-74251000D01*
X158155000Y-72730000D02*
X155980000Y-72730000D01*
X155880000Y-75531000D02*
X154000000Y-75531000D01*
X153900000Y-73251000D02*
X151819000Y-73251000D01*
X155573000Y-75611000D02*
X154307000Y-75611000D01*
X153900000Y-73131000D02*
X151790000Y-73131000D01*
X153900000Y-73331000D02*
X151842000Y-73331000D01*
X157796000Y-73931000D02*
X155980000Y-73931000D01*
X156654000Y-75171000D02*
X153226000Y-75171000D01*
X153900000Y-74411000D02*
X152392000Y-74411000D01*
X158026000Y-73371000D02*
X155980000Y-73371000D01*
X153900000Y-73010000D02*
X151765000Y-73010000D01*
X157926000Y-73651000D02*
X155980000Y-73651000D01*
X158129000Y-72930000D02*
X155980000Y-72930000D01*
X157205000Y-74731000D02*
X152675000Y-74731000D01*
X153900000Y-74491000D02*
X152456000Y-74491000D01*
X158135000Y-72890000D02*
X155980000Y-72890000D01*
X153900000Y-74051000D02*
X152150000Y-74051000D01*
X153900000Y-74211000D02*
X152250000Y-74211000D01*
X158014000Y-73411000D02*
X155980000Y-73411000D01*
X156372000Y-75331000D02*
X153508000Y-75331000D01*
X156884000Y-75011000D02*
X152996000Y-75011000D01*
X153900000Y-74531000D02*
X152490000Y-74531000D01*
X157892000Y-73731000D02*
X155980000Y-73731000D01*
X158071000Y-73211000D02*
X155980000Y-73211000D01*
X157816000Y-73891000D02*
X155980000Y-73891000D01*
X153900000Y-74611000D02*
X152560000Y-74611000D01*
X158099000Y-73090000D02*
X155980000Y-73090000D01*
X157987000Y-73491000D02*
X155980000Y-73491000D01*
X153900000Y-73571000D02*
X151922000Y-73571000D01*
X157730000Y-74051000D02*
X155980000Y-74051000D01*
X158167000Y-72570000D02*
X151713000Y-72570000D01*
X153900000Y-72650000D02*
X151718000Y-72650000D01*
X158170000Y-72450000D02*
X151710000Y-72450000D01*
X158170000Y-72410000D02*
X151710000Y-72410000D01*
X153900000Y-72770000D02*
X151729000Y-72770000D01*
X155342000Y-75651000D02*
X154538000Y-75651000D01*
X153900000Y-74291000D02*
X152304000Y-74291000D01*
X158061000Y-73251000D02*
X155980000Y-73251000D01*
X153900000Y-72890000D02*
X151745000Y-72890000D01*
X156590000Y-75211000D02*
X153290000Y-75211000D01*
X157094000Y-69224759D02*
X156464000Y-69224759D01*
X153900000Y-73931000D02*
X152084000Y-73931000D01*
X153900000Y-73291000D02*
X151830000Y-73291000D01*
X157547000Y-74331000D02*
X155980000Y-74331000D01*
X157630000Y-74211000D02*
X155980000Y-74211000D01*
X157320000Y-74611000D02*
X155980000Y-74611000D01*
X153900000Y-74451000D02*
X152424000Y-74451000D01*
X157390000Y-74531000D02*
X155980000Y-74531000D01*
X157774000Y-73971000D02*
X155980000Y-73971000D01*
X153900000Y-73371000D02*
X151854000Y-73371000D01*
X158158000Y-72690000D02*
X155980000Y-72690000D01*
X153900000Y-73611000D02*
X151938000Y-73611000D01*
X158038000Y-73331000D02*
X155980000Y-73331000D01*
X156105000Y-75451000D02*
X153775000Y-75451000D01*
X158170000Y-72490000D02*
X151710000Y-72490000D01*
X156521000Y-75251000D02*
X153359000Y-75251000D01*
X153900000Y-74171000D02*
X152224000Y-74171000D01*
X158050000Y-73291000D02*
X155980000Y-73291000D01*
X153900000Y-73171000D02*
X151799000Y-73171000D01*
X158081000Y-73171000D02*
X155980000Y-73171000D01*
X157752000Y-74011000D02*
X155980000Y-74011000D01*
X153900000Y-73491000D02*
X151893000Y-73491000D01*
X157424000Y-74491000D02*
X155980000Y-74491000D01*
X158210000Y-72410000D02*
G75*
G03*
X158210000Y-72410000I-3270000J0D01*
G01*
%TO.C,Speed1*%
X170680000Y-118140000D02*
X170680000Y-128140000D01*
X171180000Y-118140000D02*
X163940000Y-118140000D01*
X171180000Y-113140000D02*
X171180000Y-118140000D01*
X176630000Y-102400000D02*
X176630000Y-113140000D01*
X176630000Y-113140000D02*
X158490000Y-113140000D01*
X164440000Y-118140000D02*
X164440000Y-128140000D01*
X163940000Y-113140000D02*
X163940000Y-118140000D01*
X158490000Y-102400000D02*
X158490000Y-113140000D01*
X176630000Y-102400000D02*
X158490000Y-102400000D01*
X170680000Y-128140000D02*
X164440000Y-128140000D01*
%TO.C,LM7805*%
X162520000Y-94760000D02*
X172760000Y-94760000D01*
X165790000Y-93250000D02*
X165790000Y-94760000D01*
X162520000Y-93250000D02*
X172760000Y-93250000D01*
X169491000Y-93250000D02*
X169491000Y-94760000D01*
X162520000Y-97891000D02*
X172760000Y-97891000D01*
X162520000Y-93250000D02*
X162520000Y-97891000D01*
X172760000Y-93250000D02*
X172760000Y-97891000D01*
%TO.C,Nano1*%
X128265000Y-108460000D02*
X128265000Y-111000000D01*
X128265000Y-108460000D02*
X130935000Y-108460000D01*
X115565000Y-72900000D02*
X112895000Y-72900000D01*
X115565000Y-111000000D02*
X112895000Y-111000000D01*
X128265000Y-108460000D02*
X128265000Y-72900000D01*
X130935000Y-70230000D02*
X117975000Y-70230000D01*
X112895000Y-113670000D02*
X130935000Y-113670000D01*
X128265000Y-72900000D02*
X130935000Y-72900000D01*
X112895000Y-70230000D02*
X117975000Y-70230000D01*
X115565000Y-111000000D02*
X115565000Y-72900000D01*
X128265000Y-111000000D02*
X130935000Y-111000000D01*
X130935000Y-113670000D02*
X130935000Y-111000000D01*
X112895000Y-70230000D02*
X112895000Y-113670000D01*
X130935000Y-108460000D02*
X130935000Y-70230000D01*
%TO.C,R10K1*%
X151333593Y-105658358D02*
X151333593Y-96418358D01*
X149613593Y-95728358D02*
X149613593Y-96418358D01*
X149613593Y-106348358D02*
X149613593Y-105658358D01*
X147893593Y-105658358D02*
X151333593Y-105658358D01*
X147893593Y-96418358D02*
X147893593Y-105658358D01*
X151333593Y-96418358D02*
X147893593Y-96418358D01*
%TO.C,1N4007*%
X178366268Y-93752246D02*
X182206268Y-93752246D01*
X178366268Y-92372246D02*
X182206268Y-92372246D01*
X178366268Y-92612246D02*
X182206268Y-92612246D01*
X178366268Y-85912246D02*
X178366268Y-93752246D01*
X178366268Y-92492246D02*
X182206268Y-92492246D01*
X180286268Y-96012246D02*
X180286268Y-93752246D01*
X182206268Y-85912246D02*
X178366268Y-85912246D01*
X180286268Y-83652246D02*
X180286268Y-85912246D01*
X182206268Y-93752246D02*
X182206268Y-85912246D01*
%TO.C,G\u002A\u002A\u002A*%
G36*
X127361390Y-87579693D02*
G01*
X127361390Y-101768375D01*
X127268124Y-101768375D01*
X127167394Y-101775902D01*
X127043144Y-101796456D01*
X126909646Y-101826996D01*
X126781173Y-101864484D01*
X126726131Y-101883810D01*
X126503438Y-101988526D01*
X126293908Y-102128514D01*
X126102805Y-102298742D01*
X125935391Y-102494182D01*
X125796932Y-102709804D01*
X125738378Y-102827664D01*
X125666000Y-103018630D01*
X125620130Y-103214645D01*
X125598333Y-103427948D01*
X125595701Y-103544527D01*
X125612426Y-103806759D01*
X125663803Y-104049946D01*
X125751334Y-104277828D01*
X125876516Y-104494141D01*
X126040850Y-104702625D01*
X126075341Y-104740292D01*
X126236557Y-104890623D01*
X126419330Y-105022992D01*
X126616003Y-105133730D01*
X126818920Y-105219166D01*
X127020425Y-105275633D01*
X127212861Y-105299461D01*
X127243323Y-105300002D01*
X127361390Y-105300146D01*
X127361390Y-106819628D01*
X116725012Y-106819628D01*
X116725012Y-105300146D01*
X116843080Y-105300002D01*
X117021272Y-105283511D01*
X117213721Y-105236763D01*
X117411261Y-105163233D01*
X117604724Y-105066394D01*
X117784941Y-104949720D01*
X117803023Y-104936233D01*
X117931259Y-104827377D01*
X118053307Y-104701705D01*
X118163779Y-104566594D01*
X118257287Y-104429421D01*
X118328443Y-104297563D01*
X118371857Y-104178396D01*
X118378222Y-104148794D01*
X118388928Y-104098406D01*
X118398759Y-104067757D01*
X118399192Y-104067007D01*
X118407643Y-104040970D01*
X118421528Y-103985851D01*
X118438063Y-103912805D01*
X118440596Y-103901011D01*
X118465823Y-103720201D01*
X118470949Y-103520229D01*
X118457273Y-103312344D01*
X118426094Y-103107793D01*
X118378712Y-102917822D01*
X118316423Y-102753678D01*
X118305524Y-102731283D01*
X118221980Y-102590462D01*
X118111301Y-102441562D01*
X117982374Y-102296223D01*
X117943364Y-102256917D01*
X117760713Y-102103519D01*
X117553267Y-101974456D01*
X117329819Y-101873780D01*
X117099163Y-101805546D01*
X116899716Y-101775745D01*
X116725012Y-101762317D01*
X116725012Y-101111302D01*
X117130225Y-101111302D01*
X119579175Y-101111302D01*
X119579175Y-100495295D01*
X118470364Y-100495295D01*
X118470364Y-100437619D01*
X118480755Y-100379315D01*
X118499481Y-100340085D01*
X118510650Y-100327857D01*
X118527423Y-100318313D01*
X118554741Y-100311043D01*
X118597545Y-100305639D01*
X118660774Y-100301690D01*
X118749370Y-100298786D01*
X118868273Y-100296518D01*
X119022423Y-100294476D01*
X119053887Y-100294105D01*
X119579175Y-100287984D01*
X119579175Y-99715020D01*
X119090721Y-99715020D01*
X118935771Y-99715198D01*
X118816053Y-99716043D01*
X118725731Y-99718018D01*
X118658971Y-99721589D01*
X118609937Y-99727220D01*
X118572795Y-99735376D01*
X118541709Y-99746522D01*
X118510844Y-99761122D01*
X118510648Y-99761221D01*
X118451401Y-99797699D01*
X118406889Y-99844822D01*
X118364784Y-99916116D01*
X118358948Y-99927657D01*
X118298867Y-100047892D01*
X118274705Y-99952733D01*
X118237332Y-99855249D01*
X118179010Y-99788864D01*
X118092634Y-99746879D01*
X118042915Y-99734202D01*
X117956688Y-99723381D01*
X117846107Y-99719400D01*
X117725112Y-99721754D01*
X117607643Y-99729942D01*
X117507640Y-99743459D01*
X117457007Y-99755352D01*
X117372353Y-99798375D01*
X117289898Y-99868777D01*
X117221660Y-99954060D01*
X117179657Y-100041725D01*
X117178827Y-100044619D01*
X117170078Y-100095763D01*
X117161700Y-100182349D01*
X117154051Y-100298751D01*
X117147493Y-100439344D01*
X117142386Y-100598501D01*
X117141767Y-100623630D01*
X117130225Y-101111302D01*
X116725012Y-101111302D01*
X116725012Y-99427551D01*
X117135683Y-99427551D01*
X119579175Y-99427551D01*
X119579175Y-98339273D01*
X119086370Y-98339273D01*
X119086370Y-98811544D01*
X118552498Y-98811544D01*
X118552498Y-98421407D01*
X118100760Y-98421407D01*
X118100760Y-98811544D01*
X117607955Y-98811544D01*
X117607955Y-98380340D01*
X117135683Y-98380340D01*
X117135683Y-99427551D01*
X116725012Y-99427551D01*
X116725012Y-98154471D01*
X117135683Y-98154471D01*
X119579175Y-98154471D01*
X119579175Y-97148327D01*
X119086370Y-97148327D01*
X119086370Y-97538464D01*
X117135683Y-97538464D01*
X117135683Y-98154471D01*
X116725012Y-98154471D01*
X116725012Y-96306494D01*
X117094879Y-96306494D01*
X117099328Y-96439103D01*
X117117214Y-96552721D01*
X117124559Y-96578616D01*
X117189394Y-96728332D01*
X117278641Y-96846079D01*
X117395089Y-96934798D01*
X117512113Y-96987701D01*
X117542739Y-96997379D01*
X117576761Y-97005170D01*
X117618607Y-97011237D01*
X117672707Y-97015744D01*
X117743491Y-97018853D01*
X117835387Y-97020728D01*
X117952825Y-97021530D01*
X118100234Y-97021423D01*
X118282043Y-97020569D01*
X118388230Y-97019907D01*
X118589860Y-97018410D01*
X118754654Y-97016690D01*
X118886842Y-97014544D01*
X118990656Y-97011768D01*
X119070327Y-97008159D01*
X119130085Y-97003516D01*
X119174161Y-96997635D01*
X119206786Y-96990313D01*
X119232191Y-96981347D01*
X119237049Y-96979216D01*
X119367609Y-96902100D01*
X119469779Y-96799361D01*
X119542525Y-96680462D01*
X119571804Y-96618731D01*
X119591103Y-96567911D01*
X119602493Y-96516524D01*
X119608049Y-96453089D01*
X119609842Y-96366127D01*
X119609976Y-96306883D01*
X119609125Y-96200877D01*
X119605360Y-96124560D01*
X119596859Y-96066567D01*
X119581803Y-96015534D01*
X119558371Y-95960097D01*
X119552348Y-95947114D01*
X119490956Y-95833992D01*
X119421633Y-95746762D01*
X119338069Y-95681836D01*
X119233955Y-95635626D01*
X119102984Y-95604545D01*
X118938847Y-95585004D01*
X118911948Y-95582918D01*
X118789405Y-95576198D01*
X118645954Y-95572070D01*
X118488162Y-95570371D01*
X118322591Y-95570938D01*
X118155806Y-95573606D01*
X117994371Y-95578212D01*
X117844850Y-95584593D01*
X117713807Y-95592584D01*
X117607807Y-95602022D01*
X117533413Y-95612744D01*
X117512415Y-95617816D01*
X117399496Y-95670316D01*
X117292858Y-95753006D01*
X117204125Y-95855362D01*
X117155128Y-95941376D01*
X117123483Y-96042966D01*
X117103166Y-96169560D01*
X117094879Y-96306494D01*
X116725012Y-96306494D01*
X116725012Y-95148222D01*
X117134920Y-95148222D01*
X118280047Y-95304013D01*
X118494563Y-95333056D01*
X118698717Y-95360424D01*
X118888545Y-95385603D01*
X119060085Y-95408081D01*
X119209376Y-95427345D01*
X119332454Y-95442883D01*
X119425358Y-95454181D01*
X119484125Y-95460726D01*
X119502175Y-95462190D01*
X119579175Y-95464576D01*
X119579175Y-95177106D01*
X120852255Y-95177106D01*
X123295748Y-95177106D01*
X123295748Y-94561100D01*
X122269070Y-94561100D01*
X122269070Y-94355764D01*
X123295748Y-94355764D01*
X123295748Y-93739758D01*
X120852255Y-93739758D01*
X120852255Y-94355764D01*
X121735198Y-94355764D01*
X121735198Y-94561100D01*
X120852255Y-94561100D01*
X120852255Y-95177106D01*
X119579175Y-95177106D01*
X119579175Y-94831722D01*
X119399507Y-94818553D01*
X119313001Y-94812094D01*
X119238519Y-94806320D01*
X119188361Y-94802193D01*
X119178771Y-94801309D01*
X119154910Y-94793098D01*
X119141200Y-94767969D01*
X119133885Y-94716191D01*
X119131539Y-94678919D01*
X119131236Y-94602763D01*
X119140789Y-94561823D01*
X119152072Y-94551985D01*
X119183149Y-94546948D01*
X119244809Y-94540468D01*
X119326641Y-94533563D01*
X119378973Y-94529783D01*
X119579175Y-94516200D01*
X119579175Y-93880976D01*
X119491908Y-93893920D01*
X119455508Y-93899338D01*
X119382522Y-93910218D01*
X119276982Y-93925959D01*
X119142918Y-93945958D01*
X118984362Y-93969616D01*
X118805345Y-93996329D01*
X118609898Y-94025498D01*
X118402052Y-94056519D01*
X118275295Y-94075440D01*
X117145950Y-94244014D01*
X117134920Y-95148222D01*
X116725012Y-95148222D01*
X116725012Y-93739758D01*
X117135683Y-93739758D01*
X119584287Y-93739758D01*
X119577094Y-93280075D01*
X120851491Y-93280075D01*
X122006885Y-93435917D01*
X122221987Y-93464811D01*
X122426411Y-93492042D01*
X122616259Y-93517106D01*
X122787634Y-93539499D01*
X122936636Y-93558716D01*
X123059369Y-93574255D01*
X123151932Y-93585611D01*
X123210430Y-93592281D01*
X123229014Y-93593891D01*
X123295748Y-93596023D01*
X123295748Y-92963169D01*
X123116079Y-92950000D01*
X123029573Y-92943541D01*
X122955092Y-92937767D01*
X122904934Y-92933640D01*
X122895344Y-92932756D01*
X122872312Y-92925575D01*
X122859893Y-92903394D01*
X122854956Y-92856514D01*
X122854276Y-92805481D01*
X122855909Y-92736224D01*
X122862892Y-92698274D01*
X122878355Y-92681931D01*
X122895344Y-92678206D01*
X122933984Y-92674888D01*
X123001288Y-92669586D01*
X123084956Y-92663259D01*
X123116079Y-92660962D01*
X123295748Y-92647793D01*
X123295748Y-92012423D01*
X123198796Y-92026962D01*
X123160448Y-92032704D01*
X123085581Y-92043907D01*
X122978290Y-92059958D01*
X122842673Y-92080244D01*
X122682826Y-92104153D01*
X122502845Y-92131071D01*
X122306826Y-92160387D01*
X122098865Y-92191487D01*
X121982184Y-92208936D01*
X120862522Y-92376370D01*
X120857007Y-92828223D01*
X120851491Y-93280075D01*
X119577094Y-93280075D01*
X119575665Y-93188725D01*
X119567042Y-92637693D01*
X119506375Y-92516465D01*
X119463869Y-92441702D01*
X119417607Y-92387790D01*
X119359358Y-92350289D01*
X119280890Y-92324759D01*
X119173973Y-92306761D01*
X119102672Y-92298729D01*
X119023144Y-92293142D01*
X118914310Y-92289113D01*
X118782092Y-92286555D01*
X118632411Y-92285384D01*
X118471187Y-92285513D01*
X118304341Y-92286858D01*
X118137796Y-92289331D01*
X117977472Y-92292849D01*
X117829290Y-92297324D01*
X117699172Y-92302673D01*
X117593038Y-92308808D01*
X117516810Y-92315644D01*
X117479059Y-92322205D01*
X117383324Y-92369195D01*
X117294950Y-92444410D01*
X117227581Y-92535495D01*
X117214467Y-92561871D01*
X117186715Y-92651293D01*
X117164868Y-92780030D01*
X117149054Y-92946740D01*
X117139401Y-93150080D01*
X117136039Y-93385554D01*
X117135683Y-93739758D01*
X116725012Y-93739758D01*
X116725012Y-92035473D01*
X117135683Y-92035473D01*
X119579175Y-92035473D01*
X119579175Y-91419467D01*
X117135683Y-91419467D01*
X117135683Y-92035473D01*
X116725012Y-92035473D01*
X116725012Y-91131997D01*
X117135683Y-91131997D01*
X119579175Y-91131997D01*
X119579175Y-90619318D01*
X119019636Y-90613855D01*
X118460097Y-90608391D01*
X119568909Y-90274843D01*
X119571331Y-90160895D01*
X120852255Y-90160895D01*
X121114058Y-90194923D01*
X121696720Y-90262567D01*
X122253670Y-90312928D01*
X122362844Y-90321875D01*
X122455342Y-90330359D01*
X122524472Y-90337693D01*
X122563541Y-90343189D01*
X122569711Y-90345395D01*
X122548276Y-90348678D01*
X122490496Y-90354785D01*
X122400969Y-90363303D01*
X122284288Y-90373818D01*
X122145051Y-90385915D01*
X121987852Y-90399182D01*
X121817288Y-90413202D01*
X121815104Y-90413380D01*
X121639151Y-90427749D01*
X121471944Y-90441582D01*
X121318933Y-90454415D01*
X121185567Y-90465784D01*
X121077297Y-90475225D01*
X120999570Y-90482273D01*
X120960057Y-90486207D01*
X120852255Y-90498412D01*
X120852255Y-90814813D01*
X120852453Y-90934988D01*
X120853634Y-91020345D01*
X120856681Y-91077130D01*
X120862476Y-91111593D01*
X120871901Y-91129982D01*
X120885840Y-91138543D01*
X120898456Y-91141967D01*
X120942959Y-91149789D01*
X121021911Y-91161054D01*
X121128908Y-91175015D01*
X121257545Y-91190923D01*
X121401420Y-91208032D01*
X121554128Y-91225594D01*
X121709265Y-91242861D01*
X121860427Y-91259087D01*
X122001210Y-91273522D01*
X122125211Y-91285421D01*
X122135385Y-91286347D01*
X122253973Y-91297503D01*
X122357745Y-91308067D01*
X122440049Y-91317294D01*
X122494235Y-91324444D01*
X122513545Y-91328560D01*
X122504200Y-91335712D01*
X122482961Y-91337394D01*
X122454126Y-91338997D01*
X122389134Y-91343535D01*
X122292760Y-91350646D01*
X122169783Y-91359967D01*
X122024980Y-91371137D01*
X121863126Y-91383792D01*
X121689000Y-91397570D01*
X121673597Y-91398797D01*
X121499327Y-91412632D01*
X121337516Y-91425386D01*
X121192830Y-91436699D01*
X121069940Y-91446210D01*
X120973514Y-91453556D01*
X120908219Y-91458378D01*
X120878724Y-91460314D01*
X120877922Y-91460335D01*
X120867396Y-91471037D01*
X120859946Y-91505931D01*
X120855197Y-91569489D01*
X120852773Y-91666180D01*
X120852255Y-91765689D01*
X120852412Y-91883260D01*
X120853504Y-91965762D01*
X120856461Y-92019196D01*
X120862215Y-92049561D01*
X120871697Y-92062854D01*
X120885838Y-92065077D01*
X120898456Y-92063348D01*
X120926998Y-92059636D01*
X120992497Y-92051654D01*
X121091115Y-92039855D01*
X121219014Y-92024691D01*
X121372356Y-92006615D01*
X121547304Y-91986080D01*
X121740019Y-91963539D01*
X121946663Y-91939444D01*
X122092681Y-91922460D01*
X122305868Y-91897745D01*
X122507168Y-91874516D01*
X122692826Y-91853197D01*
X122859083Y-91834216D01*
X123002185Y-91817999D01*
X123118374Y-91804972D01*
X123203893Y-91795562D01*
X123254987Y-91790194D01*
X123268227Y-91789070D01*
X123278148Y-91781481D01*
X123285490Y-91755578D01*
X123290587Y-91706662D01*
X123293770Y-91630032D01*
X123295376Y-91520988D01*
X123295748Y-91401159D01*
X123295623Y-91266158D01*
X123294817Y-91166616D01*
X123292678Y-91096925D01*
X123288558Y-91051475D01*
X123281806Y-91024660D01*
X123271772Y-91010869D01*
X123257808Y-91004496D01*
X123249547Y-91002432D01*
X123217683Y-90996957D01*
X123150797Y-90986903D01*
X123054584Y-90973075D01*
X122934733Y-90956278D01*
X122796938Y-90937319D01*
X122646890Y-90917003D01*
X122628407Y-90914522D01*
X122479129Y-90894112D01*
X122343128Y-90874764D01*
X122225727Y-90857296D01*
X122132255Y-90842526D01*
X122068035Y-90831272D01*
X122038393Y-90824352D01*
X122037239Y-90823722D01*
X122049281Y-90815839D01*
X122094516Y-90805215D01*
X122165295Y-90793391D01*
X122232308Y-90784448D01*
X122343010Y-90770185D01*
X122475710Y-90751729D01*
X122620988Y-90730525D01*
X122769426Y-90708019D01*
X122911604Y-90685655D01*
X123038104Y-90664879D01*
X123139507Y-90647135D01*
X123187947Y-90637822D01*
X123295748Y-90615747D01*
X123295748Y-89840900D01*
X123208480Y-89828679D01*
X123171412Y-89823987D01*
X123097766Y-89815105D01*
X122991765Y-89802529D01*
X122857631Y-89786753D01*
X122699585Y-89768271D01*
X122521850Y-89747579D01*
X122328647Y-89725170D01*
X122124198Y-89701540D01*
X122063735Y-89694567D01*
X121857244Y-89670722D01*
X121661119Y-89647993D01*
X121479531Y-89626868D01*
X121316650Y-89607836D01*
X121176646Y-89591385D01*
X121063689Y-89578006D01*
X120981951Y-89568186D01*
X120935600Y-89562415D01*
X120929256Y-89561551D01*
X120852255Y-89550428D01*
X120852255Y-90160895D01*
X119571331Y-90160895D01*
X119574638Y-90005279D01*
X119580367Y-89735716D01*
X117135683Y-89735716D01*
X117135683Y-90248383D01*
X117684956Y-90253852D01*
X118234228Y-90259321D01*
X117684956Y-90442471D01*
X117135683Y-90625620D01*
X117135683Y-91131997D01*
X116725012Y-91131997D01*
X116725012Y-88774225D01*
X117096394Y-88774225D01*
X117103305Y-88901741D01*
X117119695Y-89017968D01*
X117144746Y-89109563D01*
X117150031Y-89122222D01*
X117200443Y-89210982D01*
X117268086Y-89298960D01*
X117341978Y-89373465D01*
X117407778Y-89420113D01*
X117443368Y-89436472D01*
X117483612Y-89449880D01*
X117532679Y-89460599D01*
X117594736Y-89468887D01*
X117673954Y-89475003D01*
X117774501Y-89479208D01*
X117900545Y-89481759D01*
X118056255Y-89482918D01*
X118245801Y-89482942D01*
X118408763Y-89482389D01*
X118607600Y-89481435D01*
X118769736Y-89480314D01*
X118899540Y-89478790D01*
X119001379Y-89476626D01*
X119079619Y-89473587D01*
X119138628Y-89469435D01*
X119182774Y-89463934D01*
X119216423Y-89456848D01*
X119243943Y-89447940D01*
X119269700Y-89436975D01*
X119272607Y-89435636D01*
X119317428Y-89407179D01*
X120852255Y-89407179D01*
X123295748Y-89407179D01*
X123295748Y-88791172D01*
X122777276Y-88790548D01*
X122636747Y-88789738D01*
X122513498Y-88787784D01*
X122412433Y-88784863D01*
X122338456Y-88781154D01*
X122296474Y-88776835D01*
X122289604Y-88772820D01*
X122317491Y-88763291D01*
X122379420Y-88745639D01*
X122469521Y-88721419D01*
X122581926Y-88692189D01*
X122710766Y-88659505D01*
X122808076Y-88635286D01*
X123295748Y-88514854D01*
X123295748Y-87872922D01*
X122627812Y-88073608D01*
X121959877Y-88274294D01*
X121411627Y-88091262D01*
X121269668Y-88043939D01*
X121140935Y-88001159D01*
X121030415Y-87964567D01*
X120943093Y-87935811D01*
X120883957Y-87916537D01*
X120857992Y-87908390D01*
X120857253Y-87908230D01*
X120855445Y-87927543D01*
X120854640Y-87980628D01*
X120854847Y-88060200D01*
X120856078Y-88158976D01*
X120856825Y-88200456D01*
X120862522Y-88492683D01*
X121320497Y-88629342D01*
X121450991Y-88668646D01*
X121568093Y-88704611D01*
X121666131Y-88735439D01*
X121739433Y-88759331D01*
X121782328Y-88774488D01*
X121791058Y-88778587D01*
X121775146Y-88782144D01*
X121723678Y-88785312D01*
X121642168Y-88787940D01*
X121536126Y-88789878D01*
X121411064Y-88790978D01*
X121327949Y-88791172D01*
X120852255Y-88791172D01*
X120852255Y-89407179D01*
X119317428Y-89407179D01*
X119399111Y-89355319D01*
X119500330Y-89245801D01*
X119572467Y-89112880D01*
X119611725Y-88962352D01*
X119616799Y-88910138D01*
X119609239Y-88774981D01*
X119571540Y-88658637D01*
X119505960Y-88566965D01*
X119474118Y-88539756D01*
X119434891Y-88506753D01*
X119415386Y-88482499D01*
X119414907Y-88480132D01*
X119432612Y-88465027D01*
X119476991Y-88446164D01*
X119497041Y-88439676D01*
X119579175Y-88415068D01*
X119579175Y-88031431D01*
X118265028Y-88031431D01*
X118265028Y-88770639D01*
X118634632Y-88770639D01*
X118634632Y-88621946D01*
X118893942Y-88630579D01*
X119002157Y-88634676D01*
X119077052Y-88639460D01*
X119126366Y-88646403D01*
X119157840Y-88656976D01*
X119179212Y-88672649D01*
X119192154Y-88687254D01*
X119218643Y-88748715D01*
X119207030Y-88812234D01*
X119185723Y-88842506D01*
X119160082Y-88848144D01*
X119095606Y-88853308D01*
X118994527Y-88857926D01*
X118859075Y-88861925D01*
X118691481Y-88865233D01*
X118493976Y-88867779D01*
X118369806Y-88868855D01*
X118167558Y-88870249D01*
X118002331Y-88871079D01*
X117870082Y-88871185D01*
X117766766Y-88870405D01*
X117688339Y-88868577D01*
X117630758Y-88865540D01*
X117589979Y-88861132D01*
X117561957Y-88855191D01*
X117542649Y-88847557D01*
X117528011Y-88838066D01*
X117524218Y-88835071D01*
X117491036Y-88800457D01*
X117487837Y-88763787D01*
X117495618Y-88737736D01*
X117512850Y-88703440D01*
X117540881Y-88679405D01*
X117586459Y-88663786D01*
X117656332Y-88654739D01*
X117757250Y-88650418D01*
X117818424Y-88649484D01*
X118018626Y-88647437D01*
X118018626Y-88031431D01*
X117859491Y-88031859D01*
X117700650Y-88040373D01*
X117557915Y-88063809D01*
X117439912Y-88100333D01*
X117372558Y-88135394D01*
X117295478Y-88204272D01*
X117221700Y-88300050D01*
X117160054Y-88408938D01*
X117119375Y-88517142D01*
X117114281Y-88538687D01*
X117099780Y-88648759D01*
X117096394Y-88774225D01*
X116725012Y-88774225D01*
X116725012Y-87579693D01*
X127361390Y-87579693D01*
G37*
G36*
X122425995Y-92709143D02*
G01*
X122432348Y-92741037D01*
X122433339Y-92804625D01*
X122433339Y-92918416D01*
X122325538Y-92916297D01*
X122270063Y-92913018D01*
X122182810Y-92905228D01*
X122072708Y-92893845D01*
X121948684Y-92879783D01*
X121837866Y-92866268D01*
X121716055Y-92851027D01*
X121607255Y-92837644D01*
X121518441Y-92826960D01*
X121456590Y-92819813D01*
X121428906Y-92817052D01*
X121408698Y-92810360D01*
X121410150Y-92805415D01*
X121432741Y-92800631D01*
X121490229Y-92793000D01*
X121576592Y-92783188D01*
X121685810Y-92771866D01*
X121811863Y-92759701D01*
X121870444Y-92754314D01*
X122005443Y-92741865D01*
X122129516Y-92730018D01*
X122235807Y-92719457D01*
X122317459Y-92710872D01*
X122367616Y-92704948D01*
X122376871Y-92703559D01*
X122409197Y-92699724D01*
X122425995Y-92709143D01*
G37*
G36*
X118707187Y-94578898D02*
G01*
X118712784Y-94603321D01*
X118716234Y-94654642D01*
X118716766Y-94687723D01*
X118716766Y-94786969D01*
X118598698Y-94784897D01*
X118539123Y-94781517D01*
X118448283Y-94773455D01*
X118335590Y-94761681D01*
X118210456Y-94747164D01*
X118111027Y-94734659D01*
X117990909Y-94719148D01*
X117883823Y-94705590D01*
X117796853Y-94694860D01*
X117737085Y-94687833D01*
X117712334Y-94685396D01*
X117692409Y-94678636D01*
X117694090Y-94673455D01*
X117716988Y-94668269D01*
X117773798Y-94660474D01*
X117857704Y-94650706D01*
X117961886Y-94639602D01*
X118079529Y-94627797D01*
X118203816Y-94615929D01*
X118327928Y-94604633D01*
X118445048Y-94594546D01*
X118548360Y-94586304D01*
X118631045Y-94580543D01*
X118686288Y-94577899D01*
X118707187Y-94578898D01*
G37*
G36*
X118545458Y-92918492D02*
G01*
X118708913Y-92919171D01*
X118839205Y-92921122D01*
X118940286Y-92925017D01*
X119016109Y-92931528D01*
X119070625Y-92941325D01*
X119107787Y-92955081D01*
X119131546Y-92973467D01*
X119145854Y-92997154D01*
X119154664Y-93026814D01*
X119160743Y-93057017D01*
X119173638Y-93123751D01*
X117546354Y-93123751D01*
X117546354Y-93062150D01*
X117560278Y-93001859D01*
X117587421Y-92959483D01*
X117599867Y-92948558D01*
X117615906Y-92939763D01*
X117639785Y-92932867D01*
X117675754Y-92927639D01*
X117728061Y-92923850D01*
X117800955Y-92921269D01*
X117898685Y-92919665D01*
X118025500Y-92918809D01*
X118185647Y-92918470D01*
X118344888Y-92918416D01*
X118545458Y-92918492D01*
G37*
G36*
X118551012Y-96203855D02*
G01*
X118716327Y-96204199D01*
X118848573Y-96205012D01*
X118951748Y-96206490D01*
X119029851Y-96208826D01*
X119086881Y-96212217D01*
X119126836Y-96216858D01*
X119153716Y-96222945D01*
X119171519Y-96230673D01*
X119184244Y-96240237D01*
X119189038Y-96244851D01*
X119219185Y-96281625D01*
X119230105Y-96306451D01*
X119216852Y-96334778D01*
X119189038Y-96368052D01*
X119177154Y-96378526D01*
X119161844Y-96387051D01*
X119139070Y-96393826D01*
X119104798Y-96399053D01*
X119054990Y-96402931D01*
X118985612Y-96405662D01*
X118892626Y-96407445D01*
X118771996Y-96408481D01*
X118619687Y-96408970D01*
X118431662Y-96409113D01*
X118361998Y-96409119D01*
X118157773Y-96408934D01*
X117990690Y-96408279D01*
X117856824Y-96407003D01*
X117752250Y-96404955D01*
X117673045Y-96401985D01*
X117615284Y-96397941D01*
X117575042Y-96392673D01*
X117548396Y-96386029D01*
X117531420Y-96377860D01*
X117530389Y-96377154D01*
X117491434Y-96330135D01*
X117490776Y-96276315D01*
X117517020Y-96236050D01*
X117529359Y-96227779D01*
X117550773Y-96221027D01*
X117585106Y-96215647D01*
X117636200Y-96211487D01*
X117707897Y-96208401D01*
X117804040Y-96206238D01*
X117928471Y-96204849D01*
X118085033Y-96204086D01*
X118277569Y-96203799D01*
X118348629Y-96203783D01*
X118551012Y-96203855D01*
G37*
G36*
X117941487Y-100294200D02*
G01*
X118020466Y-100308793D01*
X118069758Y-100336547D01*
X118094704Y-100380273D01*
X118100760Y-100433694D01*
X118100760Y-100495295D01*
X117540981Y-100495295D01*
X117553465Y-100418362D01*
X117567124Y-100363907D01*
X117591927Y-100327174D01*
X117634974Y-100304836D01*
X117703369Y-100293564D01*
X117804213Y-100290031D01*
X117827482Y-100289960D01*
X117941487Y-100294200D01*
G37*
G36*
X124800229Y-75274196D02*
G01*
X124933166Y-75280192D01*
X125071498Y-75289222D01*
X125206154Y-75300513D01*
X125328059Y-75313295D01*
X125428140Y-75326796D01*
X125497324Y-75340246D01*
X125503104Y-75341815D01*
X125563491Y-75355999D01*
X125637474Y-75369570D01*
X125657106Y-75372547D01*
X125713491Y-75383123D01*
X125796726Y-75401709D01*
X125894478Y-75425220D01*
X125994411Y-75450573D01*
X126084192Y-75474685D01*
X126151487Y-75494471D01*
X126170445Y-75500884D01*
X126210690Y-75514524D01*
X126221778Y-75517824D01*
X126249469Y-75527048D01*
X126305350Y-75546695D01*
X126379039Y-75573099D01*
X126406580Y-75583064D01*
X126675915Y-75691939D01*
X126958181Y-75826312D01*
X127240978Y-75979357D01*
X127511907Y-76144247D01*
X127758569Y-76314156D01*
X127823395Y-76363088D01*
X127897326Y-76420669D01*
X127975443Y-76482320D01*
X128049569Y-76541495D01*
X128111528Y-76591647D01*
X128153142Y-76626229D01*
X128163419Y-76635311D01*
X128384893Y-76847419D01*
X128573666Y-77037317D01*
X128730818Y-77206144D01*
X128857430Y-77355043D01*
X128912211Y-77425853D01*
X128952063Y-77478378D01*
X128984046Y-77518661D01*
X128993808Y-77530002D01*
X129017609Y-77559916D01*
X129052610Y-77608455D01*
X129065675Y-77627396D01*
X129099909Y-77673051D01*
X129126127Y-77699917D01*
X129132409Y-77702916D01*
X129146094Y-77719756D01*
X129147809Y-77733856D01*
X129158897Y-77761182D01*
X129168343Y-77764656D01*
X129186560Y-77781288D01*
X129188876Y-77795457D01*
X129197292Y-77822818D01*
X129204397Y-77826257D01*
X129222733Y-77842956D01*
X129245093Y-77883131D01*
X129245184Y-77883336D01*
X129274979Y-77940143D01*
X129301918Y-77980870D01*
X129349830Y-78050212D01*
X129410272Y-78149532D01*
X129479225Y-78271225D01*
X129552666Y-78407685D01*
X129626575Y-78551306D01*
X129696932Y-78694484D01*
X129759715Y-78829612D01*
X129800954Y-78924802D01*
X129842708Y-79029442D01*
X129885770Y-79144468D01*
X129927552Y-79262140D01*
X129965468Y-79374715D01*
X129996933Y-79474454D01*
X130019360Y-79553616D01*
X130030162Y-79604458D01*
X130030752Y-79612641D01*
X130038241Y-79649949D01*
X130046799Y-79661237D01*
X130059276Y-79686634D01*
X130067669Y-79734710D01*
X130067946Y-79738085D01*
X130076464Y-79791302D01*
X130089909Y-79826543D01*
X130090193Y-79826913D01*
X130103954Y-79860171D01*
X130116683Y-79915348D01*
X130119173Y-79930946D01*
X130129670Y-79998418D01*
X130143858Y-80083073D01*
X130153230Y-80136281D01*
X130187131Y-80362819D01*
X130211891Y-80610316D01*
X130227471Y-80870212D01*
X130233833Y-81133950D01*
X130230936Y-81392969D01*
X130218743Y-81638710D01*
X130197216Y-81862614D01*
X130166314Y-82056123D01*
X130162016Y-82076702D01*
X130152198Y-82123685D01*
X130137742Y-82194363D01*
X130124179Y-82261504D01*
X130095789Y-82390380D01*
X130060966Y-82523209D01*
X130016576Y-82671050D01*
X129959485Y-82844961D01*
X129955476Y-82856795D01*
X129885297Y-83051144D01*
X129808009Y-83239191D01*
X129719893Y-83428462D01*
X129617229Y-83626479D01*
X129496298Y-83840766D01*
X129353380Y-84078847D01*
X129342878Y-84095914D01*
X129279352Y-84190517D01*
X129193070Y-84306858D01*
X129090230Y-84437554D01*
X128977034Y-84575223D01*
X128859681Y-84712483D01*
X128744372Y-84841951D01*
X128637308Y-84956246D01*
X128544687Y-85047984D01*
X128538153Y-85054066D01*
X128470694Y-85115891D01*
X128393863Y-85185350D01*
X128316586Y-85254478D01*
X128247786Y-85315311D01*
X128196388Y-85359883D01*
X128181522Y-85372344D01*
X128142291Y-85404598D01*
X128082600Y-85453791D01*
X128013641Y-85510699D01*
X127994695Y-85526346D01*
X127912379Y-85592340D01*
X127823372Y-85660588D01*
X127745770Y-85717239D01*
X127739804Y-85721407D01*
X127672951Y-85769545D01*
X127614295Y-85814694D01*
X127578771Y-85845055D01*
X127533326Y-85884281D01*
X127475735Y-85928217D01*
X127464058Y-85936466D01*
X127417210Y-85970218D01*
X127386438Y-85994650D01*
X127381924Y-85999124D01*
X127361981Y-86016084D01*
X127316562Y-86051458D01*
X127253302Y-86099365D01*
X127207389Y-86133581D01*
X127135088Y-86187534D01*
X127074098Y-86233762D01*
X127032777Y-86265895D01*
X127020843Y-86275813D01*
X126989296Y-86301588D01*
X126943505Y-86335802D01*
X126941261Y-86337413D01*
X126881943Y-86381379D01*
X126830071Y-86421626D01*
X126756202Y-86479764D01*
X126653642Y-86558957D01*
X126526739Y-86655870D01*
X126379842Y-86767170D01*
X126355247Y-86785733D01*
X126160178Y-86932886D01*
X121810287Y-86938161D01*
X117460397Y-86943436D01*
X117395570Y-86876561D01*
X117344340Y-86819922D01*
X117298321Y-86763047D01*
X117289680Y-86751168D01*
X117248358Y-86694045D01*
X117202060Y-86632374D01*
X117197284Y-86626166D01*
X117151869Y-86566518D01*
X117108973Y-86508940D01*
X117104883Y-86503346D01*
X117066200Y-86451670D01*
X117033015Y-86409343D01*
X116993366Y-86360772D01*
X116971415Y-86333830D01*
X116948347Y-86304005D01*
X116906313Y-86248290D01*
X116850692Y-86173864D01*
X116786867Y-86087910D01*
X116766247Y-86060032D01*
X116702104Y-85973619D01*
X116645552Y-85898153D01*
X116601598Y-85840262D01*
X116575248Y-85806573D01*
X116571178Y-85801797D01*
X116545177Y-85770249D01*
X116510797Y-85724625D01*
X116509410Y-85722710D01*
X116477971Y-85680395D01*
X116429970Y-85617124D01*
X116374097Y-85544327D01*
X116354605Y-85519118D01*
X116303240Y-85452402D01*
X116234140Y-85362042D01*
X116154282Y-85257195D01*
X116070645Y-85147016D01*
X116015838Y-85074600D01*
X115943384Y-84978981D01*
X115879368Y-84894961D01*
X115827927Y-84827935D01*
X115793202Y-84783297D01*
X115779529Y-84766597D01*
X115761487Y-84745167D01*
X115724914Y-84698478D01*
X115675673Y-84634305D01*
X115619629Y-84560426D01*
X115562647Y-84484616D01*
X115510590Y-84414652D01*
X115469324Y-84358310D01*
X115444711Y-84323366D01*
X115441665Y-84318580D01*
X115418116Y-84284647D01*
X115407801Y-84273792D01*
X115390177Y-84253382D01*
X115355272Y-84208356D01*
X115309798Y-84147425D01*
X115297075Y-84130057D01*
X115247324Y-84062885D01*
X115203810Y-84005918D01*
X115174590Y-83969664D01*
X115171137Y-83965788D01*
X115146570Y-83936445D01*
X115103770Y-83882688D01*
X115049220Y-83812903D01*
X114989401Y-83735476D01*
X114930795Y-83658790D01*
X114879884Y-83591232D01*
X114846192Y-83545430D01*
X114802044Y-83486152D01*
X114761715Y-83434468D01*
X114734721Y-83399642D01*
X114688678Y-83338852D01*
X114628912Y-83259187D01*
X114560751Y-83167733D01*
X114520627Y-83113646D01*
X114452306Y-83021577D01*
X114391561Y-82940073D01*
X114343037Y-82875336D01*
X114311377Y-82833570D01*
X114302234Y-82821910D01*
X114283683Y-82792298D01*
X114281520Y-82783807D01*
X114269632Y-82760572D01*
X114240497Y-82721067D01*
X114235319Y-82714733D01*
X114191274Y-82659664D01*
X114143860Y-82597771D01*
X114137785Y-82589606D01*
X114097337Y-82537117D01*
X114061785Y-82494430D01*
X114055651Y-82487721D01*
X114025666Y-82451395D01*
X113985677Y-82397398D01*
X113967956Y-82372027D01*
X113924768Y-82312196D01*
X113883265Y-82259824D01*
X113870422Y-82245242D01*
X113851438Y-82225341D01*
X113837097Y-82207891D01*
X113829939Y-82190397D01*
X113832505Y-82170362D01*
X113847338Y-82145292D01*
X113876978Y-82112691D01*
X113923967Y-82070062D01*
X113990845Y-82014910D01*
X114080154Y-81944739D01*
X114194435Y-81857053D01*
X114336229Y-81749358D01*
X114507389Y-81619679D01*
X114586249Y-81559883D01*
X114654738Y-81507905D01*
X114705273Y-81469505D01*
X114729723Y-81450861D01*
X114762135Y-81424054D01*
X114808290Y-81383892D01*
X114820036Y-81373428D01*
X114862188Y-81338049D01*
X114890995Y-81318179D01*
X114895438Y-81316632D01*
X114917141Y-81304268D01*
X114957784Y-81273376D01*
X114979660Y-81255251D01*
X115027556Y-81214940D01*
X115063759Y-81185135D01*
X115072061Y-81178578D01*
X115096478Y-81160154D01*
X115145568Y-81123211D01*
X115211168Y-81073893D01*
X115256598Y-81039758D01*
X115339336Y-80977604D01*
X115396779Y-80934443D01*
X115436463Y-80904599D01*
X115465926Y-80882393D01*
X115492704Y-80862152D01*
X115524335Y-80838196D01*
X115544333Y-80823046D01*
X115601417Y-80779229D01*
X115650744Y-80740412D01*
X115665938Y-80728063D01*
X115692055Y-80707506D01*
X115746358Y-80665602D01*
X115824314Y-80605819D01*
X115921388Y-80531628D01*
X116033045Y-80446497D01*
X116154753Y-80353897D01*
X116179277Y-80335260D01*
X116300652Y-80242869D01*
X116411238Y-80158363D01*
X116506844Y-80084969D01*
X116583278Y-80025918D01*
X116636348Y-79984439D01*
X116661863Y-79963762D01*
X116663411Y-79962265D01*
X116684755Y-79943405D01*
X116727616Y-79909873D01*
X116755794Y-79888793D01*
X116807872Y-79850397D01*
X116847403Y-79821221D01*
X116858462Y-79813042D01*
X116918283Y-79767488D01*
X116984581Y-79715163D01*
X117048575Y-79663239D01*
X117101481Y-79618886D01*
X117134517Y-79589274D01*
X117140502Y-79582754D01*
X117154291Y-79573049D01*
X117155902Y-79578209D01*
X117167655Y-79580540D01*
X117183627Y-79567942D01*
X117219380Y-79536855D01*
X117267079Y-79499996D01*
X117267429Y-79499741D01*
X117319015Y-79461092D01*
X117361201Y-79427874D01*
X117400379Y-79396625D01*
X117467921Y-79343904D01*
X117559466Y-79273048D01*
X117670654Y-79187399D01*
X117797126Y-79090295D01*
X117934521Y-78985076D01*
X118078478Y-78875082D01*
X118224639Y-78763652D01*
X118368642Y-78654127D01*
X118506128Y-78549845D01*
X118614099Y-78468209D01*
X118704797Y-78399471D01*
X118789088Y-78335077D01*
X118858891Y-78281237D01*
X118906126Y-78244156D01*
X118914005Y-78237788D01*
X118972996Y-78191154D01*
X119030994Y-78147698D01*
X119035419Y-78144527D01*
X119079710Y-78111349D01*
X119142843Y-78062089D01*
X119211971Y-78006787D01*
X119219358Y-78000792D01*
X119288393Y-77945433D01*
X119352877Y-77895018D01*
X119399945Y-77859591D01*
X119403482Y-77857057D01*
X119462212Y-77812317D01*
X119512975Y-77769790D01*
X119551378Y-77738408D01*
X119575881Y-77723714D01*
X119577040Y-77723564D01*
X119599544Y-77711542D01*
X119638275Y-77682151D01*
X119643998Y-77677364D01*
X119696570Y-77635183D01*
X119744048Y-77600388D01*
X119787590Y-77568795D01*
X119812694Y-77548124D01*
X119836459Y-77528795D01*
X119886800Y-77489584D01*
X119957474Y-77435298D01*
X120042238Y-77370742D01*
X120092514Y-77332668D01*
X120181089Y-77265495D01*
X120257777Y-77206906D01*
X120316725Y-77161407D01*
X120352080Y-77133503D01*
X120359450Y-77127177D01*
X120380773Y-77109205D01*
X120423599Y-77076288D01*
X120451851Y-77055280D01*
X120501453Y-77018087D01*
X120535975Y-76990872D01*
X120544252Y-76983493D01*
X120565968Y-76965301D01*
X120615225Y-76926993D01*
X120686441Y-76872725D01*
X120774032Y-76806657D01*
X120872414Y-76732945D01*
X120976004Y-76655746D01*
X121079219Y-76579218D01*
X121176474Y-76507519D01*
X121262186Y-76444806D01*
X121330773Y-76395235D01*
X121376649Y-76362966D01*
X121386128Y-76356644D01*
X121439821Y-76320758D01*
X121477924Y-76293130D01*
X121488795Y-76283554D01*
X121510276Y-76267176D01*
X121557539Y-76236213D01*
X121620981Y-76196924D01*
X121630863Y-76190961D01*
X122053136Y-75952497D01*
X122465392Y-75751695D01*
X122871227Y-75587472D01*
X123274235Y-75458746D01*
X123678012Y-75364433D01*
X124086153Y-75303451D01*
X124502255Y-75274716D01*
X124681762Y-75272003D01*
X124800229Y-75274196D01*
G37*
%TO.C,Accessory1*%
X134710000Y-99769486D02*
X135460000Y-99769486D01*
X135460000Y-94769486D02*
X135460000Y-92969486D01*
X134700000Y-92959486D02*
X134700000Y-103079486D01*
X134710000Y-96269486D02*
X134710000Y-99769486D01*
X134710000Y-101269486D02*
X134710000Y-103069486D01*
X139910000Y-102319486D02*
X139910000Y-98019486D01*
X136960000Y-92969486D02*
X136960000Y-93719486D01*
X134410000Y-102119486D02*
X134410000Y-103369486D01*
X135460000Y-103069486D02*
X135460000Y-101269486D01*
X134710000Y-103069486D02*
X135460000Y-103069486D01*
X134700000Y-103079486D02*
X140670000Y-103079486D01*
X136960000Y-103069486D02*
X136960000Y-102319486D01*
X139910000Y-93719486D02*
X139910000Y-98019486D01*
X140670000Y-92959486D02*
X134700000Y-92959486D01*
X135460000Y-99769486D02*
X135460000Y-96269486D01*
X135460000Y-101269486D02*
X134710000Y-101269486D01*
X136960000Y-93719486D02*
X139910000Y-93719486D01*
X135460000Y-92969486D02*
X134710000Y-92969486D01*
X134710000Y-92969486D02*
X134710000Y-94769486D01*
X140670000Y-103079486D02*
X140670000Y-92959486D01*
X135460000Y-96269486D02*
X134710000Y-96269486D01*
X136960000Y-102319486D02*
X139910000Y-102319486D01*
X134410000Y-103369486D02*
X135660000Y-103369486D01*
X134710000Y-94769486D02*
X135460000Y-94769486D01*
%TO.C,0.1uF1*%
X181710000Y-107720000D02*
X178970000Y-107720000D01*
X178970000Y-100480000D02*
X178970000Y-107720000D01*
X181710000Y-100480000D02*
X178970000Y-100480000D01*
X181710000Y-100480000D02*
X181710000Y-107720000D01*
%TD*%
%LPC*%
D13*
%TO.C,R1K1*%
X124460000Y-81280000D03*
D14*
X124460000Y-93980000D03*
%TD*%
D15*
%TO.C,Stepper1*%
X154940000Y-87570000D03*
D16*
X154940000Y-85070000D03*
X154940000Y-82570000D03*
X154940000Y-80070000D03*
%TD*%
D17*
%TO.C,12V1*%
X150771289Y-111135552D03*
D18*
X148231289Y-111135552D03*
%TD*%
D17*
%TO.C,Status1*%
X145399956Y-111135552D03*
D18*
X142859956Y-111135552D03*
%TD*%
D15*
%TO.C,BreakBeam1*%
X137160000Y-111760000D03*
D16*
X137160000Y-109260000D03*
X137160000Y-106760000D03*
%TD*%
D19*
%TO.C,10uF1*%
X165100000Y-83820000D03*
D13*
X162600000Y-83820000D03*
%TD*%
%TO.C,R2.5K1*%
X144412226Y-107395584D03*
D14*
X144412226Y-94695584D03*
%TD*%
D20*
%TO.C,REF\u002A\u002A*%
X165100000Y-71120000D03*
%TD*%
%TO.C,REF\u002A\u002A*%
X121920000Y-111760000D03*
%TD*%
D19*
%TO.C,DRV8825*%
X148580000Y-90170000D03*
D14*
X148580000Y-87630000D03*
X148580000Y-85090000D03*
X148580000Y-82550000D03*
X148580000Y-80010000D03*
X148580000Y-77470000D03*
X148580000Y-74930000D03*
X148580000Y-72390000D03*
X135880000Y-72390000D03*
X135880000Y-74930000D03*
X135880000Y-77470000D03*
X135880000Y-80010000D03*
X135880000Y-82550000D03*
X135880000Y-85090000D03*
X135880000Y-87630000D03*
X135880000Y-90170000D03*
D21*
X138420000Y-72390000D03*
X140960000Y-72390000D03*
%TD*%
D22*
%TO.C,12vInput1*%
X176977018Y-77824054D03*
D23*
X176977018Y-71824054D03*
X172277018Y-74824054D03*
%TD*%
D24*
%TO.C,100nF1*%
X170180000Y-83820000D03*
D13*
X172680000Y-83820000D03*
%TD*%
D17*
%TO.C,5V1*%
X156207456Y-111135552D03*
D18*
X153667456Y-111135552D03*
%TD*%
D13*
%TO.C,R2.5K2*%
X154508893Y-94688358D03*
D14*
X154508893Y-107388358D03*
%TD*%
D25*
%TO.C,100uF1*%
X154940000Y-71160000D03*
D13*
X154940000Y-73660000D03*
%TD*%
D26*
%TO.C,Speed1*%
X162560000Y-109220000D03*
D27*
X167560000Y-109220000D03*
X172560000Y-109220000D03*
%TD*%
D28*
%TO.C,LM7805*%
X165100000Y-96520000D03*
D29*
X167640000Y-96520000D03*
X170180000Y-96520000D03*
%TD*%
D19*
%TO.C,Nano1*%
X129535000Y-109730000D03*
D14*
X129535000Y-107190000D03*
X129535000Y-104650000D03*
X129535000Y-102110000D03*
X129535000Y-99570000D03*
X129535000Y-97030000D03*
X129535000Y-94490000D03*
X129535000Y-91950000D03*
X129535000Y-89410000D03*
X129535000Y-86870000D03*
X129535000Y-84330000D03*
X129535000Y-81790000D03*
X129535000Y-79250000D03*
X129535000Y-76710000D03*
X129535000Y-74170000D03*
X114295000Y-74170000D03*
X114295000Y-76710000D03*
X114295000Y-79250000D03*
X114295000Y-81790000D03*
X114295000Y-84330000D03*
X114295000Y-86870000D03*
X114295000Y-89410000D03*
X114295000Y-91950000D03*
X114295000Y-94490000D03*
X114295000Y-97030000D03*
X114295000Y-99570000D03*
X114295000Y-102110000D03*
X114295000Y-104650000D03*
X114295000Y-107190000D03*
X114295000Y-109730000D03*
%TD*%
D20*
%TO.C,REF\u002A\u002A*%
X121920000Y-71120000D03*
%TD*%
D13*
%TO.C,R10K1*%
X149613593Y-94688358D03*
D14*
X149613593Y-107388358D03*
%TD*%
D30*
%TO.C,1N4007*%
X180286268Y-97452246D03*
D31*
X180286268Y-82212246D03*
%TD*%
D15*
%TO.C,Accessory1*%
X137160000Y-100519486D03*
D16*
X137160000Y-98019486D03*
X137160000Y-95519486D03*
%TD*%
D13*
%TO.C,0.1uF1*%
X180340000Y-101600000D03*
X180340000Y-106600000D03*
%TD*%
D20*
%TO.C,REF\u002A\u002A*%
X180340000Y-111760000D03*
%TD*%
M02*
